M48
; DRILL file {KiCad 8.0.8} date 2025-01-15T16:31:16-0800
; FORMAT={-:-/ absolute / metric / decimal}
; #@! TF.CreationDate,2025-01-15T16:31:16-08:00
; #@! TF.GenerationSoftware,Kicad,Pcbnew,8.0.8
; #@! TF.FileFunction,Plated,1,4,PTH
FMAT,2
METRIC
; #@! TA.AperFunction,Plated,PTH,ComponentDrill
T1C0.762
; #@! TA.AperFunction,Plated,PTH,ComponentDrill
T2C0.900
; #@! TA.AperFunction,Plated,PTH,ComponentDrill
T3C1.000
; #@! TA.AperFunction,Plated,PTH,ComponentDrill
T4C1.100
%
G90
G05
T1
X83.6Y-65.97
X83.6Y-69.47
X83.6Y-72.97
X101.268Y-43.0
X101.268Y-45.54
X101.268Y-54.43
X101.268Y-56.97
X112.1Y-68.2
X112.1Y-70.74
X117.76Y-58.5
X117.76Y-61.04
X117.76Y-63.58
X117.76Y-66.12
X117.76Y-68.66
X117.76Y-71.2
X117.76Y-73.74
X117.76Y-76.28
X133.0Y-58.5
X133.0Y-61.04
X133.0Y-63.58
X133.0Y-66.12
X133.0Y-68.66
X133.0Y-71.2
X133.0Y-73.74
X133.0Y-76.28
T2
X82.268Y-43.0
X82.268Y-45.54
X82.268Y-54.43
X82.268Y-56.97
T3
X119.84Y-51.0
X122.38Y-51.0
X124.92Y-51.0
X127.46Y-51.0
X130.0Y-51.0
X132.54Y-51.0
X137.5Y-56.3
X137.5Y-58.84
X137.5Y-61.38
X137.5Y-63.92
X137.5Y-66.46
X137.5Y-69.0
X137.5Y-71.54
T4
X68.09Y-74.75
X69.86Y-48.0
X69.86Y-50.5
X69.94Y-58.995
X69.94Y-67.395
X72.44Y-58.995
X72.44Y-67.395
X78.25Y-74.75
M30
