G04 #@! TF.GenerationSoftware,KiCad,Pcbnew,8.0.8*
G04 #@! TF.CreationDate,2025-01-15T16:32:18-08:00*
G04 #@! TF.ProjectId,bentroller,62656e74-726f-46c6-9c65-722e6b696361,rev?*
G04 #@! TF.SameCoordinates,Original*
G04 #@! TF.FileFunction,Legend,Top*
G04 #@! TF.FilePolarity,Positive*
%FSLAX46Y46*%
G04 Gerber Fmt 4.6, Leading zero omitted, Abs format (unit mm)*
G04 Created by KiCad (PCBNEW 8.0.8) date 2025-01-15 16:32:18*
%MOMM*%
%LPD*%
G01*
G04 APERTURE LIST*
%ADD10C,0.150000*%
%ADD11C,0.300000*%
%ADD12C,0.152400*%
%ADD13C,0.100000*%
%ADD14C,0.120000*%
%ADD15R,1.700000X1.700000*%
%ADD16O,1.700000X1.700000*%
%ADD17C,2.100000*%
%ADD18C,4.200000*%
%ADD19C,1.524000*%
%ADD20R,1.524000X1.524000*%
%ADD21R,2.200000X2.200000*%
%ADD22O,2.200000X2.200000*%
G04 APERTURE END LIST*
D10*
X120254819Y-48314285D02*
X120254819Y-48885713D01*
X120254819Y-48599999D02*
X119254819Y-48599999D01*
X119254819Y-48599999D02*
X119397676Y-48695237D01*
X119397676Y-48695237D02*
X119492914Y-48790475D01*
X119492914Y-48790475D02*
X119540533Y-48885713D01*
X121950057Y-48885713D02*
X121902438Y-48838094D01*
X121902438Y-48838094D02*
X121854819Y-48742856D01*
X121854819Y-48742856D02*
X121854819Y-48504761D01*
X121854819Y-48504761D02*
X121902438Y-48409523D01*
X121902438Y-48409523D02*
X121950057Y-48361904D01*
X121950057Y-48361904D02*
X122045295Y-48314285D01*
X122045295Y-48314285D02*
X122140533Y-48314285D01*
X122140533Y-48314285D02*
X122283390Y-48361904D01*
X122283390Y-48361904D02*
X122854819Y-48933332D01*
X122854819Y-48933332D02*
X122854819Y-48314285D01*
X124454819Y-48933332D02*
X124454819Y-48314285D01*
X124454819Y-48314285D02*
X124835771Y-48647618D01*
X124835771Y-48647618D02*
X124835771Y-48504761D01*
X124835771Y-48504761D02*
X124883390Y-48409523D01*
X124883390Y-48409523D02*
X124931009Y-48361904D01*
X124931009Y-48361904D02*
X125026247Y-48314285D01*
X125026247Y-48314285D02*
X125264342Y-48314285D01*
X125264342Y-48314285D02*
X125359580Y-48361904D01*
X125359580Y-48361904D02*
X125407200Y-48409523D01*
X125407200Y-48409523D02*
X125454819Y-48504761D01*
X125454819Y-48504761D02*
X125454819Y-48790475D01*
X125454819Y-48790475D02*
X125407200Y-48885713D01*
X125407200Y-48885713D02*
X125359580Y-48933332D01*
X127288152Y-48409523D02*
X127954819Y-48409523D01*
X126907200Y-48647618D02*
X127621485Y-48885713D01*
X127621485Y-48885713D02*
X127621485Y-48266666D01*
X129550057Y-48961904D02*
X129502438Y-48914285D01*
X129502438Y-48914285D02*
X129454819Y-48819047D01*
X129454819Y-48819047D02*
X129454819Y-48580952D01*
X129454819Y-48580952D02*
X129502438Y-48485714D01*
X129502438Y-48485714D02*
X129550057Y-48438095D01*
X129550057Y-48438095D02*
X129645295Y-48390476D01*
X129645295Y-48390476D02*
X129740533Y-48390476D01*
X129740533Y-48390476D02*
X129883390Y-48438095D01*
X129883390Y-48438095D02*
X130454819Y-49009523D01*
X130454819Y-49009523D02*
X130454819Y-48390476D01*
X130454819Y-47438095D02*
X130454819Y-48009523D01*
X130454819Y-47723809D02*
X129454819Y-47723809D01*
X129454819Y-47723809D02*
X129597676Y-47819047D01*
X129597676Y-47819047D02*
X129692914Y-47914285D01*
X129692914Y-47914285D02*
X129740533Y-48009523D01*
X132050057Y-48961904D02*
X132002438Y-48914285D01*
X132002438Y-48914285D02*
X131954819Y-48819047D01*
X131954819Y-48819047D02*
X131954819Y-48580952D01*
X131954819Y-48580952D02*
X132002438Y-48485714D01*
X132002438Y-48485714D02*
X132050057Y-48438095D01*
X132050057Y-48438095D02*
X132145295Y-48390476D01*
X132145295Y-48390476D02*
X132240533Y-48390476D01*
X132240533Y-48390476D02*
X132383390Y-48438095D01*
X132383390Y-48438095D02*
X132954819Y-49009523D01*
X132954819Y-49009523D02*
X132954819Y-48390476D01*
X131954819Y-47771428D02*
X131954819Y-47676190D01*
X131954819Y-47676190D02*
X132002438Y-47580952D01*
X132002438Y-47580952D02*
X132050057Y-47533333D01*
X132050057Y-47533333D02*
X132145295Y-47485714D01*
X132145295Y-47485714D02*
X132335771Y-47438095D01*
X132335771Y-47438095D02*
X132573866Y-47438095D01*
X132573866Y-47438095D02*
X132764342Y-47485714D01*
X132764342Y-47485714D02*
X132859580Y-47533333D01*
X132859580Y-47533333D02*
X132907200Y-47580952D01*
X132907200Y-47580952D02*
X132954819Y-47676190D01*
X132954819Y-47676190D02*
X132954819Y-47771428D01*
X132954819Y-47771428D02*
X132907200Y-47866666D01*
X132907200Y-47866666D02*
X132859580Y-47914285D01*
X132859580Y-47914285D02*
X132764342Y-47961904D01*
X132764342Y-47961904D02*
X132573866Y-48009523D01*
X132573866Y-48009523D02*
X132335771Y-48009523D01*
X132335771Y-48009523D02*
X132145295Y-47961904D01*
X132145295Y-47961904D02*
X132050057Y-47914285D01*
X132050057Y-47914285D02*
X132002438Y-47866666D01*
X132002438Y-47866666D02*
X131954819Y-47771428D01*
X140161904Y-55802438D02*
X140066666Y-55754819D01*
X140066666Y-55754819D02*
X139923809Y-55754819D01*
X139923809Y-55754819D02*
X139780952Y-55802438D01*
X139780952Y-55802438D02*
X139685714Y-55897676D01*
X139685714Y-55897676D02*
X139638095Y-55992914D01*
X139638095Y-55992914D02*
X139590476Y-56183390D01*
X139590476Y-56183390D02*
X139590476Y-56326247D01*
X139590476Y-56326247D02*
X139638095Y-56516723D01*
X139638095Y-56516723D02*
X139685714Y-56611961D01*
X139685714Y-56611961D02*
X139780952Y-56707200D01*
X139780952Y-56707200D02*
X139923809Y-56754819D01*
X139923809Y-56754819D02*
X140019047Y-56754819D01*
X140019047Y-56754819D02*
X140161904Y-56707200D01*
X140161904Y-56707200D02*
X140209523Y-56659580D01*
X140209523Y-56659580D02*
X140209523Y-56326247D01*
X140209523Y-56326247D02*
X140019047Y-56326247D01*
X140209523Y-59354819D02*
X139638095Y-59354819D01*
X139923809Y-59354819D02*
X139923809Y-58354819D01*
X139923809Y-58354819D02*
X139828571Y-58497676D01*
X139828571Y-58497676D02*
X139733333Y-58592914D01*
X139733333Y-58592914D02*
X139638095Y-58640533D01*
X140828571Y-58354819D02*
X140923809Y-58354819D01*
X140923809Y-58354819D02*
X141019047Y-58402438D01*
X141019047Y-58402438D02*
X141066666Y-58450057D01*
X141066666Y-58450057D02*
X141114285Y-58545295D01*
X141114285Y-58545295D02*
X141161904Y-58735771D01*
X141161904Y-58735771D02*
X141161904Y-58973866D01*
X141161904Y-58973866D02*
X141114285Y-59164342D01*
X141114285Y-59164342D02*
X141066666Y-59259580D01*
X141066666Y-59259580D02*
X141019047Y-59307200D01*
X141019047Y-59307200D02*
X140923809Y-59354819D01*
X140923809Y-59354819D02*
X140828571Y-59354819D01*
X140828571Y-59354819D02*
X140733333Y-59307200D01*
X140733333Y-59307200D02*
X140685714Y-59259580D01*
X140685714Y-59259580D02*
X140638095Y-59164342D01*
X140638095Y-59164342D02*
X140590476Y-58973866D01*
X140590476Y-58973866D02*
X140590476Y-58735771D01*
X140590476Y-58735771D02*
X140638095Y-58545295D01*
X140638095Y-58545295D02*
X140685714Y-58450057D01*
X140685714Y-58450057D02*
X140733333Y-58402438D01*
X140733333Y-58402438D02*
X140828571Y-58354819D01*
X139709524Y-61954819D02*
X139900000Y-61954819D01*
X139900000Y-61954819D02*
X139995238Y-61907200D01*
X139995238Y-61907200D02*
X140042857Y-61859580D01*
X140042857Y-61859580D02*
X140138095Y-61716723D01*
X140138095Y-61716723D02*
X140185714Y-61526247D01*
X140185714Y-61526247D02*
X140185714Y-61145295D01*
X140185714Y-61145295D02*
X140138095Y-61050057D01*
X140138095Y-61050057D02*
X140090476Y-61002438D01*
X140090476Y-61002438D02*
X139995238Y-60954819D01*
X139995238Y-60954819D02*
X139804762Y-60954819D01*
X139804762Y-60954819D02*
X139709524Y-61002438D01*
X139709524Y-61002438D02*
X139661905Y-61050057D01*
X139661905Y-61050057D02*
X139614286Y-61145295D01*
X139614286Y-61145295D02*
X139614286Y-61383390D01*
X139614286Y-61383390D02*
X139661905Y-61478628D01*
X139661905Y-61478628D02*
X139709524Y-61526247D01*
X139709524Y-61526247D02*
X139804762Y-61573866D01*
X139804762Y-61573866D02*
X139995238Y-61573866D01*
X139995238Y-61573866D02*
X140090476Y-61526247D01*
X140090476Y-61526247D02*
X140138095Y-61478628D01*
X140138095Y-61478628D02*
X140185714Y-61383390D01*
X139904762Y-63783390D02*
X139809524Y-63735771D01*
X139809524Y-63735771D02*
X139761905Y-63688152D01*
X139761905Y-63688152D02*
X139714286Y-63592914D01*
X139714286Y-63592914D02*
X139714286Y-63545295D01*
X139714286Y-63545295D02*
X139761905Y-63450057D01*
X139761905Y-63450057D02*
X139809524Y-63402438D01*
X139809524Y-63402438D02*
X139904762Y-63354819D01*
X139904762Y-63354819D02*
X140095238Y-63354819D01*
X140095238Y-63354819D02*
X140190476Y-63402438D01*
X140190476Y-63402438D02*
X140238095Y-63450057D01*
X140238095Y-63450057D02*
X140285714Y-63545295D01*
X140285714Y-63545295D02*
X140285714Y-63592914D01*
X140285714Y-63592914D02*
X140238095Y-63688152D01*
X140238095Y-63688152D02*
X140190476Y-63735771D01*
X140190476Y-63735771D02*
X140095238Y-63783390D01*
X140095238Y-63783390D02*
X139904762Y-63783390D01*
X139904762Y-63783390D02*
X139809524Y-63831009D01*
X139809524Y-63831009D02*
X139761905Y-63878628D01*
X139761905Y-63878628D02*
X139714286Y-63973866D01*
X139714286Y-63973866D02*
X139714286Y-64164342D01*
X139714286Y-64164342D02*
X139761905Y-64259580D01*
X139761905Y-64259580D02*
X139809524Y-64307200D01*
X139809524Y-64307200D02*
X139904762Y-64354819D01*
X139904762Y-64354819D02*
X140095238Y-64354819D01*
X140095238Y-64354819D02*
X140190476Y-64307200D01*
X140190476Y-64307200D02*
X140238095Y-64259580D01*
X140238095Y-64259580D02*
X140285714Y-64164342D01*
X140285714Y-64164342D02*
X140285714Y-63973866D01*
X140285714Y-63973866D02*
X140238095Y-63878628D01*
X140238095Y-63878628D02*
X140190476Y-63831009D01*
X140190476Y-63831009D02*
X140095238Y-63783390D01*
X139666667Y-65954819D02*
X140333333Y-65954819D01*
X140333333Y-65954819D02*
X139904762Y-66954819D01*
X140190476Y-68554819D02*
X140000000Y-68554819D01*
X140000000Y-68554819D02*
X139904762Y-68602438D01*
X139904762Y-68602438D02*
X139857143Y-68650057D01*
X139857143Y-68650057D02*
X139761905Y-68792914D01*
X139761905Y-68792914D02*
X139714286Y-68983390D01*
X139714286Y-68983390D02*
X139714286Y-69364342D01*
X139714286Y-69364342D02*
X139761905Y-69459580D01*
X139761905Y-69459580D02*
X139809524Y-69507200D01*
X139809524Y-69507200D02*
X139904762Y-69554819D01*
X139904762Y-69554819D02*
X140095238Y-69554819D01*
X140095238Y-69554819D02*
X140190476Y-69507200D01*
X140190476Y-69507200D02*
X140238095Y-69459580D01*
X140238095Y-69459580D02*
X140285714Y-69364342D01*
X140285714Y-69364342D02*
X140285714Y-69126247D01*
X140285714Y-69126247D02*
X140238095Y-69031009D01*
X140238095Y-69031009D02*
X140190476Y-68983390D01*
X140190476Y-68983390D02*
X140095238Y-68935771D01*
X140095238Y-68935771D02*
X139904762Y-68935771D01*
X139904762Y-68935771D02*
X139809524Y-68983390D01*
X139809524Y-68983390D02*
X139761905Y-69031009D01*
X139761905Y-69031009D02*
X139714286Y-69126247D01*
X140238095Y-71154819D02*
X139761905Y-71154819D01*
X139761905Y-71154819D02*
X139714286Y-71631009D01*
X139714286Y-71631009D02*
X139761905Y-71583390D01*
X139761905Y-71583390D02*
X139857143Y-71535771D01*
X139857143Y-71535771D02*
X140095238Y-71535771D01*
X140095238Y-71535771D02*
X140190476Y-71583390D01*
X140190476Y-71583390D02*
X140238095Y-71631009D01*
X140238095Y-71631009D02*
X140285714Y-71726247D01*
X140285714Y-71726247D02*
X140285714Y-71964342D01*
X140285714Y-71964342D02*
X140238095Y-72059580D01*
X140238095Y-72059580D02*
X140190476Y-72107200D01*
X140190476Y-72107200D02*
X140095238Y-72154819D01*
X140095238Y-72154819D02*
X139857143Y-72154819D01*
X139857143Y-72154819D02*
X139761905Y-72107200D01*
X139761905Y-72107200D02*
X139714286Y-72059580D01*
X67857143Y-71573866D02*
X68619048Y-71573866D01*
X68238095Y-71954819D02*
X68238095Y-71192914D01*
X70190476Y-71431009D02*
X69857143Y-71431009D01*
X69857143Y-71954819D02*
X69857143Y-70954819D01*
X69857143Y-70954819D02*
X70333333Y-70954819D01*
X70666667Y-71669104D02*
X71142857Y-71669104D01*
X70571429Y-71954819D02*
X70904762Y-70954819D01*
X70904762Y-70954819D02*
X71238095Y-71954819D01*
X71571429Y-71954819D02*
X71571429Y-70954819D01*
X71571429Y-70954819D02*
X72142857Y-71954819D01*
X72142857Y-71954819D02*
X72142857Y-70954819D01*
X73380953Y-71573866D02*
X74142858Y-71573866D01*
X67857143Y-63073866D02*
X68619048Y-63073866D01*
X68238095Y-63454819D02*
X68238095Y-62692914D01*
X70190476Y-62931009D02*
X69857143Y-62931009D01*
X69857143Y-63454819D02*
X69857143Y-62454819D01*
X69857143Y-62454819D02*
X70333333Y-62454819D01*
X70666667Y-63169104D02*
X71142857Y-63169104D01*
X70571429Y-63454819D02*
X70904762Y-62454819D01*
X70904762Y-62454819D02*
X71238095Y-63454819D01*
X71571429Y-63454819D02*
X71571429Y-62454819D01*
X71571429Y-62454819D02*
X72142857Y-63454819D01*
X72142857Y-63454819D02*
X72142857Y-62454819D01*
X73380953Y-63073866D02*
X74142858Y-63073866D01*
D11*
X105883082Y-45377038D02*
X106054510Y-45434181D01*
X106054510Y-45434181D02*
X106111653Y-45491324D01*
X106111653Y-45491324D02*
X106168796Y-45605609D01*
X106168796Y-45605609D02*
X106168796Y-45777038D01*
X106168796Y-45777038D02*
X106111653Y-45891324D01*
X106111653Y-45891324D02*
X106054510Y-45948467D01*
X106054510Y-45948467D02*
X105940225Y-46005609D01*
X105940225Y-46005609D02*
X105483082Y-46005609D01*
X105483082Y-46005609D02*
X105483082Y-44805609D01*
X105483082Y-44805609D02*
X105883082Y-44805609D01*
X105883082Y-44805609D02*
X105997368Y-44862752D01*
X105997368Y-44862752D02*
X106054510Y-44919895D01*
X106054510Y-44919895D02*
X106111653Y-45034181D01*
X106111653Y-45034181D02*
X106111653Y-45148467D01*
X106111653Y-45148467D02*
X106054510Y-45262752D01*
X106054510Y-45262752D02*
X105997368Y-45319895D01*
X105997368Y-45319895D02*
X105883082Y-45377038D01*
X105883082Y-45377038D02*
X105483082Y-45377038D01*
X106683082Y-45377038D02*
X107083082Y-45377038D01*
X107254510Y-46005609D02*
X106683082Y-46005609D01*
X106683082Y-46005609D02*
X106683082Y-44805609D01*
X106683082Y-44805609D02*
X107254510Y-44805609D01*
X107768796Y-46005609D02*
X107768796Y-44805609D01*
X107768796Y-44805609D02*
X108454510Y-46005609D01*
X108454510Y-46005609D02*
X108454510Y-44805609D01*
X108854510Y-44805609D02*
X109540225Y-44805609D01*
X109197367Y-46005609D02*
X109197367Y-44805609D01*
X110625939Y-46005609D02*
X110225939Y-45434181D01*
X109940225Y-46005609D02*
X109940225Y-44805609D01*
X109940225Y-44805609D02*
X110397368Y-44805609D01*
X110397368Y-44805609D02*
X110511653Y-44862752D01*
X110511653Y-44862752D02*
X110568796Y-44919895D01*
X110568796Y-44919895D02*
X110625939Y-45034181D01*
X110625939Y-45034181D02*
X110625939Y-45205609D01*
X110625939Y-45205609D02*
X110568796Y-45319895D01*
X110568796Y-45319895D02*
X110511653Y-45377038D01*
X110511653Y-45377038D02*
X110397368Y-45434181D01*
X110397368Y-45434181D02*
X109940225Y-45434181D01*
X111368796Y-44805609D02*
X111597368Y-44805609D01*
X111597368Y-44805609D02*
X111711653Y-44862752D01*
X111711653Y-44862752D02*
X111825939Y-44977038D01*
X111825939Y-44977038D02*
X111883082Y-45205609D01*
X111883082Y-45205609D02*
X111883082Y-45605609D01*
X111883082Y-45605609D02*
X111825939Y-45834181D01*
X111825939Y-45834181D02*
X111711653Y-45948467D01*
X111711653Y-45948467D02*
X111597368Y-46005609D01*
X111597368Y-46005609D02*
X111368796Y-46005609D01*
X111368796Y-46005609D02*
X111254511Y-45948467D01*
X111254511Y-45948467D02*
X111140225Y-45834181D01*
X111140225Y-45834181D02*
X111083082Y-45605609D01*
X111083082Y-45605609D02*
X111083082Y-45205609D01*
X111083082Y-45205609D02*
X111140225Y-44977038D01*
X111140225Y-44977038D02*
X111254511Y-44862752D01*
X111254511Y-44862752D02*
X111368796Y-44805609D01*
X112968796Y-46005609D02*
X112397368Y-46005609D01*
X112397368Y-46005609D02*
X112397368Y-44805609D01*
X113940225Y-46005609D02*
X113368797Y-46005609D01*
X113368797Y-46005609D02*
X113368797Y-44805609D01*
X114340226Y-45377038D02*
X114740226Y-45377038D01*
X114911654Y-46005609D02*
X114340226Y-46005609D01*
X114340226Y-46005609D02*
X114340226Y-44805609D01*
X114340226Y-44805609D02*
X114911654Y-44805609D01*
X116111654Y-46005609D02*
X115711654Y-45434181D01*
X115425940Y-46005609D02*
X115425940Y-44805609D01*
X115425940Y-44805609D02*
X115883083Y-44805609D01*
X115883083Y-44805609D02*
X115997368Y-44862752D01*
X115997368Y-44862752D02*
X116054511Y-44919895D01*
X116054511Y-44919895D02*
X116111654Y-45034181D01*
X116111654Y-45034181D02*
X116111654Y-45205609D01*
X116111654Y-45205609D02*
X116054511Y-45319895D01*
X116054511Y-45319895D02*
X115997368Y-45377038D01*
X115997368Y-45377038D02*
X115883083Y-45434181D01*
X115883083Y-45434181D02*
X115425940Y-45434181D01*
X105368796Y-47137542D02*
X105654510Y-47937542D01*
X105654510Y-47937542D02*
X105940225Y-47137542D01*
X106340225Y-46851828D02*
X106397368Y-46794685D01*
X106397368Y-46794685D02*
X106511654Y-46737542D01*
X106511654Y-46737542D02*
X106797368Y-46737542D01*
X106797368Y-46737542D02*
X106911654Y-46794685D01*
X106911654Y-46794685D02*
X106968796Y-46851828D01*
X106968796Y-46851828D02*
X107025939Y-46966114D01*
X107025939Y-46966114D02*
X107025939Y-47080400D01*
X107025939Y-47080400D02*
X106968796Y-47251828D01*
X106968796Y-47251828D02*
X106283082Y-47937542D01*
X106283082Y-47937542D02*
X107025939Y-47937542D01*
X107540225Y-47823257D02*
X107597368Y-47880400D01*
X107597368Y-47880400D02*
X107540225Y-47937542D01*
X107540225Y-47937542D02*
X107483082Y-47880400D01*
X107483082Y-47880400D02*
X107540225Y-47823257D01*
X107540225Y-47823257D02*
X107540225Y-47937542D01*
X108340225Y-46737542D02*
X108454511Y-46737542D01*
X108454511Y-46737542D02*
X108568797Y-46794685D01*
X108568797Y-46794685D02*
X108625940Y-46851828D01*
X108625940Y-46851828D02*
X108683082Y-46966114D01*
X108683082Y-46966114D02*
X108740225Y-47194685D01*
X108740225Y-47194685D02*
X108740225Y-47480400D01*
X108740225Y-47480400D02*
X108683082Y-47708971D01*
X108683082Y-47708971D02*
X108625940Y-47823257D01*
X108625940Y-47823257D02*
X108568797Y-47880400D01*
X108568797Y-47880400D02*
X108454511Y-47937542D01*
X108454511Y-47937542D02*
X108340225Y-47937542D01*
X108340225Y-47937542D02*
X108225940Y-47880400D01*
X108225940Y-47880400D02*
X108168797Y-47823257D01*
X108168797Y-47823257D02*
X108111654Y-47708971D01*
X108111654Y-47708971D02*
X108054511Y-47480400D01*
X108054511Y-47480400D02*
X108054511Y-47194685D01*
X108054511Y-47194685D02*
X108111654Y-46966114D01*
X108111654Y-46966114D02*
X108168797Y-46851828D01*
X108168797Y-46851828D02*
X108225940Y-46794685D01*
X108225940Y-46794685D02*
X108340225Y-46737542D01*
X109483082Y-46737542D02*
X109597368Y-46737542D01*
X109597368Y-46737542D02*
X109711654Y-46794685D01*
X109711654Y-46794685D02*
X109768797Y-46851828D01*
X109768797Y-46851828D02*
X109825939Y-46966114D01*
X109825939Y-46966114D02*
X109883082Y-47194685D01*
X109883082Y-47194685D02*
X109883082Y-47480400D01*
X109883082Y-47480400D02*
X109825939Y-47708971D01*
X109825939Y-47708971D02*
X109768797Y-47823257D01*
X109768797Y-47823257D02*
X109711654Y-47880400D01*
X109711654Y-47880400D02*
X109597368Y-47937542D01*
X109597368Y-47937542D02*
X109483082Y-47937542D01*
X109483082Y-47937542D02*
X109368797Y-47880400D01*
X109368797Y-47880400D02*
X109311654Y-47823257D01*
X109311654Y-47823257D02*
X109254511Y-47708971D01*
X109254511Y-47708971D02*
X109197368Y-47480400D01*
X109197368Y-47480400D02*
X109197368Y-47194685D01*
X109197368Y-47194685D02*
X109254511Y-46966114D01*
X109254511Y-46966114D02*
X109311654Y-46851828D01*
X109311654Y-46851828D02*
X109368797Y-46794685D01*
X109368797Y-46794685D02*
X109483082Y-46737542D01*
D10*
X103136779Y-64069819D02*
X103136779Y-63069819D01*
X103136779Y-63069819D02*
X103374874Y-63069819D01*
X103374874Y-63069819D02*
X103517731Y-63117438D01*
X103517731Y-63117438D02*
X103612969Y-63212676D01*
X103612969Y-63212676D02*
X103660588Y-63307914D01*
X103660588Y-63307914D02*
X103708207Y-63498390D01*
X103708207Y-63498390D02*
X103708207Y-63641247D01*
X103708207Y-63641247D02*
X103660588Y-63831723D01*
X103660588Y-63831723D02*
X103612969Y-63926961D01*
X103612969Y-63926961D02*
X103517731Y-64022200D01*
X103517731Y-64022200D02*
X103374874Y-64069819D01*
X103374874Y-64069819D02*
X103136779Y-64069819D01*
X104565350Y-63403152D02*
X104565350Y-64069819D01*
X104327255Y-63022200D02*
X104089160Y-63736485D01*
X104089160Y-63736485D02*
X104708207Y-63736485D01*
X105612969Y-64069819D02*
X105041541Y-64069819D01*
X105327255Y-64069819D02*
X105327255Y-63069819D01*
X105327255Y-63069819D02*
X105232017Y-63212676D01*
X105232017Y-63212676D02*
X105136779Y-63307914D01*
X105136779Y-63307914D02*
X105041541Y-63355533D01*
X106184398Y-63498390D02*
X106089160Y-63450771D01*
X106089160Y-63450771D02*
X106041541Y-63403152D01*
X106041541Y-63403152D02*
X105993922Y-63307914D01*
X105993922Y-63307914D02*
X105993922Y-63260295D01*
X105993922Y-63260295D02*
X106041541Y-63165057D01*
X106041541Y-63165057D02*
X106089160Y-63117438D01*
X106089160Y-63117438D02*
X106184398Y-63069819D01*
X106184398Y-63069819D02*
X106374874Y-63069819D01*
X106374874Y-63069819D02*
X106470112Y-63117438D01*
X106470112Y-63117438D02*
X106517731Y-63165057D01*
X106517731Y-63165057D02*
X106565350Y-63260295D01*
X106565350Y-63260295D02*
X106565350Y-63307914D01*
X106565350Y-63307914D02*
X106517731Y-63403152D01*
X106517731Y-63403152D02*
X106470112Y-63450771D01*
X106470112Y-63450771D02*
X106374874Y-63498390D01*
X106374874Y-63498390D02*
X106184398Y-63498390D01*
X106184398Y-63498390D02*
X106089160Y-63546009D01*
X106089160Y-63546009D02*
X106041541Y-63593628D01*
X106041541Y-63593628D02*
X105993922Y-63688866D01*
X105993922Y-63688866D02*
X105993922Y-63879342D01*
X105993922Y-63879342D02*
X106041541Y-63974580D01*
X106041541Y-63974580D02*
X106089160Y-64022200D01*
X106089160Y-64022200D02*
X106184398Y-64069819D01*
X106184398Y-64069819D02*
X106374874Y-64069819D01*
X106374874Y-64069819D02*
X106470112Y-64022200D01*
X106470112Y-64022200D02*
X106517731Y-63974580D01*
X106517731Y-63974580D02*
X106565350Y-63879342D01*
X106565350Y-63879342D02*
X106565350Y-63688866D01*
X106565350Y-63688866D02*
X106517731Y-63593628D01*
X106517731Y-63593628D02*
X106470112Y-63546009D01*
X106470112Y-63546009D02*
X106374874Y-63498390D01*
X107422493Y-63403152D02*
X107422493Y-64069819D01*
X107184398Y-63022200D02*
X106946303Y-63736485D01*
X106946303Y-63736485D02*
X107565350Y-63736485D01*
X81936779Y-47569819D02*
X81936779Y-46569819D01*
X81936779Y-46569819D02*
X82270112Y-47284104D01*
X82270112Y-47284104D02*
X82603445Y-46569819D01*
X82603445Y-46569819D02*
X82603445Y-47569819D01*
X83079636Y-47569819D02*
X83079636Y-46569819D01*
X83079636Y-46569819D02*
X83460588Y-46569819D01*
X83460588Y-46569819D02*
X83555826Y-46617438D01*
X83555826Y-46617438D02*
X83603445Y-46665057D01*
X83603445Y-46665057D02*
X83651064Y-46760295D01*
X83651064Y-46760295D02*
X83651064Y-46903152D01*
X83651064Y-46903152D02*
X83603445Y-46998390D01*
X83603445Y-46998390D02*
X83555826Y-47046009D01*
X83555826Y-47046009D02*
X83460588Y-47093628D01*
X83460588Y-47093628D02*
X83079636Y-47093628D01*
X84603445Y-47569819D02*
X84032017Y-47569819D01*
X84317731Y-47569819D02*
X84317731Y-46569819D01*
X84317731Y-46569819D02*
X84222493Y-46712676D01*
X84222493Y-46712676D02*
X84127255Y-46807914D01*
X84127255Y-46807914D02*
X84032017Y-46855533D01*
X85508207Y-46569819D02*
X85032017Y-46569819D01*
X85032017Y-46569819D02*
X84984398Y-47046009D01*
X84984398Y-47046009D02*
X85032017Y-46998390D01*
X85032017Y-46998390D02*
X85127255Y-46950771D01*
X85127255Y-46950771D02*
X85365350Y-46950771D01*
X85365350Y-46950771D02*
X85460588Y-46998390D01*
X85460588Y-46998390D02*
X85508207Y-47046009D01*
X85508207Y-47046009D02*
X85555826Y-47141247D01*
X85555826Y-47141247D02*
X85555826Y-47379342D01*
X85555826Y-47379342D02*
X85508207Y-47474580D01*
X85508207Y-47474580D02*
X85460588Y-47522200D01*
X85460588Y-47522200D02*
X85365350Y-47569819D01*
X85365350Y-47569819D02*
X85127255Y-47569819D01*
X85127255Y-47569819D02*
X85032017Y-47522200D01*
X85032017Y-47522200D02*
X84984398Y-47474580D01*
X86127255Y-46998390D02*
X86032017Y-46950771D01*
X86032017Y-46950771D02*
X85984398Y-46903152D01*
X85984398Y-46903152D02*
X85936779Y-46807914D01*
X85936779Y-46807914D02*
X85936779Y-46760295D01*
X85936779Y-46760295D02*
X85984398Y-46665057D01*
X85984398Y-46665057D02*
X86032017Y-46617438D01*
X86032017Y-46617438D02*
X86127255Y-46569819D01*
X86127255Y-46569819D02*
X86317731Y-46569819D01*
X86317731Y-46569819D02*
X86412969Y-46617438D01*
X86412969Y-46617438D02*
X86460588Y-46665057D01*
X86460588Y-46665057D02*
X86508207Y-46760295D01*
X86508207Y-46760295D02*
X86508207Y-46807914D01*
X86508207Y-46807914D02*
X86460588Y-46903152D01*
X86460588Y-46903152D02*
X86412969Y-46950771D01*
X86412969Y-46950771D02*
X86317731Y-46998390D01*
X86317731Y-46998390D02*
X86127255Y-46998390D01*
X86127255Y-46998390D02*
X86032017Y-47046009D01*
X86032017Y-47046009D02*
X85984398Y-47093628D01*
X85984398Y-47093628D02*
X85936779Y-47188866D01*
X85936779Y-47188866D02*
X85936779Y-47379342D01*
X85936779Y-47379342D02*
X85984398Y-47474580D01*
X85984398Y-47474580D02*
X86032017Y-47522200D01*
X86032017Y-47522200D02*
X86127255Y-47569819D01*
X86127255Y-47569819D02*
X86317731Y-47569819D01*
X86317731Y-47569819D02*
X86412969Y-47522200D01*
X86412969Y-47522200D02*
X86460588Y-47474580D01*
X86460588Y-47474580D02*
X86508207Y-47379342D01*
X86508207Y-47379342D02*
X86508207Y-47188866D01*
X86508207Y-47188866D02*
X86460588Y-47093628D01*
X86460588Y-47093628D02*
X86412969Y-47046009D01*
X86412969Y-47046009D02*
X86317731Y-46998390D01*
X87365350Y-46903152D02*
X87365350Y-47569819D01*
X87127255Y-46522200D02*
X86889160Y-47236485D01*
X86889160Y-47236485D02*
X87508207Y-47236485D01*
D12*
X92526015Y-73679803D02*
X92526015Y-74260375D01*
X92526015Y-74260375D02*
X92487310Y-74376489D01*
X92487310Y-74376489D02*
X92409901Y-74453899D01*
X92409901Y-74453899D02*
X92293786Y-74492603D01*
X92293786Y-74492603D02*
X92216377Y-74492603D01*
X93300110Y-74492603D02*
X92913062Y-74492603D01*
X92913062Y-74492603D02*
X92913062Y-73679803D01*
X94035500Y-74415194D02*
X93996796Y-74453899D01*
X93996796Y-74453899D02*
X93880681Y-74492603D01*
X93880681Y-74492603D02*
X93803272Y-74492603D01*
X93803272Y-74492603D02*
X93687158Y-74453899D01*
X93687158Y-74453899D02*
X93609748Y-74376489D01*
X93609748Y-74376489D02*
X93571043Y-74299079D01*
X93571043Y-74299079D02*
X93532339Y-74144260D01*
X93532339Y-74144260D02*
X93532339Y-74028146D01*
X93532339Y-74028146D02*
X93571043Y-73873327D01*
X93571043Y-73873327D02*
X93609748Y-73795918D01*
X93609748Y-73795918D02*
X93687158Y-73718508D01*
X93687158Y-73718508D02*
X93803272Y-73679803D01*
X93803272Y-73679803D02*
X93880681Y-73679803D01*
X93880681Y-73679803D02*
X93996796Y-73718508D01*
X93996796Y-73718508D02*
X94035500Y-73757213D01*
X94616072Y-73679803D02*
X94616072Y-74260375D01*
X94616072Y-74260375D02*
X94577367Y-74376489D01*
X94577367Y-74376489D02*
X94499958Y-74453899D01*
X94499958Y-74453899D02*
X94383843Y-74492603D01*
X94383843Y-74492603D02*
X94306434Y-74492603D01*
X95390167Y-74492603D02*
X95003119Y-74492603D01*
X95003119Y-74492603D02*
X95003119Y-73679803D01*
X96125557Y-74415194D02*
X96086853Y-74453899D01*
X96086853Y-74453899D02*
X95970738Y-74492603D01*
X95970738Y-74492603D02*
X95893329Y-74492603D01*
X95893329Y-74492603D02*
X95777215Y-74453899D01*
X95777215Y-74453899D02*
X95699805Y-74376489D01*
X95699805Y-74376489D02*
X95661100Y-74299079D01*
X95661100Y-74299079D02*
X95622396Y-74144260D01*
X95622396Y-74144260D02*
X95622396Y-74028146D01*
X95622396Y-74028146D02*
X95661100Y-73873327D01*
X95661100Y-73873327D02*
X95699805Y-73795918D01*
X95699805Y-73795918D02*
X95777215Y-73718508D01*
X95777215Y-73718508D02*
X95893329Y-73679803D01*
X95893329Y-73679803D02*
X95970738Y-73679803D01*
X95970738Y-73679803D02*
X96086853Y-73718508D01*
X96086853Y-73718508D02*
X96125557Y-73757213D01*
X96706129Y-73679803D02*
X96706129Y-74260375D01*
X96706129Y-74260375D02*
X96667424Y-74376489D01*
X96667424Y-74376489D02*
X96590015Y-74453899D01*
X96590015Y-74453899D02*
X96473900Y-74492603D01*
X96473900Y-74492603D02*
X96396491Y-74492603D01*
X97480224Y-74492603D02*
X97093176Y-74492603D01*
X97093176Y-74492603D02*
X97093176Y-73679803D01*
X98215614Y-74415194D02*
X98176910Y-74453899D01*
X98176910Y-74453899D02*
X98060795Y-74492603D01*
X98060795Y-74492603D02*
X97983386Y-74492603D01*
X97983386Y-74492603D02*
X97867272Y-74453899D01*
X97867272Y-74453899D02*
X97789862Y-74376489D01*
X97789862Y-74376489D02*
X97751157Y-74299079D01*
X97751157Y-74299079D02*
X97712453Y-74144260D01*
X97712453Y-74144260D02*
X97712453Y-74028146D01*
X97712453Y-74028146D02*
X97751157Y-73873327D01*
X97751157Y-73873327D02*
X97789862Y-73795918D01*
X97789862Y-73795918D02*
X97867272Y-73718508D01*
X97867272Y-73718508D02*
X97983386Y-73679803D01*
X97983386Y-73679803D02*
X98060795Y-73679803D01*
X98060795Y-73679803D02*
X98176910Y-73718508D01*
X98176910Y-73718508D02*
X98215614Y-73757213D01*
X98796186Y-73679803D02*
X98796186Y-74260375D01*
X98796186Y-74260375D02*
X98757481Y-74376489D01*
X98757481Y-74376489D02*
X98680072Y-74453899D01*
X98680072Y-74453899D02*
X98563957Y-74492603D01*
X98563957Y-74492603D02*
X98486548Y-74492603D01*
X99570281Y-74492603D02*
X99183233Y-74492603D01*
X99183233Y-74492603D02*
X99183233Y-73679803D01*
X100305671Y-74415194D02*
X100266967Y-74453899D01*
X100266967Y-74453899D02*
X100150852Y-74492603D01*
X100150852Y-74492603D02*
X100073443Y-74492603D01*
X100073443Y-74492603D02*
X99957329Y-74453899D01*
X99957329Y-74453899D02*
X99879919Y-74376489D01*
X99879919Y-74376489D02*
X99841214Y-74299079D01*
X99841214Y-74299079D02*
X99802510Y-74144260D01*
X99802510Y-74144260D02*
X99802510Y-74028146D01*
X99802510Y-74028146D02*
X99841214Y-73873327D01*
X99841214Y-73873327D02*
X99879919Y-73795918D01*
X99879919Y-73795918D02*
X99957329Y-73718508D01*
X99957329Y-73718508D02*
X100073443Y-73679803D01*
X100073443Y-73679803D02*
X100150852Y-73679803D01*
X100150852Y-73679803D02*
X100266967Y-73718508D01*
X100266967Y-73718508D02*
X100305671Y-73757213D01*
D10*
X105289160Y-48965057D02*
X105336779Y-48917438D01*
X105336779Y-48917438D02*
X105432017Y-48869819D01*
X105432017Y-48869819D02*
X105670112Y-48869819D01*
X105670112Y-48869819D02*
X105765350Y-48917438D01*
X105765350Y-48917438D02*
X105812969Y-48965057D01*
X105812969Y-48965057D02*
X105860588Y-49060295D01*
X105860588Y-49060295D02*
X105860588Y-49155533D01*
X105860588Y-49155533D02*
X105812969Y-49298390D01*
X105812969Y-49298390D02*
X105241541Y-49869819D01*
X105241541Y-49869819D02*
X105860588Y-49869819D01*
X106479636Y-48869819D02*
X106574874Y-48869819D01*
X106574874Y-48869819D02*
X106670112Y-48917438D01*
X106670112Y-48917438D02*
X106717731Y-48965057D01*
X106717731Y-48965057D02*
X106765350Y-49060295D01*
X106765350Y-49060295D02*
X106812969Y-49250771D01*
X106812969Y-49250771D02*
X106812969Y-49488866D01*
X106812969Y-49488866D02*
X106765350Y-49679342D01*
X106765350Y-49679342D02*
X106717731Y-49774580D01*
X106717731Y-49774580D02*
X106670112Y-49822200D01*
X106670112Y-49822200D02*
X106574874Y-49869819D01*
X106574874Y-49869819D02*
X106479636Y-49869819D01*
X106479636Y-49869819D02*
X106384398Y-49822200D01*
X106384398Y-49822200D02*
X106336779Y-49774580D01*
X106336779Y-49774580D02*
X106289160Y-49679342D01*
X106289160Y-49679342D02*
X106241541Y-49488866D01*
X106241541Y-49488866D02*
X106241541Y-49250771D01*
X106241541Y-49250771D02*
X106289160Y-49060295D01*
X106289160Y-49060295D02*
X106336779Y-48965057D01*
X106336779Y-48965057D02*
X106384398Y-48917438D01*
X106384398Y-48917438D02*
X106479636Y-48869819D01*
X107193922Y-48965057D02*
X107241541Y-48917438D01*
X107241541Y-48917438D02*
X107336779Y-48869819D01*
X107336779Y-48869819D02*
X107574874Y-48869819D01*
X107574874Y-48869819D02*
X107670112Y-48917438D01*
X107670112Y-48917438D02*
X107717731Y-48965057D01*
X107717731Y-48965057D02*
X107765350Y-49060295D01*
X107765350Y-49060295D02*
X107765350Y-49155533D01*
X107765350Y-49155533D02*
X107717731Y-49298390D01*
X107717731Y-49298390D02*
X107146303Y-49869819D01*
X107146303Y-49869819D02*
X107765350Y-49869819D01*
X108670112Y-48869819D02*
X108193922Y-48869819D01*
X108193922Y-48869819D02*
X108146303Y-49346009D01*
X108146303Y-49346009D02*
X108193922Y-49298390D01*
X108193922Y-49298390D02*
X108289160Y-49250771D01*
X108289160Y-49250771D02*
X108527255Y-49250771D01*
X108527255Y-49250771D02*
X108622493Y-49298390D01*
X108622493Y-49298390D02*
X108670112Y-49346009D01*
X108670112Y-49346009D02*
X108717731Y-49441247D01*
X108717731Y-49441247D02*
X108717731Y-49679342D01*
X108717731Y-49679342D02*
X108670112Y-49774580D01*
X108670112Y-49774580D02*
X108622493Y-49822200D01*
X108622493Y-49822200D02*
X108527255Y-49869819D01*
X108527255Y-49869819D02*
X108289160Y-49869819D01*
X108289160Y-49869819D02*
X108193922Y-49822200D01*
X108193922Y-49822200D02*
X108146303Y-49774580D01*
X109860588Y-48822200D02*
X109003446Y-50107914D01*
X110384398Y-48869819D02*
X110479636Y-48869819D01*
X110479636Y-48869819D02*
X110574874Y-48917438D01*
X110574874Y-48917438D02*
X110622493Y-48965057D01*
X110622493Y-48965057D02*
X110670112Y-49060295D01*
X110670112Y-49060295D02*
X110717731Y-49250771D01*
X110717731Y-49250771D02*
X110717731Y-49488866D01*
X110717731Y-49488866D02*
X110670112Y-49679342D01*
X110670112Y-49679342D02*
X110622493Y-49774580D01*
X110622493Y-49774580D02*
X110574874Y-49822200D01*
X110574874Y-49822200D02*
X110479636Y-49869819D01*
X110479636Y-49869819D02*
X110384398Y-49869819D01*
X110384398Y-49869819D02*
X110289160Y-49822200D01*
X110289160Y-49822200D02*
X110241541Y-49774580D01*
X110241541Y-49774580D02*
X110193922Y-49679342D01*
X110193922Y-49679342D02*
X110146303Y-49488866D01*
X110146303Y-49488866D02*
X110146303Y-49250771D01*
X110146303Y-49250771D02*
X110193922Y-49060295D01*
X110193922Y-49060295D02*
X110241541Y-48965057D01*
X110241541Y-48965057D02*
X110289160Y-48917438D01*
X110289160Y-48917438D02*
X110384398Y-48869819D01*
X111670112Y-49869819D02*
X111098684Y-49869819D01*
X111384398Y-49869819D02*
X111384398Y-48869819D01*
X111384398Y-48869819D02*
X111289160Y-49012676D01*
X111289160Y-49012676D02*
X111193922Y-49107914D01*
X111193922Y-49107914D02*
X111098684Y-49155533D01*
X112812969Y-48822200D02*
X111955827Y-50107914D01*
X113670112Y-49869819D02*
X113098684Y-49869819D01*
X113384398Y-49869819D02*
X113384398Y-48869819D01*
X113384398Y-48869819D02*
X113289160Y-49012676D01*
X113289160Y-49012676D02*
X113193922Y-49107914D01*
X113193922Y-49107914D02*
X113098684Y-49155533D01*
X114574874Y-48869819D02*
X114098684Y-48869819D01*
X114098684Y-48869819D02*
X114051065Y-49346009D01*
X114051065Y-49346009D02*
X114098684Y-49298390D01*
X114098684Y-49298390D02*
X114193922Y-49250771D01*
X114193922Y-49250771D02*
X114432017Y-49250771D01*
X114432017Y-49250771D02*
X114527255Y-49298390D01*
X114527255Y-49298390D02*
X114574874Y-49346009D01*
X114574874Y-49346009D02*
X114622493Y-49441247D01*
X114622493Y-49441247D02*
X114622493Y-49679342D01*
X114622493Y-49679342D02*
X114574874Y-49774580D01*
X114574874Y-49774580D02*
X114527255Y-49822200D01*
X114527255Y-49822200D02*
X114432017Y-49869819D01*
X114432017Y-49869819D02*
X114193922Y-49869819D01*
X114193922Y-49869819D02*
X114098684Y-49822200D01*
X114098684Y-49822200D02*
X114051065Y-49774580D01*
X74573866Y-52595237D02*
X74573866Y-51833333D01*
X74954819Y-52214285D02*
X74192914Y-52214285D01*
X74050057Y-50642856D02*
X74002438Y-50595237D01*
X74002438Y-50595237D02*
X73954819Y-50499999D01*
X73954819Y-50499999D02*
X73954819Y-50261904D01*
X73954819Y-50261904D02*
X74002438Y-50166666D01*
X74002438Y-50166666D02*
X74050057Y-50119047D01*
X74050057Y-50119047D02*
X74145295Y-50071428D01*
X74145295Y-50071428D02*
X74240533Y-50071428D01*
X74240533Y-50071428D02*
X74383390Y-50119047D01*
X74383390Y-50119047D02*
X74954819Y-50690475D01*
X74954819Y-50690475D02*
X74954819Y-50071428D01*
X74288152Y-49214285D02*
X74954819Y-49214285D01*
X73907200Y-49452380D02*
X74621485Y-49690475D01*
X74621485Y-49690475D02*
X74621485Y-49071428D01*
X74288152Y-48785713D02*
X74954819Y-48547618D01*
X74954819Y-48547618D02*
X74288152Y-48309523D01*
X74573866Y-47166665D02*
X74573866Y-46404761D01*
X74380951Y-70426133D02*
X73619047Y-70426133D01*
X137166666Y-73324819D02*
X137166666Y-74039104D01*
X137166666Y-74039104D02*
X137119047Y-74181961D01*
X137119047Y-74181961D02*
X137023809Y-74277200D01*
X137023809Y-74277200D02*
X136880952Y-74324819D01*
X136880952Y-74324819D02*
X136785714Y-74324819D01*
X138071428Y-73658152D02*
X138071428Y-74324819D01*
X137833333Y-73277200D02*
X137595238Y-73991485D01*
X137595238Y-73991485D02*
X138214285Y-73991485D01*
X134704819Y-51333333D02*
X135419104Y-51333333D01*
X135419104Y-51333333D02*
X135561961Y-51380952D01*
X135561961Y-51380952D02*
X135657200Y-51476190D01*
X135657200Y-51476190D02*
X135704819Y-51619047D01*
X135704819Y-51619047D02*
X135704819Y-51714285D01*
X134704819Y-50380952D02*
X134704819Y-50857142D01*
X134704819Y-50857142D02*
X135181009Y-50904761D01*
X135181009Y-50904761D02*
X135133390Y-50857142D01*
X135133390Y-50857142D02*
X135085771Y-50761904D01*
X135085771Y-50761904D02*
X135085771Y-50523809D01*
X135085771Y-50523809D02*
X135133390Y-50428571D01*
X135133390Y-50428571D02*
X135181009Y-50380952D01*
X135181009Y-50380952D02*
X135276247Y-50333333D01*
X135276247Y-50333333D02*
X135514342Y-50333333D01*
X135514342Y-50333333D02*
X135609580Y-50380952D01*
X135609580Y-50380952D02*
X135657200Y-50428571D01*
X135657200Y-50428571D02*
X135704819Y-50523809D01*
X135704819Y-50523809D02*
X135704819Y-50761904D01*
X135704819Y-50761904D02*
X135657200Y-50857142D01*
X135657200Y-50857142D02*
X135609580Y-50904761D01*
X76006666Y-69349819D02*
X76006666Y-70064104D01*
X76006666Y-70064104D02*
X75959047Y-70206961D01*
X75959047Y-70206961D02*
X75863809Y-70302200D01*
X75863809Y-70302200D02*
X75720952Y-70349819D01*
X75720952Y-70349819D02*
X75625714Y-70349819D01*
X76387619Y-69349819D02*
X77006666Y-69349819D01*
X77006666Y-69349819D02*
X76673333Y-69730771D01*
X76673333Y-69730771D02*
X76816190Y-69730771D01*
X76816190Y-69730771D02*
X76911428Y-69778390D01*
X76911428Y-69778390D02*
X76959047Y-69826009D01*
X76959047Y-69826009D02*
X77006666Y-69921247D01*
X77006666Y-69921247D02*
X77006666Y-70159342D01*
X77006666Y-70159342D02*
X76959047Y-70254580D01*
X76959047Y-70254580D02*
X76911428Y-70302200D01*
X76911428Y-70302200D02*
X76816190Y-70349819D01*
X76816190Y-70349819D02*
X76530476Y-70349819D01*
X76530476Y-70349819D02*
X76435238Y-70302200D01*
X76435238Y-70302200D02*
X76387619Y-70254580D01*
X76006666Y-60949819D02*
X76006666Y-61664104D01*
X76006666Y-61664104D02*
X75959047Y-61806961D01*
X75959047Y-61806961D02*
X75863809Y-61902200D01*
X75863809Y-61902200D02*
X75720952Y-61949819D01*
X75720952Y-61949819D02*
X75625714Y-61949819D01*
X76435238Y-61045057D02*
X76482857Y-60997438D01*
X76482857Y-60997438D02*
X76578095Y-60949819D01*
X76578095Y-60949819D02*
X76816190Y-60949819D01*
X76816190Y-60949819D02*
X76911428Y-60997438D01*
X76911428Y-60997438D02*
X76959047Y-61045057D01*
X76959047Y-61045057D02*
X77006666Y-61140295D01*
X77006666Y-61140295D02*
X77006666Y-61235533D01*
X77006666Y-61235533D02*
X76959047Y-61378390D01*
X76959047Y-61378390D02*
X76387619Y-61949819D01*
X76387619Y-61949819D02*
X77006666Y-61949819D01*
X71814819Y-44583333D02*
X72529104Y-44583333D01*
X72529104Y-44583333D02*
X72671961Y-44630952D01*
X72671961Y-44630952D02*
X72767200Y-44726190D01*
X72767200Y-44726190D02*
X72814819Y-44869047D01*
X72814819Y-44869047D02*
X72814819Y-44964285D01*
X72814819Y-43583333D02*
X72814819Y-44154761D01*
X72814819Y-43869047D02*
X71814819Y-43869047D01*
X71814819Y-43869047D02*
X71957676Y-43964285D01*
X71957676Y-43964285D02*
X72052914Y-44059523D01*
X72052914Y-44059523D02*
X72100533Y-44154761D01*
D13*
X132238095Y-78457419D02*
X132238095Y-79266942D01*
X132238095Y-79266942D02*
X132285714Y-79362180D01*
X132285714Y-79362180D02*
X132333333Y-79409800D01*
X132333333Y-79409800D02*
X132428571Y-79457419D01*
X132428571Y-79457419D02*
X132619047Y-79457419D01*
X132619047Y-79457419D02*
X132714285Y-79409800D01*
X132714285Y-79409800D02*
X132761904Y-79362180D01*
X132761904Y-79362180D02*
X132809523Y-79266942D01*
X132809523Y-79266942D02*
X132809523Y-78457419D01*
X133809523Y-79457419D02*
X133238095Y-79457419D01*
X133523809Y-79457419D02*
X133523809Y-78457419D01*
X133523809Y-78457419D02*
X133428571Y-78600276D01*
X133428571Y-78600276D02*
X133333333Y-78695514D01*
X133333333Y-78695514D02*
X133238095Y-78743133D01*
X131641353Y-71687580D02*
X130974687Y-71687580D01*
X130974687Y-71687580D02*
X131403258Y-70687580D01*
X119599925Y-76897580D02*
X120076115Y-76897580D01*
X120076115Y-76897580D02*
X120123734Y-76421390D01*
X120123734Y-76421390D02*
X120076115Y-76469009D01*
X120076115Y-76469009D02*
X119980877Y-76516628D01*
X119980877Y-76516628D02*
X119742782Y-76516628D01*
X119742782Y-76516628D02*
X119647544Y-76469009D01*
X119647544Y-76469009D02*
X119599925Y-76421390D01*
X119599925Y-76421390D02*
X119552306Y-76326152D01*
X119552306Y-76326152D02*
X119552306Y-76088057D01*
X119552306Y-76088057D02*
X119599925Y-75992819D01*
X119599925Y-75992819D02*
X119647544Y-75945200D01*
X119647544Y-75945200D02*
X119742782Y-75897580D01*
X119742782Y-75897580D02*
X119980877Y-75897580D01*
X119980877Y-75897580D02*
X120076115Y-75945200D01*
X120076115Y-75945200D02*
X120123734Y-75992819D01*
X119218972Y-76564247D02*
X118980877Y-75897580D01*
X118980877Y-75897580D02*
X118742782Y-76564247D01*
X131593734Y-58892342D02*
X131546115Y-58939961D01*
X131546115Y-58939961D02*
X131450877Y-58987580D01*
X131450877Y-58987580D02*
X131212782Y-58987580D01*
X131212782Y-58987580D02*
X131117544Y-58939961D01*
X131117544Y-58939961D02*
X131069925Y-58892342D01*
X131069925Y-58892342D02*
X131022306Y-58797104D01*
X131022306Y-58797104D02*
X131022306Y-58701866D01*
X131022306Y-58701866D02*
X131069925Y-58559009D01*
X131069925Y-58559009D02*
X131641353Y-57987580D01*
X131641353Y-57987580D02*
X131022306Y-57987580D01*
X130069925Y-57987580D02*
X130641353Y-57987580D01*
X130355639Y-57987580D02*
X130355639Y-58987580D01*
X130355639Y-58987580D02*
X130450877Y-58844723D01*
X130450877Y-58844723D02*
X130546115Y-58749485D01*
X130546115Y-58749485D02*
X130641353Y-58701866D01*
X119325639Y-59017580D02*
X119230401Y-59017580D01*
X119230401Y-59017580D02*
X119135163Y-58969961D01*
X119135163Y-58969961D02*
X119087544Y-58922342D01*
X119087544Y-58922342D02*
X119039925Y-58827104D01*
X119039925Y-58827104D02*
X118992306Y-58636628D01*
X118992306Y-58636628D02*
X118992306Y-58398533D01*
X118992306Y-58398533D02*
X119039925Y-58208057D01*
X119039925Y-58208057D02*
X119087544Y-58112819D01*
X119087544Y-58112819D02*
X119135163Y-58065200D01*
X119135163Y-58065200D02*
X119230401Y-58017580D01*
X119230401Y-58017580D02*
X119325639Y-58017580D01*
X119325639Y-58017580D02*
X119420877Y-58065200D01*
X119420877Y-58065200D02*
X119468496Y-58112819D01*
X119468496Y-58112819D02*
X119516115Y-58208057D01*
X119516115Y-58208057D02*
X119563734Y-58398533D01*
X119563734Y-58398533D02*
X119563734Y-58636628D01*
X119563734Y-58636628D02*
X119516115Y-58827104D01*
X119516115Y-58827104D02*
X119468496Y-58922342D01*
X119468496Y-58922342D02*
X119420877Y-58969961D01*
X119420877Y-58969961D02*
X119325639Y-59017580D01*
D12*
X129121756Y-66054805D02*
X129160460Y-66016101D01*
X129160460Y-66016101D02*
X129276575Y-65977396D01*
X129276575Y-65977396D02*
X129353984Y-65977396D01*
X129353984Y-65977396D02*
X129470098Y-66016101D01*
X129470098Y-66016101D02*
X129547508Y-66093510D01*
X129547508Y-66093510D02*
X129586213Y-66170920D01*
X129586213Y-66170920D02*
X129624917Y-66325739D01*
X129624917Y-66325739D02*
X129624917Y-66441853D01*
X129624917Y-66441853D02*
X129586213Y-66596672D01*
X129586213Y-66596672D02*
X129547508Y-66674081D01*
X129547508Y-66674081D02*
X129470098Y-66751491D01*
X129470098Y-66751491D02*
X129353984Y-66790196D01*
X129353984Y-66790196D02*
X129276575Y-66790196D01*
X129276575Y-66790196D02*
X129160460Y-66751491D01*
X129160460Y-66751491D02*
X129121756Y-66712786D01*
X128850822Y-66790196D02*
X128347660Y-66790196D01*
X128347660Y-66790196D02*
X128618594Y-66480558D01*
X128618594Y-66480558D02*
X128502479Y-66480558D01*
X128502479Y-66480558D02*
X128425070Y-66441853D01*
X128425070Y-66441853D02*
X128386365Y-66403148D01*
X128386365Y-66403148D02*
X128347660Y-66325739D01*
X128347660Y-66325739D02*
X128347660Y-66132215D01*
X128347660Y-66132215D02*
X128386365Y-66054805D01*
X128386365Y-66054805D02*
X128425070Y-66016101D01*
X128425070Y-66016101D02*
X128502479Y-65977396D01*
X128502479Y-65977396D02*
X128734708Y-65977396D01*
X128734708Y-65977396D02*
X128812117Y-66016101D01*
X128812117Y-66016101D02*
X128850822Y-66054805D01*
X127418746Y-66016101D02*
X127302632Y-65977396D01*
X127302632Y-65977396D02*
X127109108Y-65977396D01*
X127109108Y-65977396D02*
X127031699Y-66016101D01*
X127031699Y-66016101D02*
X126992994Y-66054805D01*
X126992994Y-66054805D02*
X126954289Y-66132215D01*
X126954289Y-66132215D02*
X126954289Y-66209624D01*
X126954289Y-66209624D02*
X126992994Y-66287034D01*
X126992994Y-66287034D02*
X127031699Y-66325739D01*
X127031699Y-66325739D02*
X127109108Y-66364443D01*
X127109108Y-66364443D02*
X127263927Y-66403148D01*
X127263927Y-66403148D02*
X127341337Y-66441853D01*
X127341337Y-66441853D02*
X127380042Y-66480558D01*
X127380042Y-66480558D02*
X127418746Y-66557967D01*
X127418746Y-66557967D02*
X127418746Y-66635377D01*
X127418746Y-66635377D02*
X127380042Y-66712786D01*
X127380042Y-66712786D02*
X127341337Y-66751491D01*
X127341337Y-66751491D02*
X127263927Y-66790196D01*
X127263927Y-66790196D02*
X127070404Y-66790196D01*
X127070404Y-66790196D02*
X126954289Y-66751491D01*
X126257604Y-66519262D02*
X126257604Y-65977396D01*
X126605947Y-66519262D02*
X126605947Y-66093510D01*
X126605947Y-66093510D02*
X126567242Y-66016101D01*
X126567242Y-66016101D02*
X126489832Y-65977396D01*
X126489832Y-65977396D02*
X126373718Y-65977396D01*
X126373718Y-65977396D02*
X126296309Y-66016101D01*
X126296309Y-66016101D02*
X126257604Y-66054805D01*
X125870557Y-66519262D02*
X125870557Y-65706462D01*
X125870557Y-66480558D02*
X125793147Y-66519262D01*
X125793147Y-66519262D02*
X125638328Y-66519262D01*
X125638328Y-66519262D02*
X125560919Y-66480558D01*
X125560919Y-66480558D02*
X125522214Y-66441853D01*
X125522214Y-66441853D02*
X125483509Y-66364443D01*
X125483509Y-66364443D02*
X125483509Y-66132215D01*
X125483509Y-66132215D02*
X125522214Y-66054805D01*
X125522214Y-66054805D02*
X125560919Y-66016101D01*
X125560919Y-66016101D02*
X125638328Y-65977396D01*
X125638328Y-65977396D02*
X125793147Y-65977396D01*
X125793147Y-65977396D02*
X125870557Y-66016101D01*
X124825529Y-66016101D02*
X124902938Y-65977396D01*
X124902938Y-65977396D02*
X125057757Y-65977396D01*
X125057757Y-65977396D02*
X125135167Y-66016101D01*
X125135167Y-66016101D02*
X125173871Y-66093510D01*
X125173871Y-66093510D02*
X125173871Y-66403148D01*
X125173871Y-66403148D02*
X125135167Y-66480558D01*
X125135167Y-66480558D02*
X125057757Y-66519262D01*
X125057757Y-66519262D02*
X124902938Y-66519262D01*
X124902938Y-66519262D02*
X124825529Y-66480558D01*
X124825529Y-66480558D02*
X124786824Y-66403148D01*
X124786824Y-66403148D02*
X124786824Y-66325739D01*
X124786824Y-66325739D02*
X125173871Y-66248329D01*
X124438481Y-65977396D02*
X124438481Y-66519262D01*
X124438481Y-66364443D02*
X124399776Y-66441853D01*
X124399776Y-66441853D02*
X124361071Y-66480558D01*
X124361071Y-66480558D02*
X124283662Y-66519262D01*
X124283662Y-66519262D02*
X124206252Y-66519262D01*
X123316043Y-65977396D02*
X123316043Y-66790196D01*
X123316043Y-66790196D02*
X123045109Y-66209624D01*
X123045109Y-66209624D02*
X122774176Y-66790196D01*
X122774176Y-66790196D02*
X122774176Y-65977396D01*
X122387129Y-65977396D02*
X122387129Y-66519262D01*
X122387129Y-66790196D02*
X122425833Y-66751491D01*
X122425833Y-66751491D02*
X122387129Y-66712786D01*
X122387129Y-66712786D02*
X122348424Y-66751491D01*
X122348424Y-66751491D02*
X122387129Y-66790196D01*
X122387129Y-66790196D02*
X122387129Y-66712786D01*
X122000081Y-66519262D02*
X122000081Y-65977396D01*
X122000081Y-66441853D02*
X121961376Y-66480558D01*
X121961376Y-66480558D02*
X121883966Y-66519262D01*
X121883966Y-66519262D02*
X121767852Y-66519262D01*
X121767852Y-66519262D02*
X121690443Y-66480558D01*
X121690443Y-66480558D02*
X121651738Y-66403148D01*
X121651738Y-66403148D02*
X121651738Y-65977396D01*
X121264691Y-65977396D02*
X121264691Y-66519262D01*
X121264691Y-66790196D02*
X121303395Y-66751491D01*
X121303395Y-66751491D02*
X121264691Y-66712786D01*
X121264691Y-66712786D02*
X121225986Y-66751491D01*
X121225986Y-66751491D02*
X121264691Y-66790196D01*
X121264691Y-66790196D02*
X121264691Y-66712786D01*
D13*
X118992306Y-60557580D02*
X119563734Y-60557580D01*
X119278020Y-60557580D02*
X119278020Y-61557580D01*
X119278020Y-61557580D02*
X119373258Y-61414723D01*
X119373258Y-61414723D02*
X119468496Y-61319485D01*
X119468496Y-61319485D02*
X119563734Y-61271866D01*
X118992306Y-74209961D02*
X119087544Y-74257580D01*
X119087544Y-74257580D02*
X119230401Y-74257580D01*
X119230401Y-74257580D02*
X119373258Y-74209961D01*
X119373258Y-74209961D02*
X119468496Y-74114723D01*
X119468496Y-74114723D02*
X119516115Y-74019485D01*
X119516115Y-74019485D02*
X119563734Y-73829009D01*
X119563734Y-73829009D02*
X119563734Y-73686152D01*
X119563734Y-73686152D02*
X119516115Y-73495676D01*
X119516115Y-73495676D02*
X119468496Y-73400438D01*
X119468496Y-73400438D02*
X119373258Y-73305200D01*
X119373258Y-73305200D02*
X119230401Y-73257580D01*
X119230401Y-73257580D02*
X119135163Y-73257580D01*
X119135163Y-73257580D02*
X118992306Y-73305200D01*
X118992306Y-73305200D02*
X118944687Y-73352819D01*
X118944687Y-73352819D02*
X118944687Y-73686152D01*
X118944687Y-73686152D02*
X119135163Y-73686152D01*
X131117544Y-74227580D02*
X131308020Y-74227580D01*
X131308020Y-74227580D02*
X131403258Y-74179961D01*
X131403258Y-74179961D02*
X131450877Y-74132342D01*
X131450877Y-74132342D02*
X131546115Y-73989485D01*
X131546115Y-73989485D02*
X131593734Y-73799009D01*
X131593734Y-73799009D02*
X131593734Y-73418057D01*
X131593734Y-73418057D02*
X131546115Y-73322819D01*
X131546115Y-73322819D02*
X131498496Y-73275200D01*
X131498496Y-73275200D02*
X131403258Y-73227580D01*
X131403258Y-73227580D02*
X131212782Y-73227580D01*
X131212782Y-73227580D02*
X131117544Y-73275200D01*
X131117544Y-73275200D02*
X131069925Y-73322819D01*
X131069925Y-73322819D02*
X131022306Y-73418057D01*
X131022306Y-73418057D02*
X131022306Y-73656152D01*
X131022306Y-73656152D02*
X131069925Y-73751390D01*
X131069925Y-73751390D02*
X131117544Y-73799009D01*
X131117544Y-73799009D02*
X131212782Y-73846628D01*
X131212782Y-73846628D02*
X131403258Y-73846628D01*
X131403258Y-73846628D02*
X131498496Y-73799009D01*
X131498496Y-73799009D02*
X131546115Y-73751390D01*
X131546115Y-73751390D02*
X131593734Y-73656152D01*
X119611353Y-66637580D02*
X118992306Y-66637580D01*
X118992306Y-66637580D02*
X119325639Y-66256628D01*
X119325639Y-66256628D02*
X119182782Y-66256628D01*
X119182782Y-66256628D02*
X119087544Y-66209009D01*
X119087544Y-66209009D02*
X119039925Y-66161390D01*
X119039925Y-66161390D02*
X118992306Y-66066152D01*
X118992306Y-66066152D02*
X118992306Y-65828057D01*
X118992306Y-65828057D02*
X119039925Y-65732819D01*
X119039925Y-65732819D02*
X119087544Y-65685200D01*
X119087544Y-65685200D02*
X119182782Y-65637580D01*
X119182782Y-65637580D02*
X119468496Y-65637580D01*
X119468496Y-65637580D02*
X119563734Y-65685200D01*
X119563734Y-65685200D02*
X119611353Y-65732819D01*
X131403258Y-68719009D02*
X131498496Y-68766628D01*
X131498496Y-68766628D02*
X131546115Y-68814247D01*
X131546115Y-68814247D02*
X131593734Y-68909485D01*
X131593734Y-68909485D02*
X131593734Y-68957104D01*
X131593734Y-68957104D02*
X131546115Y-69052342D01*
X131546115Y-69052342D02*
X131498496Y-69099961D01*
X131498496Y-69099961D02*
X131403258Y-69147580D01*
X131403258Y-69147580D02*
X131212782Y-69147580D01*
X131212782Y-69147580D02*
X131117544Y-69099961D01*
X131117544Y-69099961D02*
X131069925Y-69052342D01*
X131069925Y-69052342D02*
X131022306Y-68957104D01*
X131022306Y-68957104D02*
X131022306Y-68909485D01*
X131022306Y-68909485D02*
X131069925Y-68814247D01*
X131069925Y-68814247D02*
X131117544Y-68766628D01*
X131117544Y-68766628D02*
X131212782Y-68719009D01*
X131212782Y-68719009D02*
X131403258Y-68719009D01*
X131403258Y-68719009D02*
X131498496Y-68671390D01*
X131498496Y-68671390D02*
X131546115Y-68623771D01*
X131546115Y-68623771D02*
X131593734Y-68528533D01*
X131593734Y-68528533D02*
X131593734Y-68338057D01*
X131593734Y-68338057D02*
X131546115Y-68242819D01*
X131546115Y-68242819D02*
X131498496Y-68195200D01*
X131498496Y-68195200D02*
X131403258Y-68147580D01*
X131403258Y-68147580D02*
X131212782Y-68147580D01*
X131212782Y-68147580D02*
X131117544Y-68195200D01*
X131117544Y-68195200D02*
X131069925Y-68242819D01*
X131069925Y-68242819D02*
X131022306Y-68338057D01*
X131022306Y-68338057D02*
X131022306Y-68528533D01*
X131022306Y-68528533D02*
X131069925Y-68623771D01*
X131069925Y-68623771D02*
X131117544Y-68671390D01*
X131117544Y-68671390D02*
X131212782Y-68719009D01*
X120631353Y-72227580D02*
X120012306Y-72227580D01*
X120012306Y-72227580D02*
X120345639Y-71846628D01*
X120345639Y-71846628D02*
X120202782Y-71846628D01*
X120202782Y-71846628D02*
X120107544Y-71799009D01*
X120107544Y-71799009D02*
X120059925Y-71751390D01*
X120059925Y-71751390D02*
X120012306Y-71656152D01*
X120012306Y-71656152D02*
X120012306Y-71418057D01*
X120012306Y-71418057D02*
X120059925Y-71322819D01*
X120059925Y-71322819D02*
X120107544Y-71275200D01*
X120107544Y-71275200D02*
X120202782Y-71227580D01*
X120202782Y-71227580D02*
X120488496Y-71227580D01*
X120488496Y-71227580D02*
X120583734Y-71275200D01*
X120583734Y-71275200D02*
X120631353Y-71322819D01*
X119583734Y-71322819D02*
X119536115Y-71275200D01*
X119536115Y-71275200D02*
X119583734Y-71227580D01*
X119583734Y-71227580D02*
X119631353Y-71275200D01*
X119631353Y-71275200D02*
X119583734Y-71322819D01*
X119583734Y-71322819D02*
X119583734Y-71227580D01*
X119202782Y-72227580D02*
X118583735Y-72227580D01*
X118583735Y-72227580D02*
X118917068Y-71846628D01*
X118917068Y-71846628D02*
X118774211Y-71846628D01*
X118774211Y-71846628D02*
X118678973Y-71799009D01*
X118678973Y-71799009D02*
X118631354Y-71751390D01*
X118631354Y-71751390D02*
X118583735Y-71656152D01*
X118583735Y-71656152D02*
X118583735Y-71418057D01*
X118583735Y-71418057D02*
X118631354Y-71322819D01*
X118631354Y-71322819D02*
X118678973Y-71275200D01*
X118678973Y-71275200D02*
X118774211Y-71227580D01*
X118774211Y-71227580D02*
X119059925Y-71227580D01*
X119059925Y-71227580D02*
X119155163Y-71275200D01*
X119155163Y-71275200D02*
X119202782Y-71322819D01*
X127468972Y-75664247D02*
X127088020Y-75664247D01*
X127326115Y-75997580D02*
X127326115Y-75140438D01*
X127326115Y-75140438D02*
X127278496Y-75045200D01*
X127278496Y-75045200D02*
X127183258Y-74997580D01*
X127183258Y-74997580D02*
X127088020Y-74997580D01*
X126849924Y-75664247D02*
X126611829Y-74997580D01*
X126373734Y-75664247D02*
X126611829Y-74997580D01*
X126611829Y-74997580D02*
X126707067Y-74759485D01*
X126707067Y-74759485D02*
X126754686Y-74711866D01*
X126754686Y-74711866D02*
X126849924Y-74664247D01*
X125992781Y-75664247D02*
X125992781Y-74664247D01*
X125992781Y-75616628D02*
X125897543Y-75664247D01*
X125897543Y-75664247D02*
X125707067Y-75664247D01*
X125707067Y-75664247D02*
X125611829Y-75616628D01*
X125611829Y-75616628D02*
X125564210Y-75569009D01*
X125564210Y-75569009D02*
X125516591Y-75473771D01*
X125516591Y-75473771D02*
X125516591Y-75188057D01*
X125516591Y-75188057D02*
X125564210Y-75092819D01*
X125564210Y-75092819D02*
X125611829Y-75045200D01*
X125611829Y-75045200D02*
X125707067Y-74997580D01*
X125707067Y-74997580D02*
X125897543Y-74997580D01*
X125897543Y-74997580D02*
X125992781Y-75045200D01*
X124707067Y-75045200D02*
X124802305Y-74997580D01*
X124802305Y-74997580D02*
X124992781Y-74997580D01*
X124992781Y-74997580D02*
X125088019Y-75045200D01*
X125088019Y-75045200D02*
X125135638Y-75140438D01*
X125135638Y-75140438D02*
X125135638Y-75521390D01*
X125135638Y-75521390D02*
X125088019Y-75616628D01*
X125088019Y-75616628D02*
X124992781Y-75664247D01*
X124992781Y-75664247D02*
X124802305Y-75664247D01*
X124802305Y-75664247D02*
X124707067Y-75616628D01*
X124707067Y-75616628D02*
X124659448Y-75521390D01*
X124659448Y-75521390D02*
X124659448Y-75426152D01*
X124659448Y-75426152D02*
X125135638Y-75330914D01*
X124230876Y-75378533D02*
X123468972Y-75378533D01*
X122421353Y-75092819D02*
X122468972Y-75045200D01*
X122468972Y-75045200D02*
X122611829Y-74997580D01*
X122611829Y-74997580D02*
X122707067Y-74997580D01*
X122707067Y-74997580D02*
X122849924Y-75045200D01*
X122849924Y-75045200D02*
X122945162Y-75140438D01*
X122945162Y-75140438D02*
X122992781Y-75235676D01*
X122992781Y-75235676D02*
X123040400Y-75426152D01*
X123040400Y-75426152D02*
X123040400Y-75569009D01*
X123040400Y-75569009D02*
X122992781Y-75759485D01*
X122992781Y-75759485D02*
X122945162Y-75854723D01*
X122945162Y-75854723D02*
X122849924Y-75949961D01*
X122849924Y-75949961D02*
X122707067Y-75997580D01*
X122707067Y-75997580D02*
X122611829Y-75997580D01*
X122611829Y-75997580D02*
X122468972Y-75949961D01*
X122468972Y-75949961D02*
X122421353Y-75902342D01*
X131069925Y-76767580D02*
X131546115Y-76767580D01*
X131546115Y-76767580D02*
X131593734Y-76291390D01*
X131593734Y-76291390D02*
X131546115Y-76339009D01*
X131546115Y-76339009D02*
X131450877Y-76386628D01*
X131450877Y-76386628D02*
X131212782Y-76386628D01*
X131212782Y-76386628D02*
X131117544Y-76339009D01*
X131117544Y-76339009D02*
X131069925Y-76291390D01*
X131069925Y-76291390D02*
X131022306Y-76196152D01*
X131022306Y-76196152D02*
X131022306Y-75958057D01*
X131022306Y-75958057D02*
X131069925Y-75862819D01*
X131069925Y-75862819D02*
X131117544Y-75815200D01*
X131117544Y-75815200D02*
X131212782Y-75767580D01*
X131212782Y-75767580D02*
X131450877Y-75767580D01*
X131450877Y-75767580D02*
X131546115Y-75815200D01*
X131546115Y-75815200D02*
X131593734Y-75862819D01*
X131498496Y-65607580D02*
X131308020Y-65607580D01*
X131308020Y-65607580D02*
X131212782Y-65655200D01*
X131212782Y-65655200D02*
X131165163Y-65702819D01*
X131165163Y-65702819D02*
X131069925Y-65845676D01*
X131069925Y-65845676D02*
X131022306Y-66036152D01*
X131022306Y-66036152D02*
X131022306Y-66417104D01*
X131022306Y-66417104D02*
X131069925Y-66512342D01*
X131069925Y-66512342D02*
X131117544Y-66559961D01*
X131117544Y-66559961D02*
X131212782Y-66607580D01*
X131212782Y-66607580D02*
X131403258Y-66607580D01*
X131403258Y-66607580D02*
X131498496Y-66559961D01*
X131498496Y-66559961D02*
X131546115Y-66512342D01*
X131546115Y-66512342D02*
X131593734Y-66417104D01*
X131593734Y-66417104D02*
X131593734Y-66179009D01*
X131593734Y-66179009D02*
X131546115Y-66083771D01*
X131546115Y-66083771D02*
X131498496Y-66036152D01*
X131498496Y-66036152D02*
X131403258Y-65988533D01*
X131403258Y-65988533D02*
X131212782Y-65988533D01*
X131212782Y-65988533D02*
X131117544Y-66036152D01*
X131117544Y-66036152D02*
X131069925Y-66083771D01*
X131069925Y-66083771D02*
X131022306Y-66179009D01*
X119563734Y-64002342D02*
X119516115Y-64049961D01*
X119516115Y-64049961D02*
X119420877Y-64097580D01*
X119420877Y-64097580D02*
X119182782Y-64097580D01*
X119182782Y-64097580D02*
X119087544Y-64049961D01*
X119087544Y-64049961D02*
X119039925Y-64002342D01*
X119039925Y-64002342D02*
X118992306Y-63907104D01*
X118992306Y-63907104D02*
X118992306Y-63811866D01*
X118992306Y-63811866D02*
X119039925Y-63669009D01*
X119039925Y-63669009D02*
X119611353Y-63097580D01*
X119611353Y-63097580D02*
X118992306Y-63097580D01*
X131593734Y-61432342D02*
X131546115Y-61479961D01*
X131546115Y-61479961D02*
X131450877Y-61527580D01*
X131450877Y-61527580D02*
X131212782Y-61527580D01*
X131212782Y-61527580D02*
X131117544Y-61479961D01*
X131117544Y-61479961D02*
X131069925Y-61432342D01*
X131069925Y-61432342D02*
X131022306Y-61337104D01*
X131022306Y-61337104D02*
X131022306Y-61241866D01*
X131022306Y-61241866D02*
X131069925Y-61099009D01*
X131069925Y-61099009D02*
X131641353Y-60527580D01*
X131641353Y-60527580D02*
X131022306Y-60527580D01*
X130403258Y-61527580D02*
X130308020Y-61527580D01*
X130308020Y-61527580D02*
X130212782Y-61479961D01*
X130212782Y-61479961D02*
X130165163Y-61432342D01*
X130165163Y-61432342D02*
X130117544Y-61337104D01*
X130117544Y-61337104D02*
X130069925Y-61146628D01*
X130069925Y-61146628D02*
X130069925Y-60908533D01*
X130069925Y-60908533D02*
X130117544Y-60718057D01*
X130117544Y-60718057D02*
X130165163Y-60622819D01*
X130165163Y-60622819D02*
X130212782Y-60575200D01*
X130212782Y-60575200D02*
X130308020Y-60527580D01*
X130308020Y-60527580D02*
X130403258Y-60527580D01*
X130403258Y-60527580D02*
X130498496Y-60575200D01*
X130498496Y-60575200D02*
X130546115Y-60622819D01*
X130546115Y-60622819D02*
X130593734Y-60718057D01*
X130593734Y-60718057D02*
X130641353Y-60908533D01*
X130641353Y-60908533D02*
X130641353Y-61146628D01*
X130641353Y-61146628D02*
X130593734Y-61337104D01*
X130593734Y-61337104D02*
X130546115Y-61432342D01*
X130546115Y-61432342D02*
X130498496Y-61479961D01*
X130498496Y-61479961D02*
X130403258Y-61527580D01*
X119087544Y-68844247D02*
X119087544Y-68177580D01*
X119325639Y-69225200D02*
X119563734Y-68510914D01*
X119563734Y-68510914D02*
X118944687Y-68510914D01*
X129772782Y-69601390D02*
X129629925Y-69553771D01*
X129629925Y-69553771D02*
X129582306Y-69506152D01*
X129582306Y-69506152D02*
X129534687Y-69410914D01*
X129534687Y-69410914D02*
X129534687Y-69268057D01*
X129534687Y-69268057D02*
X129582306Y-69172819D01*
X129582306Y-69172819D02*
X129629925Y-69125200D01*
X129629925Y-69125200D02*
X129725163Y-69077580D01*
X129725163Y-69077580D02*
X130106115Y-69077580D01*
X130106115Y-69077580D02*
X130106115Y-70077580D01*
X130106115Y-70077580D02*
X129772782Y-70077580D01*
X129772782Y-70077580D02*
X129677544Y-70029961D01*
X129677544Y-70029961D02*
X129629925Y-69982342D01*
X129629925Y-69982342D02*
X129582306Y-69887104D01*
X129582306Y-69887104D02*
X129582306Y-69791866D01*
X129582306Y-69791866D02*
X129629925Y-69696628D01*
X129629925Y-69696628D02*
X129677544Y-69649009D01*
X129677544Y-69649009D02*
X129772782Y-69601390D01*
X129772782Y-69601390D02*
X130106115Y-69601390D01*
X128915639Y-70077580D02*
X128725163Y-70077580D01*
X128725163Y-70077580D02*
X128629925Y-70029961D01*
X128629925Y-70029961D02*
X128534687Y-69934723D01*
X128534687Y-69934723D02*
X128487068Y-69744247D01*
X128487068Y-69744247D02*
X128487068Y-69410914D01*
X128487068Y-69410914D02*
X128534687Y-69220438D01*
X128534687Y-69220438D02*
X128629925Y-69125200D01*
X128629925Y-69125200D02*
X128725163Y-69077580D01*
X128725163Y-69077580D02*
X128915639Y-69077580D01*
X128915639Y-69077580D02*
X129010877Y-69125200D01*
X129010877Y-69125200D02*
X129106115Y-69220438D01*
X129106115Y-69220438D02*
X129153734Y-69410914D01*
X129153734Y-69410914D02*
X129153734Y-69744247D01*
X129153734Y-69744247D02*
X129106115Y-69934723D01*
X129106115Y-69934723D02*
X129010877Y-70029961D01*
X129010877Y-70029961D02*
X128915639Y-70077580D01*
X127868020Y-70077580D02*
X127677544Y-70077580D01*
X127677544Y-70077580D02*
X127582306Y-70029961D01*
X127582306Y-70029961D02*
X127487068Y-69934723D01*
X127487068Y-69934723D02*
X127439449Y-69744247D01*
X127439449Y-69744247D02*
X127439449Y-69410914D01*
X127439449Y-69410914D02*
X127487068Y-69220438D01*
X127487068Y-69220438D02*
X127582306Y-69125200D01*
X127582306Y-69125200D02*
X127677544Y-69077580D01*
X127677544Y-69077580D02*
X127868020Y-69077580D01*
X127868020Y-69077580D02*
X127963258Y-69125200D01*
X127963258Y-69125200D02*
X128058496Y-69220438D01*
X128058496Y-69220438D02*
X128106115Y-69410914D01*
X128106115Y-69410914D02*
X128106115Y-69744247D01*
X128106115Y-69744247D02*
X128058496Y-69934723D01*
X128058496Y-69934723D02*
X127963258Y-70029961D01*
X127963258Y-70029961D02*
X127868020Y-70077580D01*
X127153734Y-70077580D02*
X126582306Y-70077580D01*
X126868020Y-69077580D02*
X126868020Y-70077580D01*
X122934687Y-69117580D02*
X123268020Y-69593771D01*
X123506115Y-69117580D02*
X123506115Y-70117580D01*
X123506115Y-70117580D02*
X123125163Y-70117580D01*
X123125163Y-70117580D02*
X123029925Y-70069961D01*
X123029925Y-70069961D02*
X122982306Y-70022342D01*
X122982306Y-70022342D02*
X122934687Y-69927104D01*
X122934687Y-69927104D02*
X122934687Y-69784247D01*
X122934687Y-69784247D02*
X122982306Y-69689009D01*
X122982306Y-69689009D02*
X123029925Y-69641390D01*
X123029925Y-69641390D02*
X123125163Y-69593771D01*
X123125163Y-69593771D02*
X123506115Y-69593771D01*
X122553734Y-69165200D02*
X122410877Y-69117580D01*
X122410877Y-69117580D02*
X122172782Y-69117580D01*
X122172782Y-69117580D02*
X122077544Y-69165200D01*
X122077544Y-69165200D02*
X122029925Y-69212819D01*
X122029925Y-69212819D02*
X121982306Y-69308057D01*
X121982306Y-69308057D02*
X121982306Y-69403295D01*
X121982306Y-69403295D02*
X122029925Y-69498533D01*
X122029925Y-69498533D02*
X122077544Y-69546152D01*
X122077544Y-69546152D02*
X122172782Y-69593771D01*
X122172782Y-69593771D02*
X122363258Y-69641390D01*
X122363258Y-69641390D02*
X122458496Y-69689009D01*
X122458496Y-69689009D02*
X122506115Y-69736628D01*
X122506115Y-69736628D02*
X122553734Y-69831866D01*
X122553734Y-69831866D02*
X122553734Y-69927104D01*
X122553734Y-69927104D02*
X122506115Y-70022342D01*
X122506115Y-70022342D02*
X122458496Y-70069961D01*
X122458496Y-70069961D02*
X122363258Y-70117580D01*
X122363258Y-70117580D02*
X122125163Y-70117580D01*
X122125163Y-70117580D02*
X121982306Y-70069961D01*
X121696591Y-70117580D02*
X121125163Y-70117580D01*
X121410877Y-69117580D02*
X121410877Y-70117580D01*
X131022306Y-63067580D02*
X131593734Y-63067580D01*
X131308020Y-63067580D02*
X131308020Y-64067580D01*
X131308020Y-64067580D02*
X131403258Y-63924723D01*
X131403258Y-63924723D02*
X131498496Y-63829485D01*
X131498496Y-63829485D02*
X131593734Y-63781866D01*
X130403258Y-64067580D02*
X130308020Y-64067580D01*
X130308020Y-64067580D02*
X130212782Y-64019961D01*
X130212782Y-64019961D02*
X130165163Y-63972342D01*
X130165163Y-63972342D02*
X130117544Y-63877104D01*
X130117544Y-63877104D02*
X130069925Y-63686628D01*
X130069925Y-63686628D02*
X130069925Y-63448533D01*
X130069925Y-63448533D02*
X130117544Y-63258057D01*
X130117544Y-63258057D02*
X130165163Y-63162819D01*
X130165163Y-63162819D02*
X130212782Y-63115200D01*
X130212782Y-63115200D02*
X130308020Y-63067580D01*
X130308020Y-63067580D02*
X130403258Y-63067580D01*
X130403258Y-63067580D02*
X130498496Y-63115200D01*
X130498496Y-63115200D02*
X130546115Y-63162819D01*
X130546115Y-63162819D02*
X130593734Y-63258057D01*
X130593734Y-63258057D02*
X130641353Y-63448533D01*
X130641353Y-63448533D02*
X130641353Y-63686628D01*
X130641353Y-63686628D02*
X130593734Y-63877104D01*
X130593734Y-63877104D02*
X130546115Y-63972342D01*
X130546115Y-63972342D02*
X130498496Y-64019961D01*
X130498496Y-64019961D02*
X130403258Y-64067580D01*
X125504687Y-55092819D02*
X125552306Y-55045200D01*
X125552306Y-55045200D02*
X125695163Y-54997580D01*
X125695163Y-54997580D02*
X125790401Y-54997580D01*
X125790401Y-54997580D02*
X125933258Y-55045200D01*
X125933258Y-55045200D02*
X126028496Y-55140438D01*
X126028496Y-55140438D02*
X126076115Y-55235676D01*
X126076115Y-55235676D02*
X126123734Y-55426152D01*
X126123734Y-55426152D02*
X126123734Y-55569009D01*
X126123734Y-55569009D02*
X126076115Y-55759485D01*
X126076115Y-55759485D02*
X126028496Y-55854723D01*
X126028496Y-55854723D02*
X125933258Y-55949961D01*
X125933258Y-55949961D02*
X125790401Y-55997580D01*
X125790401Y-55997580D02*
X125695163Y-55997580D01*
X125695163Y-55997580D02*
X125552306Y-55949961D01*
X125552306Y-55949961D02*
X125504687Y-55902342D01*
X125171353Y-55997580D02*
X124552306Y-55997580D01*
X124552306Y-55997580D02*
X124885639Y-55616628D01*
X124885639Y-55616628D02*
X124742782Y-55616628D01*
X124742782Y-55616628D02*
X124647544Y-55569009D01*
X124647544Y-55569009D02*
X124599925Y-55521390D01*
X124599925Y-55521390D02*
X124552306Y-55426152D01*
X124552306Y-55426152D02*
X124552306Y-55188057D01*
X124552306Y-55188057D02*
X124599925Y-55092819D01*
X124599925Y-55092819D02*
X124647544Y-55045200D01*
X124647544Y-55045200D02*
X124742782Y-54997580D01*
X124742782Y-54997580D02*
X125028496Y-54997580D01*
X125028496Y-54997580D02*
X125123734Y-55045200D01*
X125123734Y-55045200D02*
X125171353Y-55092819D01*
X112738095Y-78457419D02*
X112738095Y-79266942D01*
X112738095Y-79266942D02*
X112785714Y-79362180D01*
X112785714Y-79362180D02*
X112833333Y-79409800D01*
X112833333Y-79409800D02*
X112928571Y-79457419D01*
X112928571Y-79457419D02*
X113119047Y-79457419D01*
X113119047Y-79457419D02*
X113214285Y-79409800D01*
X113214285Y-79409800D02*
X113261904Y-79362180D01*
X113261904Y-79362180D02*
X113309523Y-79266942D01*
X113309523Y-79266942D02*
X113309523Y-78457419D01*
X113690476Y-78457419D02*
X114309523Y-78457419D01*
X114309523Y-78457419D02*
X113976190Y-78838371D01*
X113976190Y-78838371D02*
X114119047Y-78838371D01*
X114119047Y-78838371D02*
X114214285Y-78885990D01*
X114214285Y-78885990D02*
X114261904Y-78933609D01*
X114261904Y-78933609D02*
X114309523Y-79028847D01*
X114309523Y-79028847D02*
X114309523Y-79266942D01*
X114309523Y-79266942D02*
X114261904Y-79362180D01*
X114261904Y-79362180D02*
X114214285Y-79409800D01*
X114214285Y-79409800D02*
X114119047Y-79457419D01*
X114119047Y-79457419D02*
X113833333Y-79457419D01*
X113833333Y-79457419D02*
X113738095Y-79409800D01*
X113738095Y-79409800D02*
X113690476Y-79362180D01*
X85380074Y-69842419D02*
X84903884Y-69842419D01*
X84903884Y-69842419D02*
X84903884Y-68842419D01*
X85903884Y-68842419D02*
X86094360Y-68842419D01*
X86094360Y-68842419D02*
X86189598Y-68890038D01*
X86189598Y-68890038D02*
X86284836Y-68985276D01*
X86284836Y-68985276D02*
X86332455Y-69175752D01*
X86332455Y-69175752D02*
X86332455Y-69509085D01*
X86332455Y-69509085D02*
X86284836Y-69699561D01*
X86284836Y-69699561D02*
X86189598Y-69794800D01*
X86189598Y-69794800D02*
X86094360Y-69842419D01*
X86094360Y-69842419D02*
X85903884Y-69842419D01*
X85903884Y-69842419D02*
X85808646Y-69794800D01*
X85808646Y-69794800D02*
X85713408Y-69699561D01*
X85713408Y-69699561D02*
X85665789Y-69509085D01*
X85665789Y-69509085D02*
X85665789Y-69175752D01*
X85665789Y-69175752D02*
X85713408Y-68985276D01*
X85713408Y-68985276D02*
X85808646Y-68890038D01*
X85808646Y-68890038D02*
X85903884Y-68842419D01*
X86713408Y-69556704D02*
X87189598Y-69556704D01*
X86618170Y-69842419D02*
X86951503Y-68842419D01*
X86951503Y-68842419D02*
X87284836Y-69842419D01*
X87618170Y-69842419D02*
X87618170Y-68842419D01*
X87618170Y-68842419D02*
X87856265Y-68842419D01*
X87856265Y-68842419D02*
X87999122Y-68890038D01*
X87999122Y-68890038D02*
X88094360Y-68985276D01*
X88094360Y-68985276D02*
X88141979Y-69080514D01*
X88141979Y-69080514D02*
X88189598Y-69270990D01*
X88189598Y-69270990D02*
X88189598Y-69413847D01*
X88189598Y-69413847D02*
X88141979Y-69604323D01*
X88141979Y-69604323D02*
X88094360Y-69699561D01*
X88094360Y-69699561D02*
X87999122Y-69794800D01*
X87999122Y-69794800D02*
X87856265Y-69842419D01*
X87856265Y-69842419D02*
X87618170Y-69842419D01*
X107903884Y-68592419D02*
X107903884Y-67592419D01*
X107903884Y-67592419D02*
X108284836Y-67592419D01*
X108284836Y-67592419D02*
X108380074Y-67640038D01*
X108380074Y-67640038D02*
X108427693Y-67687657D01*
X108427693Y-67687657D02*
X108475312Y-67782895D01*
X108475312Y-67782895D02*
X108475312Y-67925752D01*
X108475312Y-67925752D02*
X108427693Y-68020990D01*
X108427693Y-68020990D02*
X108380074Y-68068609D01*
X108380074Y-68068609D02*
X108284836Y-68116228D01*
X108284836Y-68116228D02*
X107903884Y-68116228D01*
X108808646Y-67592419D02*
X109046741Y-68592419D01*
X109046741Y-68592419D02*
X109237217Y-67878133D01*
X109237217Y-67878133D02*
X109427693Y-68592419D01*
X109427693Y-68592419D02*
X109665789Y-67592419D01*
X110046741Y-68592419D02*
X110046741Y-67592419D01*
X110046741Y-67592419D02*
X110380074Y-68306704D01*
X110380074Y-68306704D02*
X110713407Y-67592419D01*
X110713407Y-67592419D02*
X110713407Y-68592419D01*
X84903884Y-72961466D02*
X85665789Y-72961466D01*
X108427693Y-70140038D02*
X108332455Y-70092419D01*
X108332455Y-70092419D02*
X108189598Y-70092419D01*
X108189598Y-70092419D02*
X108046741Y-70140038D01*
X108046741Y-70140038D02*
X107951503Y-70235276D01*
X107951503Y-70235276D02*
X107903884Y-70330514D01*
X107903884Y-70330514D02*
X107856265Y-70520990D01*
X107856265Y-70520990D02*
X107856265Y-70663847D01*
X107856265Y-70663847D02*
X107903884Y-70854323D01*
X107903884Y-70854323D02*
X107951503Y-70949561D01*
X107951503Y-70949561D02*
X108046741Y-71044800D01*
X108046741Y-71044800D02*
X108189598Y-71092419D01*
X108189598Y-71092419D02*
X108284836Y-71092419D01*
X108284836Y-71092419D02*
X108427693Y-71044800D01*
X108427693Y-71044800D02*
X108475312Y-70997180D01*
X108475312Y-70997180D02*
X108475312Y-70663847D01*
X108475312Y-70663847D02*
X108284836Y-70663847D01*
X108903884Y-71092419D02*
X108903884Y-70092419D01*
X108903884Y-70092419D02*
X109475312Y-71092419D01*
X109475312Y-71092419D02*
X109475312Y-70092419D01*
X109951503Y-71092419D02*
X109951503Y-70092419D01*
X109951503Y-70092419D02*
X110189598Y-70092419D01*
X110189598Y-70092419D02*
X110332455Y-70140038D01*
X110332455Y-70140038D02*
X110427693Y-70235276D01*
X110427693Y-70235276D02*
X110475312Y-70330514D01*
X110475312Y-70330514D02*
X110522931Y-70520990D01*
X110522931Y-70520990D02*
X110522931Y-70663847D01*
X110522931Y-70663847D02*
X110475312Y-70854323D01*
X110475312Y-70854323D02*
X110427693Y-70949561D01*
X110427693Y-70949561D02*
X110332455Y-71044800D01*
X110332455Y-71044800D02*
X110189598Y-71092419D01*
X110189598Y-71092419D02*
X109951503Y-71092419D01*
X84903884Y-65961466D02*
X85665789Y-65961466D01*
X85284836Y-66342419D02*
X85284836Y-65580514D01*
X103738095Y-57457419D02*
X103738095Y-58266942D01*
X103738095Y-58266942D02*
X103785714Y-58362180D01*
X103785714Y-58362180D02*
X103833333Y-58409800D01*
X103833333Y-58409800D02*
X103928571Y-58457419D01*
X103928571Y-58457419D02*
X104119047Y-58457419D01*
X104119047Y-58457419D02*
X104214285Y-58409800D01*
X104214285Y-58409800D02*
X104261904Y-58362180D01*
X104261904Y-58362180D02*
X104309523Y-58266942D01*
X104309523Y-58266942D02*
X104309523Y-57457419D01*
X104738095Y-57552657D02*
X104785714Y-57505038D01*
X104785714Y-57505038D02*
X104880952Y-57457419D01*
X104880952Y-57457419D02*
X105119047Y-57457419D01*
X105119047Y-57457419D02*
X105214285Y-57505038D01*
X105214285Y-57505038D02*
X105261904Y-57552657D01*
X105261904Y-57552657D02*
X105309523Y-57647895D01*
X105309523Y-57647895D02*
X105309523Y-57743133D01*
X105309523Y-57743133D02*
X105261904Y-57885990D01*
X105261904Y-57885990D02*
X104690476Y-58457419D01*
X104690476Y-58457419D02*
X105309523Y-58457419D01*
X100343639Y-44889580D02*
X100153163Y-44889580D01*
X100153163Y-44889580D02*
X100057925Y-44841961D01*
X100057925Y-44841961D02*
X99962687Y-44746723D01*
X99962687Y-44746723D02*
X99915068Y-44556247D01*
X99915068Y-44556247D02*
X99915068Y-44222914D01*
X99915068Y-44222914D02*
X99962687Y-44032438D01*
X99962687Y-44032438D02*
X100057925Y-43937200D01*
X100057925Y-43937200D02*
X100153163Y-43889580D01*
X100153163Y-43889580D02*
X100343639Y-43889580D01*
X100343639Y-43889580D02*
X100438877Y-43937200D01*
X100438877Y-43937200D02*
X100534115Y-44032438D01*
X100534115Y-44032438D02*
X100581734Y-44222914D01*
X100581734Y-44222914D02*
X100581734Y-44556247D01*
X100581734Y-44556247D02*
X100534115Y-44746723D01*
X100534115Y-44746723D02*
X100438877Y-44841961D01*
X100438877Y-44841961D02*
X100343639Y-44889580D01*
X99486496Y-44889580D02*
X99486496Y-44080057D01*
X99486496Y-44080057D02*
X99438877Y-43984819D01*
X99438877Y-43984819D02*
X99391258Y-43937200D01*
X99391258Y-43937200D02*
X99296020Y-43889580D01*
X99296020Y-43889580D02*
X99105544Y-43889580D01*
X99105544Y-43889580D02*
X99010306Y-43937200D01*
X99010306Y-43937200D02*
X98962687Y-43984819D01*
X98962687Y-43984819D02*
X98915068Y-44080057D01*
X98915068Y-44080057D02*
X98915068Y-44889580D01*
X98581734Y-44889580D02*
X98010306Y-44889580D01*
X98296020Y-43889580D02*
X98296020Y-44889580D01*
X97676972Y-44270533D02*
X96915068Y-44270533D01*
X85464115Y-55319580D02*
X85464115Y-56319580D01*
X84987925Y-55319580D02*
X84987925Y-56319580D01*
X84987925Y-56319580D02*
X84416497Y-55319580D01*
X84416497Y-55319580D02*
X84416497Y-56319580D01*
X83940306Y-55700533D02*
X83178402Y-55700533D01*
X83559354Y-55319580D02*
X83559354Y-56081485D01*
X100089639Y-56319580D02*
X99899163Y-56319580D01*
X99899163Y-56319580D02*
X99803925Y-56271961D01*
X99803925Y-56271961D02*
X99708687Y-56176723D01*
X99708687Y-56176723D02*
X99661068Y-55986247D01*
X99661068Y-55986247D02*
X99661068Y-55652914D01*
X99661068Y-55652914D02*
X99708687Y-55462438D01*
X99708687Y-55462438D02*
X99803925Y-55367200D01*
X99803925Y-55367200D02*
X99899163Y-55319580D01*
X99899163Y-55319580D02*
X100089639Y-55319580D01*
X100089639Y-55319580D02*
X100184877Y-55367200D01*
X100184877Y-55367200D02*
X100280115Y-55462438D01*
X100280115Y-55462438D02*
X100327734Y-55652914D01*
X100327734Y-55652914D02*
X100327734Y-55986247D01*
X100327734Y-55986247D02*
X100280115Y-56176723D01*
X100280115Y-56176723D02*
X100184877Y-56271961D01*
X100184877Y-56271961D02*
X100089639Y-56319580D01*
X99232496Y-56319580D02*
X99232496Y-55510057D01*
X99232496Y-55510057D02*
X99184877Y-55414819D01*
X99184877Y-55414819D02*
X99137258Y-55367200D01*
X99137258Y-55367200D02*
X99042020Y-55319580D01*
X99042020Y-55319580D02*
X98851544Y-55319580D01*
X98851544Y-55319580D02*
X98756306Y-55367200D01*
X98756306Y-55367200D02*
X98708687Y-55414819D01*
X98708687Y-55414819D02*
X98661068Y-55510057D01*
X98661068Y-55510057D02*
X98661068Y-56319580D01*
X98327734Y-56319580D02*
X97756306Y-56319580D01*
X98042020Y-55319580D02*
X98042020Y-56319580D01*
X97422972Y-55700533D02*
X96661068Y-55700533D01*
X97042020Y-55319580D02*
X97042020Y-56081485D01*
X85337115Y-43621580D02*
X85337115Y-44621580D01*
X84860925Y-43621580D02*
X84860925Y-44621580D01*
X84860925Y-44621580D02*
X84289497Y-43621580D01*
X84289497Y-43621580D02*
X84289497Y-44621580D01*
X83813306Y-44002533D02*
X83051402Y-44002533D01*
D10*
X78011905Y-77704819D02*
X78011905Y-76704819D01*
X78011905Y-76704819D02*
X78250000Y-76704819D01*
X78250000Y-76704819D02*
X78392857Y-76752438D01*
X78392857Y-76752438D02*
X78488095Y-76847676D01*
X78488095Y-76847676D02*
X78535714Y-76942914D01*
X78535714Y-76942914D02*
X78583333Y-77133390D01*
X78583333Y-77133390D02*
X78583333Y-77276247D01*
X78583333Y-77276247D02*
X78535714Y-77466723D01*
X78535714Y-77466723D02*
X78488095Y-77561961D01*
X78488095Y-77561961D02*
X78392857Y-77657200D01*
X78392857Y-77657200D02*
X78250000Y-77704819D01*
X78250000Y-77704819D02*
X78011905Y-77704819D01*
X79535714Y-77704819D02*
X78964286Y-77704819D01*
X79250000Y-77704819D02*
X79250000Y-76704819D01*
X79250000Y-76704819D02*
X79154762Y-76847676D01*
X79154762Y-76847676D02*
X79059524Y-76942914D01*
X79059524Y-76942914D02*
X78964286Y-76990533D01*
X65738095Y-75204819D02*
X65738095Y-74204819D01*
X66309523Y-75204819D02*
X65880952Y-74633390D01*
X66309523Y-74204819D02*
X65738095Y-74776247D01*
D14*
X138830000Y-72870000D02*
X137500000Y-72870000D01*
X138830000Y-71540000D02*
X138830000Y-72870000D01*
X138830000Y-70270000D02*
X138830000Y-54970000D01*
X138830000Y-70270000D02*
X136170000Y-70270000D01*
X138830000Y-54970000D02*
X136170000Y-54970000D01*
X136170000Y-70270000D02*
X136170000Y-54970000D01*
X133870000Y-49670000D02*
X133870000Y-51000000D01*
X132540000Y-49670000D02*
X133870000Y-49670000D01*
X131270000Y-49670000D02*
X118510000Y-49670000D01*
X131270000Y-49670000D02*
X131270000Y-52330000D01*
X118510000Y-49670000D02*
X118510000Y-52330000D01*
X131270000Y-52330000D02*
X118510000Y-52330000D01*
D13*
X66840000Y-70395000D02*
X66840000Y-69895000D01*
X66840000Y-70395000D02*
X67340000Y-70395000D01*
X66840000Y-64395000D02*
X66840000Y-64895000D01*
X66840000Y-64395000D02*
X67340000Y-64395000D01*
X75040000Y-70395000D02*
X75040000Y-69895000D01*
X75040000Y-70395000D02*
X74540000Y-70395000D01*
X75040000Y-64395000D02*
X75040000Y-64895000D01*
X75040000Y-64395000D02*
X74540000Y-64395000D01*
X66840000Y-61995000D02*
X66840000Y-61495000D01*
X66840000Y-61995000D02*
X67340000Y-61995000D01*
X66840000Y-55995000D02*
X66840000Y-56495000D01*
X66840000Y-55995000D02*
X67340000Y-55995000D01*
X75040000Y-61995000D02*
X75040000Y-61495000D01*
X75040000Y-61995000D02*
X74540000Y-61995000D01*
X75040000Y-55995000D02*
X75040000Y-56495000D01*
X75040000Y-55995000D02*
X74540000Y-55995000D01*
X72860000Y-53600000D02*
X72360000Y-53600000D01*
X72860000Y-53600000D02*
X72860000Y-53100000D01*
X66860000Y-53600000D02*
X67360000Y-53600000D01*
X66860000Y-53600000D02*
X66860000Y-53100000D01*
X72860000Y-45400000D02*
X72360000Y-45400000D01*
X72860000Y-45400000D02*
X72860000Y-45900000D01*
X66860000Y-45400000D02*
X67360000Y-45400000D01*
X66860000Y-45400000D02*
X66860000Y-45900000D01*
X124380000Y-70870000D02*
X120380000Y-70870000D01*
X120380000Y-68370000D01*
X124380000Y-68370000D01*
X124380000Y-70870000D01*
X128380000Y-56370000D02*
X122380000Y-56370000D01*
X122380000Y-54370000D01*
X128380000Y-54370000D01*
X128380000Y-56370000D01*
X130380000Y-70870000D02*
X126380000Y-70870000D01*
X126380000Y-68370000D01*
X130380000Y-68370000D01*
X130380000Y-70870000D01*
X116380000Y-54370000D02*
X116380000Y-77870000D01*
X116380000Y-77870000D02*
X120880000Y-77870000D01*
X120880000Y-71870000D02*
X129880000Y-71870000D01*
X120880000Y-77870000D02*
X120880000Y-71870000D01*
X120880000Y-77870000D02*
X120880000Y-78870000D01*
X120880000Y-78870000D02*
X129880000Y-78870000D01*
X129880000Y-77870000D02*
X129880000Y-71870000D01*
X129880000Y-77870000D02*
X134380000Y-77870000D01*
X129880000Y-78870000D02*
X129880000Y-77870000D01*
X134380000Y-54370000D02*
X116380000Y-54370000D01*
X134380000Y-77870000D02*
X134380000Y-54370000D01*
X113600000Y-77720000D02*
X80600000Y-77720000D01*
X113600000Y-61220000D02*
X113600000Y-77720000D01*
X80600000Y-77720000D02*
X80600000Y-61220000D01*
X80600000Y-61220000D02*
X113600000Y-61220000D01*
X80518000Y-41494000D02*
X103018000Y-41494000D01*
X80518000Y-58494000D02*
X80518000Y-41494000D01*
X103018000Y-41494000D02*
X103018000Y-58494000D01*
X103018000Y-58494000D02*
X80518000Y-58494000D01*
X80518000Y-58494000D02*
X103018000Y-58494000D01*
X103018000Y-41494000D01*
X80518000Y-41494000D01*
X80518000Y-58494000D01*
X87268000Y-52494000D02*
X92268000Y-52494000D01*
X92268000Y-48994000D01*
X87268000Y-48994000D01*
X87268000Y-52494000D01*
X95268000Y-49994000D02*
X99768000Y-49994000D01*
X99768000Y-45494000D01*
X95268000Y-45494000D01*
X95268000Y-49994000D01*
D14*
X69430000Y-74750000D02*
X70450000Y-74750000D01*
X70450000Y-73280000D02*
X70450000Y-76220000D01*
X70450000Y-76220000D02*
X75890000Y-76220000D01*
X71230000Y-73280000D02*
X71230000Y-76220000D01*
X71350000Y-73280000D02*
X71350000Y-76220000D01*
X71470000Y-73280000D02*
X71470000Y-76220000D01*
X75890000Y-73280000D02*
X70450000Y-73280000D01*
X75890000Y-76220000D02*
X75890000Y-73280000D01*
X76910000Y-74750000D02*
X75890000Y-74750000D01*
%LPC*%
D15*
X137500000Y-71540000D03*
D16*
X137500000Y-69000000D03*
X137500000Y-66460000D03*
X137500000Y-63920000D03*
X137500000Y-61380000D03*
X137500000Y-58840000D03*
X137500000Y-56300000D03*
D15*
X132540000Y-51000000D03*
D16*
X130000000Y-51000000D03*
X127460000Y-51000000D03*
X124920000Y-51000000D03*
X122380000Y-51000000D03*
X119840000Y-51000000D03*
D17*
X72440000Y-67395000D03*
X69940000Y-67395000D03*
X72440000Y-58995000D03*
X69940000Y-58995000D03*
X69860000Y-48000000D03*
X69860000Y-50500000D03*
D18*
X138000000Y-79750000D03*
X68000000Y-79750000D03*
X138000000Y-41750000D03*
X68000000Y-41750000D03*
D19*
X117760000Y-73740000D03*
X117760000Y-71200000D03*
X117760000Y-76280000D03*
X117760000Y-68660000D03*
X117760000Y-66120000D03*
X117760000Y-63580000D03*
X117760000Y-61040000D03*
X117760000Y-58500000D03*
X133000000Y-58500000D03*
X133000000Y-61040000D03*
X133000000Y-63580000D03*
X133000000Y-66120000D03*
X133000000Y-68660000D03*
X133000000Y-71200000D03*
X133000000Y-73740000D03*
D20*
X133000000Y-76280000D03*
D19*
X83600000Y-72970000D03*
X83600000Y-69470000D03*
X83600000Y-65970000D03*
X112100000Y-70740000D03*
D20*
X112100000Y-68200000D03*
X82268000Y-56970000D03*
D19*
X82268000Y-54430000D03*
X82268000Y-45540000D03*
X82268000Y-43000000D03*
X101268000Y-56970000D03*
X101268000Y-54430000D03*
X101268000Y-45540000D03*
X101268000Y-43000000D03*
D21*
X68090000Y-74750000D03*
D22*
X78250000Y-74750000D03*
%LPD*%
M02*
