G04 #@! TF.GenerationSoftware,KiCad,Pcbnew,8.0.8*
G04 #@! TF.CreationDate,2025-01-15T16:32:17-08:00*
G04 #@! TF.ProjectId,bentroller,62656e74-726f-46c6-9c65-722e6b696361,rev?*
G04 #@! TF.SameCoordinates,Original*
G04 #@! TF.FileFunction,Copper,L1,Top*
G04 #@! TF.FilePolarity,Positive*
%FSLAX46Y46*%
G04 Gerber Fmt 4.6, Leading zero omitted, Abs format (unit mm)*
G04 Created by KiCad (PCBNEW 8.0.8) date 2025-01-15 16:32:17*
%MOMM*%
%LPD*%
G01*
G04 APERTURE LIST*
G04 #@! TA.AperFunction,ComponentPad*
%ADD10R,1.700000X1.700000*%
G04 #@! TD*
G04 #@! TA.AperFunction,ComponentPad*
%ADD11O,1.700000X1.700000*%
G04 #@! TD*
G04 #@! TA.AperFunction,ComponentPad*
%ADD12C,2.100000*%
G04 #@! TD*
G04 #@! TA.AperFunction,ComponentPad*
%ADD13C,1.524000*%
G04 #@! TD*
G04 #@! TA.AperFunction,ComponentPad*
%ADD14R,1.524000X1.524000*%
G04 #@! TD*
G04 #@! TA.AperFunction,ComponentPad*
%ADD15R,2.200000X2.200000*%
G04 #@! TD*
G04 #@! TA.AperFunction,ComponentPad*
%ADD16O,2.200000X2.200000*%
G04 #@! TD*
G04 #@! TA.AperFunction,Conductor*
%ADD17C,0.200000*%
G04 #@! TD*
G04 #@! TA.AperFunction,Conductor*
%ADD18C,0.400000*%
G04 #@! TD*
G04 APERTURE END LIST*
D10*
X137500000Y-71540000D03*
D11*
X137500000Y-69000000D03*
X137500000Y-66460000D03*
X137500000Y-63920000D03*
X137500000Y-61380000D03*
X137500000Y-58840000D03*
X137500000Y-56300000D03*
D10*
X132540000Y-51000000D03*
D11*
X130000000Y-51000000D03*
X127460000Y-51000000D03*
X124920000Y-51000000D03*
X122380000Y-51000000D03*
X119840000Y-51000000D03*
D12*
X72440000Y-67395000D03*
X69940000Y-67395000D03*
X72440000Y-58995000D03*
X69940000Y-58995000D03*
X69860000Y-48000000D03*
X69860000Y-50500000D03*
D13*
X117760000Y-73740000D03*
X117760000Y-71200000D03*
X117760000Y-76280000D03*
X117760000Y-68660000D03*
X117760000Y-66120000D03*
X117760000Y-63580000D03*
X117760000Y-61040000D03*
X117760000Y-58500000D03*
X133000000Y-58500000D03*
X133000000Y-61040000D03*
X133000000Y-63580000D03*
X133000000Y-66120000D03*
X133000000Y-68660000D03*
X133000000Y-71200000D03*
X133000000Y-73740000D03*
D14*
X133000000Y-76280000D03*
D13*
X83600000Y-72970000D03*
X83600000Y-69470000D03*
X83600000Y-65970000D03*
X112100000Y-70740000D03*
D14*
X112100000Y-68200000D03*
X82268000Y-56970000D03*
D13*
X82268000Y-54430000D03*
X82268000Y-45540000D03*
X82268000Y-43000000D03*
X101268000Y-56970000D03*
X101268000Y-54430000D03*
X101268000Y-45540000D03*
X101268000Y-43000000D03*
D15*
X68090000Y-74750000D03*
D16*
X78250000Y-74750000D03*
D17*
X112100000Y-68200000D02*
X112100000Y-64160000D01*
X112100000Y-64160000D02*
X117760000Y-58500000D01*
X133000000Y-63580000D02*
X137500000Y-59080000D01*
X137500000Y-59080000D02*
X137500000Y-58840000D01*
X133000000Y-66120000D02*
X137500000Y-61620000D01*
X137500000Y-61620000D02*
X137500000Y-61380000D01*
X133000000Y-68660000D02*
X137500000Y-64160000D01*
X137500000Y-64160000D02*
X137500000Y-63920000D01*
X133000000Y-71200000D02*
X137500000Y-66700000D01*
X137500000Y-66700000D02*
X137500000Y-66460000D01*
X133000000Y-73740000D02*
X137500000Y-69240000D01*
X137500000Y-69240000D02*
X137500000Y-69000000D01*
X133000000Y-76280000D02*
X133000000Y-76040000D01*
X133000000Y-76040000D02*
X137500000Y-71540000D01*
D18*
X78250000Y-74750000D02*
X83530000Y-69470000D01*
D17*
X83530000Y-69470000D02*
X83600000Y-69470000D01*
D18*
X72440000Y-67395000D02*
X81525000Y-67395000D01*
X81525000Y-67395000D02*
X83600000Y-69470000D01*
X70000000Y-50500000D02*
X78338000Y-50500000D01*
X78338000Y-50500000D02*
X82268000Y-54430000D01*
G04 #@! TA.AperFunction,Conductor*
G36*
X136950467Y-38620185D02*
G01*
X136996222Y-38672989D01*
X137006166Y-38742147D01*
X136977141Y-38805703D01*
X136924386Y-38841539D01*
X136811621Y-38880998D01*
X136811614Y-38881000D01*
X136811609Y-38881003D01*
X136497869Y-39032092D01*
X136203000Y-39217371D01*
X136202998Y-39217372D01*
X135930743Y-39434487D01*
X135684487Y-39680743D01*
X135467372Y-39952998D01*
X135467371Y-39953000D01*
X135282092Y-40247869D01*
X135130999Y-40561617D01*
X135015985Y-40890307D01*
X135015982Y-40890315D01*
X134938491Y-41229829D01*
X134938489Y-41229841D01*
X134899500Y-41575875D01*
X134899500Y-41924124D01*
X134938489Y-42270158D01*
X134938490Y-42270167D01*
X134938491Y-42270171D01*
X134945713Y-42301811D01*
X135015982Y-42609684D01*
X135015985Y-42609692D01*
X135130999Y-42938382D01*
X135282092Y-43252130D01*
X135467371Y-43546999D01*
X135467372Y-43547001D01*
X135684487Y-43819256D01*
X135930743Y-44065512D01*
X136202998Y-44282627D01*
X136203001Y-44282628D01*
X136203003Y-44282630D01*
X136497867Y-44467906D01*
X136811621Y-44619002D01*
X137058488Y-44705384D01*
X137140307Y-44734014D01*
X137140315Y-44734017D01*
X137140318Y-44734017D01*
X137140319Y-44734018D01*
X137479829Y-44811509D01*
X137825876Y-44850499D01*
X137825877Y-44850500D01*
X137825880Y-44850500D01*
X138174123Y-44850500D01*
X138174123Y-44850499D01*
X138520171Y-44811509D01*
X138859681Y-44734018D01*
X139188379Y-44619002D01*
X139502133Y-44467906D01*
X139796997Y-44282630D01*
X139953758Y-44157618D01*
X140069256Y-44065512D01*
X140069258Y-44065509D01*
X140069263Y-44065506D01*
X140315506Y-43819263D01*
X140412061Y-43698187D01*
X140532627Y-43547001D01*
X140532628Y-43546999D01*
X140532630Y-43546997D01*
X140717906Y-43252133D01*
X140763780Y-43156875D01*
X140810602Y-43105016D01*
X140878029Y-43086703D01*
X140944653Y-43107751D01*
X140989322Y-43161477D01*
X140999500Y-43210677D01*
X140999500Y-78289322D01*
X140979815Y-78356361D01*
X140927011Y-78402116D01*
X140857853Y-78412060D01*
X140794297Y-78383035D01*
X140763780Y-78343124D01*
X140717907Y-78247869D01*
X140532628Y-77953000D01*
X140532627Y-77952998D01*
X140315512Y-77680743D01*
X140069256Y-77434487D01*
X139797001Y-77217372D01*
X139796999Y-77217371D01*
X139502130Y-77032092D01*
X139188382Y-76880999D01*
X138859692Y-76765985D01*
X138859684Y-76765982D01*
X138605048Y-76707863D01*
X138520171Y-76688491D01*
X138520167Y-76688490D01*
X138520158Y-76688489D01*
X138174124Y-76649500D01*
X138174120Y-76649500D01*
X137825880Y-76649500D01*
X137825875Y-76649500D01*
X137479841Y-76688489D01*
X137479829Y-76688491D01*
X137140315Y-76765982D01*
X137140307Y-76765985D01*
X136811617Y-76880999D01*
X136497869Y-77032092D01*
X136203000Y-77217371D01*
X136202998Y-77217372D01*
X135930743Y-77434487D01*
X135684487Y-77680743D01*
X135467372Y-77952998D01*
X135467371Y-77953000D01*
X135282092Y-78247869D01*
X135130999Y-78561617D01*
X135015985Y-78890307D01*
X135015982Y-78890315D01*
X134938491Y-79229829D01*
X134938489Y-79229841D01*
X134899500Y-79575875D01*
X134899500Y-79924124D01*
X134938489Y-80270158D01*
X134938491Y-80270170D01*
X135015982Y-80609684D01*
X135015985Y-80609692D01*
X135130999Y-80938382D01*
X135282092Y-81252130D01*
X135467371Y-81546999D01*
X135467372Y-81547001D01*
X135684487Y-81819256D01*
X135930743Y-82065512D01*
X136202998Y-82282627D01*
X136203000Y-82282628D01*
X136342856Y-82370506D01*
X136389147Y-82422841D01*
X136399795Y-82491894D01*
X136371420Y-82555743D01*
X136313030Y-82594115D01*
X136276884Y-82599500D01*
X69723116Y-82599500D01*
X69656077Y-82579815D01*
X69610322Y-82527011D01*
X69600378Y-82457853D01*
X69629403Y-82394297D01*
X69657144Y-82370506D01*
X69688918Y-82350540D01*
X69796997Y-82282630D01*
X69797001Y-82282627D01*
X70069256Y-82065512D01*
X70069258Y-82065509D01*
X70069263Y-82065506D01*
X70315506Y-81819263D01*
X70532630Y-81546997D01*
X70717906Y-81252133D01*
X70869002Y-80938379D01*
X70984018Y-80609681D01*
X71061509Y-80270171D01*
X71100500Y-79924120D01*
X71100500Y-79575880D01*
X71061509Y-79229829D01*
X70984018Y-78890319D01*
X70869002Y-78561621D01*
X70717906Y-78247867D01*
X70532630Y-77953003D01*
X70532628Y-77953000D01*
X70532627Y-77952998D01*
X70315512Y-77680743D01*
X70069256Y-77434487D01*
X69797001Y-77217372D01*
X69796999Y-77217371D01*
X69502130Y-77032092D01*
X69188382Y-76880999D01*
X68859692Y-76765985D01*
X68859684Y-76765982D01*
X68605048Y-76707863D01*
X68520171Y-76688491D01*
X68520167Y-76688490D01*
X68520158Y-76688489D01*
X68174124Y-76649500D01*
X68174120Y-76649500D01*
X67825880Y-76649500D01*
X67825875Y-76649500D01*
X67479841Y-76688489D01*
X67479829Y-76688491D01*
X67140315Y-76765982D01*
X67140307Y-76765985D01*
X66811617Y-76880999D01*
X66497869Y-77032092D01*
X66203000Y-77217371D01*
X66202998Y-77217372D01*
X65930743Y-77434487D01*
X65684487Y-77680743D01*
X65467372Y-77952998D01*
X65467371Y-77953000D01*
X65282092Y-78247869D01*
X65236220Y-78343124D01*
X65189397Y-78394983D01*
X65121970Y-78413296D01*
X65055346Y-78392248D01*
X65010678Y-78338522D01*
X65000500Y-78289322D01*
X65000500Y-73602135D01*
X66489500Y-73602135D01*
X66489500Y-75897870D01*
X66489501Y-75897876D01*
X66495908Y-75957483D01*
X66546202Y-76092328D01*
X66546206Y-76092335D01*
X66632452Y-76207544D01*
X66632455Y-76207547D01*
X66747664Y-76293793D01*
X66747671Y-76293797D01*
X66882517Y-76344091D01*
X66882516Y-76344091D01*
X66889444Y-76344835D01*
X66942127Y-76350500D01*
X69237872Y-76350499D01*
X69297483Y-76344091D01*
X69432331Y-76293796D01*
X69547546Y-76207546D01*
X69633796Y-76092331D01*
X69684091Y-75957483D01*
X69690500Y-75897873D01*
X69690499Y-73602128D01*
X69684091Y-73542517D01*
X69675701Y-73520023D01*
X69633797Y-73407671D01*
X69633793Y-73407664D01*
X69547547Y-73292455D01*
X69547544Y-73292452D01*
X69432335Y-73206206D01*
X69432328Y-73206202D01*
X69297482Y-73155908D01*
X69297483Y-73155908D01*
X69237883Y-73149501D01*
X69237881Y-73149500D01*
X69237873Y-73149500D01*
X69237864Y-73149500D01*
X66942129Y-73149500D01*
X66942123Y-73149501D01*
X66882516Y-73155908D01*
X66747671Y-73206202D01*
X66747664Y-73206206D01*
X66632455Y-73292452D01*
X66632452Y-73292455D01*
X66546206Y-73407664D01*
X66546202Y-73407671D01*
X66495908Y-73542517D01*
X66490488Y-73592939D01*
X66489501Y-73602123D01*
X66489500Y-73602135D01*
X65000500Y-73602135D01*
X65000500Y-67395000D01*
X68384706Y-67395000D01*
X68403853Y-67638297D01*
X68403853Y-67638300D01*
X68403854Y-67638302D01*
X68450255Y-67831575D01*
X68460830Y-67875619D01*
X68554222Y-68101089D01*
X68681737Y-68309173D01*
X68681738Y-68309176D01*
X68681741Y-68309179D01*
X68840241Y-68494759D01*
X68983897Y-68617453D01*
X69025823Y-68653261D01*
X69025826Y-68653262D01*
X69233910Y-68780777D01*
X69459381Y-68874169D01*
X69459378Y-68874169D01*
X69459384Y-68874170D01*
X69459388Y-68874172D01*
X69696698Y-68931146D01*
X69940000Y-68950294D01*
X70183302Y-68931146D01*
X70420612Y-68874172D01*
X70646089Y-68780777D01*
X70854179Y-68653259D01*
X71039759Y-68494759D01*
X71095712Y-68429245D01*
X71154216Y-68391055D01*
X71224083Y-68390555D01*
X71283130Y-68427908D01*
X71284181Y-68429121D01*
X71340240Y-68494758D01*
X71340241Y-68494759D01*
X71525823Y-68653261D01*
X71525826Y-68653262D01*
X71733910Y-68780777D01*
X71959381Y-68874169D01*
X71959378Y-68874169D01*
X71959384Y-68874170D01*
X71959388Y-68874172D01*
X72196698Y-68931146D01*
X72440000Y-68950294D01*
X72683302Y-68931146D01*
X72920612Y-68874172D01*
X73146089Y-68780777D01*
X73354179Y-68653259D01*
X73539759Y-68494759D01*
X73698259Y-68309179D01*
X73792918Y-68154710D01*
X73844729Y-68107835D01*
X73898645Y-68095500D01*
X81183481Y-68095500D01*
X81250520Y-68115185D01*
X81271162Y-68131819D01*
X82314048Y-69174705D01*
X82347533Y-69236028D01*
X82349895Y-69273193D01*
X82332677Y-69469997D01*
X82332677Y-69470002D01*
X82344262Y-69602439D01*
X82330495Y-69670939D01*
X82308415Y-69700926D01*
X78827555Y-73181786D01*
X78766232Y-73215271D01*
X78710928Y-73214679D01*
X78501152Y-73164318D01*
X78501148Y-73164317D01*
X78250000Y-73144551D01*
X77998848Y-73164317D01*
X77753889Y-73223126D01*
X77521140Y-73319533D01*
X77306346Y-73451160D01*
X77306343Y-73451161D01*
X77114776Y-73614776D01*
X76951161Y-73806343D01*
X76951160Y-73806346D01*
X76819533Y-74021140D01*
X76723126Y-74253889D01*
X76664317Y-74498848D01*
X76644551Y-74750000D01*
X76664317Y-75001151D01*
X76723126Y-75246110D01*
X76819533Y-75478859D01*
X76951160Y-75693653D01*
X76951161Y-75693656D01*
X76951164Y-75693659D01*
X77114776Y-75885224D01*
X77263066Y-76011875D01*
X77306343Y-76048838D01*
X77306346Y-76048839D01*
X77521140Y-76180466D01*
X77753889Y-76276873D01*
X77998852Y-76335683D01*
X78250000Y-76355449D01*
X78501148Y-76335683D01*
X78746111Y-76276873D01*
X78978859Y-76180466D01*
X79193659Y-76048836D01*
X79385224Y-75885224D01*
X79548836Y-75693659D01*
X79680466Y-75478859D01*
X79776873Y-75246111D01*
X79835683Y-75001148D01*
X79855449Y-74750000D01*
X79835683Y-74498852D01*
X79785319Y-74289069D01*
X79788810Y-74219289D01*
X79818210Y-74172445D01*
X81020656Y-72969999D01*
X82333179Y-72969999D01*
X82333179Y-72970000D01*
X82352424Y-73189976D01*
X82352426Y-73189986D01*
X82409575Y-73403270D01*
X82409580Y-73403284D01*
X82502898Y-73603405D01*
X82502901Y-73603411D01*
X82548258Y-73668187D01*
X82548258Y-73668188D01*
X83219000Y-72997446D01*
X83219000Y-73020160D01*
X83244964Y-73117061D01*
X83295124Y-73203940D01*
X83366060Y-73274876D01*
X83452939Y-73325036D01*
X83549840Y-73351000D01*
X83572553Y-73351000D01*
X82901810Y-74021740D01*
X82966590Y-74067099D01*
X82966592Y-74067100D01*
X83166715Y-74160419D01*
X83166729Y-74160424D01*
X83380013Y-74217573D01*
X83380023Y-74217575D01*
X83599999Y-74236821D01*
X83600001Y-74236821D01*
X83819976Y-74217575D01*
X83819986Y-74217573D01*
X84033270Y-74160424D01*
X84033284Y-74160419D01*
X84233407Y-74067100D01*
X84233417Y-74067094D01*
X84298188Y-74021741D01*
X83627448Y-73351000D01*
X83650160Y-73351000D01*
X83747061Y-73325036D01*
X83833940Y-73274876D01*
X83904876Y-73203940D01*
X83955036Y-73117061D01*
X83981000Y-73020160D01*
X83981000Y-72997447D01*
X84651741Y-73668188D01*
X84697094Y-73603417D01*
X84697100Y-73603407D01*
X84790419Y-73403284D01*
X84790424Y-73403270D01*
X84847573Y-73189986D01*
X84847575Y-73189976D01*
X84866821Y-72970000D01*
X84866821Y-72969999D01*
X84847575Y-72750023D01*
X84847573Y-72750013D01*
X84790424Y-72536729D01*
X84790420Y-72536720D01*
X84697096Y-72336586D01*
X84651741Y-72271811D01*
X84651740Y-72271810D01*
X83981000Y-72942551D01*
X83981000Y-72919840D01*
X83955036Y-72822939D01*
X83904876Y-72736060D01*
X83833940Y-72665124D01*
X83747061Y-72614964D01*
X83650160Y-72589000D01*
X83627447Y-72589000D01*
X84298188Y-71918258D01*
X84233411Y-71872901D01*
X84233405Y-71872898D01*
X84033284Y-71779580D01*
X84033270Y-71779575D01*
X83819986Y-71722426D01*
X83819976Y-71722424D01*
X83600001Y-71703179D01*
X83599999Y-71703179D01*
X83380023Y-71722424D01*
X83380013Y-71722426D01*
X83166729Y-71779575D01*
X83166720Y-71779579D01*
X82966590Y-71872901D01*
X82901811Y-71918258D01*
X83572554Y-72589000D01*
X83549840Y-72589000D01*
X83452939Y-72614964D01*
X83366060Y-72665124D01*
X83295124Y-72736060D01*
X83244964Y-72822939D01*
X83219000Y-72919840D01*
X83219000Y-72942553D01*
X82548258Y-72271811D01*
X82502901Y-72336590D01*
X82409579Y-72536720D01*
X82409575Y-72536729D01*
X82352426Y-72750013D01*
X82352424Y-72750023D01*
X82333179Y-72969999D01*
X81020656Y-72969999D01*
X83244649Y-70746006D01*
X83255650Y-70739999D01*
X110833179Y-70739999D01*
X110833179Y-70740000D01*
X110852424Y-70959976D01*
X110852426Y-70959986D01*
X110909575Y-71173270D01*
X110909580Y-71173284D01*
X111002898Y-71373405D01*
X111002901Y-71373411D01*
X111048258Y-71438187D01*
X111048258Y-71438188D01*
X111719000Y-70767446D01*
X111719000Y-70790160D01*
X111744964Y-70887061D01*
X111795124Y-70973940D01*
X111866060Y-71044876D01*
X111952939Y-71095036D01*
X112049840Y-71121000D01*
X112072553Y-71121000D01*
X111401810Y-71791740D01*
X111466590Y-71837099D01*
X111466592Y-71837100D01*
X111666715Y-71930419D01*
X111666729Y-71930424D01*
X111880013Y-71987573D01*
X111880023Y-71987575D01*
X112099999Y-72006821D01*
X112100001Y-72006821D01*
X112319976Y-71987575D01*
X112319986Y-71987573D01*
X112533270Y-71930424D01*
X112533284Y-71930419D01*
X112733407Y-71837100D01*
X112733417Y-71837094D01*
X112798188Y-71791741D01*
X112127448Y-71121000D01*
X112150160Y-71121000D01*
X112247061Y-71095036D01*
X112333940Y-71044876D01*
X112404876Y-70973940D01*
X112455036Y-70887061D01*
X112481000Y-70790160D01*
X112481000Y-70767447D01*
X113151741Y-71438188D01*
X113197094Y-71373417D01*
X113197100Y-71373407D01*
X113290419Y-71173284D01*
X113290424Y-71173270D01*
X113347573Y-70959986D01*
X113347575Y-70959976D01*
X113366821Y-70740000D01*
X113366821Y-70739999D01*
X113347575Y-70520023D01*
X113347573Y-70520013D01*
X113290424Y-70306729D01*
X113290420Y-70306720D01*
X113197096Y-70106586D01*
X113151741Y-70041811D01*
X113151740Y-70041810D01*
X112481000Y-70712551D01*
X112481000Y-70689840D01*
X112455036Y-70592939D01*
X112404876Y-70506060D01*
X112333940Y-70435124D01*
X112247061Y-70384964D01*
X112150160Y-70359000D01*
X112127447Y-70359000D01*
X112798188Y-69688258D01*
X112797925Y-69688074D01*
X112754300Y-69633498D01*
X112747106Y-69563999D01*
X112778628Y-69501644D01*
X112838858Y-69466230D01*
X112869047Y-69462499D01*
X112909872Y-69462499D01*
X112969483Y-69456091D01*
X113104331Y-69405796D01*
X113219546Y-69319546D01*
X113305796Y-69204331D01*
X113356091Y-69069483D01*
X113362500Y-69009873D01*
X113362499Y-67390128D01*
X113356091Y-67330517D01*
X113327126Y-67252859D01*
X113305797Y-67195671D01*
X113305793Y-67195664D01*
X113219547Y-67080455D01*
X113219544Y-67080452D01*
X113104335Y-66994206D01*
X113104328Y-66994202D01*
X112969482Y-66943908D01*
X112969483Y-66943908D01*
X112909883Y-66937501D01*
X112909881Y-66937500D01*
X112909873Y-66937500D01*
X112909865Y-66937500D01*
X112824500Y-66937500D01*
X112757461Y-66917815D01*
X112711706Y-66865011D01*
X112700500Y-66813500D01*
X112700500Y-64460097D01*
X112720185Y-64393058D01*
X112736819Y-64372416D01*
X114500065Y-62609170D01*
X116292375Y-60816859D01*
X116353696Y-60783376D01*
X116423388Y-60788360D01*
X116479321Y-60830232D01*
X116503738Y-60895696D01*
X116503582Y-60915349D01*
X116492677Y-61039997D01*
X116492677Y-61040002D01*
X116511929Y-61260062D01*
X116511930Y-61260070D01*
X116569104Y-61473445D01*
X116569105Y-61473447D01*
X116569106Y-61473450D01*
X116635302Y-61615408D01*
X116662466Y-61673662D01*
X116662468Y-61673666D01*
X116789170Y-61854615D01*
X116789175Y-61854621D01*
X116945378Y-62010824D01*
X116945384Y-62010829D01*
X117126333Y-62137531D01*
X117126335Y-62137532D01*
X117126338Y-62137534D01*
X117202093Y-62172859D01*
X117255189Y-62197618D01*
X117307628Y-62243790D01*
X117326780Y-62310984D01*
X117306564Y-62377865D01*
X117255189Y-62422382D01*
X117126340Y-62482465D01*
X117126338Y-62482466D01*
X116945377Y-62609175D01*
X116789175Y-62765377D01*
X116662466Y-62946338D01*
X116662465Y-62946340D01*
X116569107Y-63146548D01*
X116569104Y-63146554D01*
X116511930Y-63359929D01*
X116511929Y-63359937D01*
X116492677Y-63579997D01*
X116492677Y-63580002D01*
X116511929Y-63800062D01*
X116511930Y-63800070D01*
X116569104Y-64013445D01*
X116569105Y-64013447D01*
X116569106Y-64013450D01*
X116635302Y-64155408D01*
X116662466Y-64213662D01*
X116662468Y-64213666D01*
X116789170Y-64394615D01*
X116789175Y-64394621D01*
X116945378Y-64550824D01*
X116945384Y-64550829D01*
X117126333Y-64677531D01*
X117126335Y-64677532D01*
X117126338Y-64677534D01*
X117180258Y-64702677D01*
X117255189Y-64737618D01*
X117307628Y-64783790D01*
X117326780Y-64850984D01*
X117306564Y-64917865D01*
X117255189Y-64962382D01*
X117126340Y-65022465D01*
X117126338Y-65022466D01*
X116945377Y-65149175D01*
X116789175Y-65305377D01*
X116662466Y-65486338D01*
X116662465Y-65486340D01*
X116569107Y-65686548D01*
X116569104Y-65686554D01*
X116511930Y-65899929D01*
X116511929Y-65899937D01*
X116492677Y-66119997D01*
X116492677Y-66120002D01*
X116511929Y-66340062D01*
X116511930Y-66340070D01*
X116569104Y-66553445D01*
X116569105Y-66553447D01*
X116569106Y-66553450D01*
X116647431Y-66721420D01*
X116662466Y-66753662D01*
X116662468Y-66753666D01*
X116789170Y-66934615D01*
X116789175Y-66934621D01*
X116945378Y-67090824D01*
X116945384Y-67090829D01*
X117126333Y-67217531D01*
X117126335Y-67217532D01*
X117126338Y-67217534D01*
X117202093Y-67252859D01*
X117255189Y-67277618D01*
X117307628Y-67323790D01*
X117326780Y-67390984D01*
X117306564Y-67457865D01*
X117255189Y-67502382D01*
X117126340Y-67562465D01*
X117126338Y-67562466D01*
X116945377Y-67689175D01*
X116789175Y-67845377D01*
X116662466Y-68026338D01*
X116662465Y-68026340D01*
X116569107Y-68226548D01*
X116569104Y-68226554D01*
X116511930Y-68439929D01*
X116511929Y-68439937D01*
X116492677Y-68659997D01*
X116492677Y-68660002D01*
X116511929Y-68880062D01*
X116511930Y-68880070D01*
X116569104Y-69093445D01*
X116569105Y-69093447D01*
X116569106Y-69093450D01*
X116642077Y-69249937D01*
X116662466Y-69293662D01*
X116662468Y-69293666D01*
X116789170Y-69474615D01*
X116789175Y-69474621D01*
X116945378Y-69630824D01*
X116945384Y-69630829D01*
X117126333Y-69757531D01*
X117126335Y-69757532D01*
X117126338Y-69757534D01*
X117202093Y-69792859D01*
X117255189Y-69817618D01*
X117307628Y-69863790D01*
X117326780Y-69930984D01*
X117306564Y-69997865D01*
X117255189Y-70042382D01*
X117126340Y-70102465D01*
X117126338Y-70102466D01*
X116945377Y-70229175D01*
X116789175Y-70385377D01*
X116662466Y-70566338D01*
X116662465Y-70566340D01*
X116569107Y-70766548D01*
X116569104Y-70766554D01*
X116511930Y-70979929D01*
X116511929Y-70979937D01*
X116492677Y-71199997D01*
X116492677Y-71200002D01*
X116511929Y-71420062D01*
X116511930Y-71420070D01*
X116569104Y-71633445D01*
X116569105Y-71633447D01*
X116569106Y-71633450D01*
X116627140Y-71757905D01*
X116662466Y-71833662D01*
X116662468Y-71833666D01*
X116789170Y-72014615D01*
X116789175Y-72014621D01*
X116945378Y-72170824D01*
X116945384Y-72170829D01*
X117126333Y-72297531D01*
X117126335Y-72297532D01*
X117126338Y-72297534D01*
X117255189Y-72357618D01*
X117255781Y-72357894D01*
X117308220Y-72404066D01*
X117327372Y-72471260D01*
X117307156Y-72538141D01*
X117255781Y-72582658D01*
X117126590Y-72642901D01*
X117061811Y-72688258D01*
X117732554Y-73359000D01*
X117709840Y-73359000D01*
X117612939Y-73384964D01*
X117526060Y-73435124D01*
X117455124Y-73506060D01*
X117404964Y-73592939D01*
X117379000Y-73689840D01*
X117379000Y-73712553D01*
X116708258Y-73041811D01*
X116662901Y-73106590D01*
X116569579Y-73306720D01*
X116569575Y-73306729D01*
X116512426Y-73520013D01*
X116512424Y-73520023D01*
X116493179Y-73739999D01*
X116493179Y-73740000D01*
X116512424Y-73959976D01*
X116512426Y-73959986D01*
X116569575Y-74173270D01*
X116569580Y-74173284D01*
X116662898Y-74373405D01*
X116662901Y-74373411D01*
X116708258Y-74438187D01*
X116708258Y-74438188D01*
X117379000Y-73767446D01*
X117379000Y-73790160D01*
X117404964Y-73887061D01*
X117455124Y-73973940D01*
X117526060Y-74044876D01*
X117612939Y-74095036D01*
X117709840Y-74121000D01*
X117732553Y-74121000D01*
X117061810Y-74791740D01*
X117126589Y-74837098D01*
X117255781Y-74897342D01*
X117308220Y-74943514D01*
X117327372Y-75010708D01*
X117307156Y-75077589D01*
X117255781Y-75122106D01*
X117126340Y-75182465D01*
X117126338Y-75182466D01*
X116945377Y-75309175D01*
X116789175Y-75465377D01*
X116662466Y-75646338D01*
X116662465Y-75646340D01*
X116569107Y-75846548D01*
X116569104Y-75846554D01*
X116511930Y-76059929D01*
X116511929Y-76059937D01*
X116492677Y-76279997D01*
X116492677Y-76280002D01*
X116511929Y-76500062D01*
X116511930Y-76500070D01*
X116569104Y-76713445D01*
X116569105Y-76713447D01*
X116569106Y-76713450D01*
X116647235Y-76880998D01*
X116662466Y-76913662D01*
X116662468Y-76913666D01*
X116789170Y-77094615D01*
X116789175Y-77094621D01*
X116945378Y-77250824D01*
X116945384Y-77250829D01*
X117126333Y-77377531D01*
X117126335Y-77377532D01*
X117126338Y-77377534D01*
X117326550Y-77470894D01*
X117539932Y-77528070D01*
X117697123Y-77541822D01*
X117759998Y-77547323D01*
X117760000Y-77547323D01*
X117760002Y-77547323D01*
X117815151Y-77542498D01*
X117980068Y-77528070D01*
X118193450Y-77470894D01*
X118393662Y-77377534D01*
X118574620Y-77250826D01*
X118730826Y-77094620D01*
X118857534Y-76913662D01*
X118950894Y-76713450D01*
X119008070Y-76500068D01*
X119027323Y-76280000D01*
X119027049Y-76276873D01*
X119018615Y-76180466D01*
X119008070Y-76059932D01*
X118950894Y-75846550D01*
X118857534Y-75646339D01*
X118740264Y-75478859D01*
X118730827Y-75465381D01*
X118675963Y-75410517D01*
X118574620Y-75309174D01*
X118574616Y-75309171D01*
X118574615Y-75309170D01*
X118393666Y-75182468D01*
X118393662Y-75182466D01*
X118264218Y-75122105D01*
X118211779Y-75075932D01*
X118192627Y-75008739D01*
X118212843Y-74941858D01*
X118264219Y-74897340D01*
X118393416Y-74837095D01*
X118393417Y-74837094D01*
X118458188Y-74791741D01*
X117787448Y-74121000D01*
X117810160Y-74121000D01*
X117907061Y-74095036D01*
X117993940Y-74044876D01*
X118064876Y-73973940D01*
X118115036Y-73887061D01*
X118141000Y-73790160D01*
X118141000Y-73767447D01*
X118811741Y-74438188D01*
X118857094Y-74373417D01*
X118857100Y-74373407D01*
X118950419Y-74173284D01*
X118950424Y-74173270D01*
X119007573Y-73959986D01*
X119007575Y-73959976D01*
X119026821Y-73740000D01*
X119026821Y-73739999D01*
X119007575Y-73520023D01*
X119007573Y-73520013D01*
X118950424Y-73306729D01*
X118950420Y-73306720D01*
X118857096Y-73106586D01*
X118811741Y-73041811D01*
X118811740Y-73041810D01*
X118141000Y-73712551D01*
X118141000Y-73689840D01*
X118115036Y-73592939D01*
X118064876Y-73506060D01*
X117993940Y-73435124D01*
X117907061Y-73384964D01*
X117810160Y-73359000D01*
X117787447Y-73359000D01*
X118458188Y-72688258D01*
X118393411Y-72642901D01*
X118393405Y-72642898D01*
X118264219Y-72582658D01*
X118211779Y-72536486D01*
X118192627Y-72469293D01*
X118212843Y-72402411D01*
X118264219Y-72357894D01*
X118264811Y-72357618D01*
X118393662Y-72297534D01*
X118574620Y-72170826D01*
X118730826Y-72014620D01*
X118857534Y-71833662D01*
X118950894Y-71633450D01*
X119008070Y-71420068D01*
X119027323Y-71200000D01*
X119024984Y-71173270D01*
X119018010Y-71093553D01*
X119008070Y-70979932D01*
X118950894Y-70766550D01*
X118857534Y-70566339D01*
X118774441Y-70447669D01*
X118730827Y-70385381D01*
X118677898Y-70332452D01*
X118574620Y-70229174D01*
X118574616Y-70229171D01*
X118574615Y-70229170D01*
X118393666Y-70102468D01*
X118393658Y-70102464D01*
X118264811Y-70042382D01*
X118212371Y-69996210D01*
X118193219Y-69929017D01*
X118213435Y-69862135D01*
X118264811Y-69817618D01*
X118270802Y-69814824D01*
X118393662Y-69757534D01*
X118574620Y-69630826D01*
X118730826Y-69474620D01*
X118857534Y-69293662D01*
X118950894Y-69093450D01*
X119008070Y-68880068D01*
X119027323Y-68660000D01*
X119026733Y-68653261D01*
X119013253Y-68499174D01*
X119008070Y-68439932D01*
X118950894Y-68226550D01*
X118857534Y-68026339D01*
X118794180Y-67935859D01*
X118730827Y-67845381D01*
X118662444Y-67776998D01*
X118574620Y-67689174D01*
X118574616Y-67689171D01*
X118574615Y-67689170D01*
X118393666Y-67562468D01*
X118393658Y-67562464D01*
X118264811Y-67502382D01*
X118212371Y-67456210D01*
X118193219Y-67389017D01*
X118213435Y-67322135D01*
X118264811Y-67277618D01*
X118270802Y-67274824D01*
X118393662Y-67217534D01*
X118574620Y-67090826D01*
X118730826Y-66934620D01*
X118857534Y-66753662D01*
X118950894Y-66553450D01*
X119008070Y-66340068D01*
X119022509Y-66175017D01*
X119027323Y-66120002D01*
X119027323Y-66119997D01*
X119014200Y-65969997D01*
X119008070Y-65899932D01*
X118950894Y-65686550D01*
X118857534Y-65486339D01*
X118730826Y-65305380D01*
X118574620Y-65149174D01*
X118574616Y-65149171D01*
X118574615Y-65149170D01*
X118393666Y-65022468D01*
X118393658Y-65022464D01*
X118264811Y-64962382D01*
X118212371Y-64916210D01*
X118193219Y-64849017D01*
X118213435Y-64782135D01*
X118264811Y-64737618D01*
X118298456Y-64721929D01*
X118393662Y-64677534D01*
X118574620Y-64550826D01*
X118730826Y-64394620D01*
X118857534Y-64213662D01*
X118950894Y-64013450D01*
X119008070Y-63800068D01*
X119027323Y-63580000D01*
X119008070Y-63359932D01*
X118950894Y-63146550D01*
X118857534Y-62946339D01*
X118730826Y-62765380D01*
X118574620Y-62609174D01*
X118574616Y-62609171D01*
X118574615Y-62609170D01*
X118393666Y-62482468D01*
X118393658Y-62482464D01*
X118264811Y-62422382D01*
X118212371Y-62376210D01*
X118193219Y-62309017D01*
X118213435Y-62242135D01*
X118264811Y-62197618D01*
X118270802Y-62194824D01*
X118393662Y-62137534D01*
X118574620Y-62010826D01*
X118730826Y-61854620D01*
X118857534Y-61673662D01*
X118950894Y-61473450D01*
X119008070Y-61260068D01*
X119027323Y-61040000D01*
X119008070Y-60819932D01*
X118950894Y-60606550D01*
X118857534Y-60406339D01*
X118750349Y-60253262D01*
X118730827Y-60225381D01*
X118662444Y-60156998D01*
X118574620Y-60069174D01*
X118574616Y-60069171D01*
X118574615Y-60069170D01*
X118393666Y-59942468D01*
X118393658Y-59942464D01*
X118264811Y-59882382D01*
X118212371Y-59836210D01*
X118193219Y-59769017D01*
X118213435Y-59702135D01*
X118264811Y-59657618D01*
X118270802Y-59654824D01*
X118393662Y-59597534D01*
X118574620Y-59470826D01*
X118730826Y-59314620D01*
X118857534Y-59133662D01*
X118950894Y-58933450D01*
X119008070Y-58720068D01*
X119027323Y-58500000D01*
X119027323Y-58499997D01*
X131732677Y-58499997D01*
X131732677Y-58500002D01*
X131751929Y-58720062D01*
X131751930Y-58720070D01*
X131809104Y-58933445D01*
X131809105Y-58933447D01*
X131809106Y-58933450D01*
X131875302Y-59075408D01*
X131902466Y-59133662D01*
X131902468Y-59133666D01*
X132029170Y-59314615D01*
X132029175Y-59314621D01*
X132185378Y-59470824D01*
X132185384Y-59470829D01*
X132366333Y-59597531D01*
X132366335Y-59597532D01*
X132366338Y-59597534D01*
X132485748Y-59653215D01*
X132495189Y-59657618D01*
X132547628Y-59703790D01*
X132566780Y-59770984D01*
X132546564Y-59837865D01*
X132495189Y-59882382D01*
X132366340Y-59942465D01*
X132366338Y-59942466D01*
X132185377Y-60069175D01*
X132029175Y-60225377D01*
X131902466Y-60406338D01*
X131902465Y-60406340D01*
X131809107Y-60606548D01*
X131809104Y-60606554D01*
X131751930Y-60819929D01*
X131751929Y-60819937D01*
X131732677Y-61039997D01*
X131732677Y-61040002D01*
X131751929Y-61260062D01*
X131751930Y-61260070D01*
X131809104Y-61473445D01*
X131809105Y-61473447D01*
X131809106Y-61473450D01*
X131875302Y-61615408D01*
X131902466Y-61673662D01*
X131902468Y-61673666D01*
X132029170Y-61854615D01*
X132029175Y-61854621D01*
X132185378Y-62010824D01*
X132185384Y-62010829D01*
X132366333Y-62137531D01*
X132366335Y-62137532D01*
X132366338Y-62137534D01*
X132442093Y-62172859D01*
X132495189Y-62197618D01*
X132547628Y-62243790D01*
X132566780Y-62310984D01*
X132546564Y-62377865D01*
X132495189Y-62422382D01*
X132366340Y-62482465D01*
X132366338Y-62482466D01*
X132185377Y-62609175D01*
X132029175Y-62765377D01*
X131902466Y-62946338D01*
X131902465Y-62946340D01*
X131809107Y-63146548D01*
X131809104Y-63146554D01*
X131751930Y-63359929D01*
X131751929Y-63359937D01*
X131732677Y-63579997D01*
X131732677Y-63580002D01*
X131751929Y-63800062D01*
X131751930Y-63800070D01*
X131809104Y-64013445D01*
X131809105Y-64013447D01*
X131809106Y-64013450D01*
X131875302Y-64155408D01*
X131902466Y-64213662D01*
X131902468Y-64213666D01*
X132029170Y-64394615D01*
X132029175Y-64394621D01*
X132185378Y-64550824D01*
X132185384Y-64550829D01*
X132366333Y-64677531D01*
X132366335Y-64677532D01*
X132366338Y-64677534D01*
X132420258Y-64702677D01*
X132495189Y-64737618D01*
X132547628Y-64783790D01*
X132566780Y-64850984D01*
X132546564Y-64917865D01*
X132495189Y-64962382D01*
X132366340Y-65022465D01*
X132366338Y-65022466D01*
X132185377Y-65149175D01*
X132029175Y-65305377D01*
X131902466Y-65486338D01*
X131902465Y-65486340D01*
X131809107Y-65686548D01*
X131809104Y-65686554D01*
X131751930Y-65899929D01*
X131751929Y-65899937D01*
X131732677Y-66119997D01*
X131732677Y-66120002D01*
X131751929Y-66340062D01*
X131751930Y-66340070D01*
X131809104Y-66553445D01*
X131809105Y-66553447D01*
X131809106Y-66553450D01*
X131887431Y-66721420D01*
X131902466Y-66753662D01*
X131902468Y-66753666D01*
X132029170Y-66934615D01*
X132029175Y-66934621D01*
X132185378Y-67090824D01*
X132185384Y-67090829D01*
X132366333Y-67217531D01*
X132366335Y-67217532D01*
X132366338Y-67217534D01*
X132442093Y-67252859D01*
X132495189Y-67277618D01*
X132547628Y-67323790D01*
X132566780Y-67390984D01*
X132546564Y-67457865D01*
X132495189Y-67502382D01*
X132366340Y-67562465D01*
X132366338Y-67562466D01*
X132185377Y-67689175D01*
X132029175Y-67845377D01*
X131902466Y-68026338D01*
X131902465Y-68026340D01*
X131809107Y-68226548D01*
X131809104Y-68226554D01*
X131751930Y-68439929D01*
X131751929Y-68439937D01*
X131732677Y-68659997D01*
X131732677Y-68660002D01*
X131751929Y-68880062D01*
X131751930Y-68880070D01*
X131809104Y-69093445D01*
X131809105Y-69093447D01*
X131809106Y-69093450D01*
X131882077Y-69249937D01*
X131902466Y-69293662D01*
X131902468Y-69293666D01*
X132029170Y-69474615D01*
X132029175Y-69474621D01*
X132185378Y-69630824D01*
X132185384Y-69630829D01*
X132366333Y-69757531D01*
X132366335Y-69757532D01*
X132366338Y-69757534D01*
X132442093Y-69792859D01*
X132495189Y-69817618D01*
X132547628Y-69863790D01*
X132566780Y-69930984D01*
X132546564Y-69997865D01*
X132495189Y-70042382D01*
X132366340Y-70102465D01*
X132366338Y-70102466D01*
X132185377Y-70229175D01*
X132029175Y-70385377D01*
X131902466Y-70566338D01*
X131902465Y-70566340D01*
X131809107Y-70766548D01*
X131809104Y-70766554D01*
X131751930Y-70979929D01*
X131751929Y-70979937D01*
X131732677Y-71199997D01*
X131732677Y-71200002D01*
X131751929Y-71420062D01*
X131751930Y-71420070D01*
X131809104Y-71633445D01*
X131809105Y-71633447D01*
X131809106Y-71633450D01*
X131867140Y-71757905D01*
X131902466Y-71833662D01*
X131902468Y-71833666D01*
X132029170Y-72014615D01*
X132029175Y-72014621D01*
X132185378Y-72170824D01*
X132185384Y-72170829D01*
X132366333Y-72297531D01*
X132366335Y-72297532D01*
X132366338Y-72297534D01*
X132485748Y-72353215D01*
X132495189Y-72357618D01*
X132547628Y-72403790D01*
X132566780Y-72470984D01*
X132546564Y-72537865D01*
X132495189Y-72582382D01*
X132366340Y-72642465D01*
X132366338Y-72642466D01*
X132185377Y-72769175D01*
X132029175Y-72925377D01*
X131902466Y-73106338D01*
X131902465Y-73106340D01*
X131809107Y-73306548D01*
X131809104Y-73306554D01*
X131751930Y-73519929D01*
X131751929Y-73519937D01*
X131732677Y-73739997D01*
X131732677Y-73740002D01*
X131751929Y-73960062D01*
X131751930Y-73960070D01*
X131809104Y-74173445D01*
X131809105Y-74173447D01*
X131809106Y-74173450D01*
X131846615Y-74253889D01*
X131902466Y-74373662D01*
X131902468Y-74373666D01*
X132029170Y-74554615D01*
X132029174Y-74554620D01*
X132185380Y-74710826D01*
X132300937Y-74791740D01*
X132301202Y-74791925D01*
X132344827Y-74846502D01*
X132352021Y-74916000D01*
X132320498Y-74978355D01*
X132260269Y-75013769D01*
X132230082Y-75017500D01*
X132190131Y-75017500D01*
X132190123Y-75017501D01*
X132130516Y-75023908D01*
X131995671Y-75074202D01*
X131995664Y-75074206D01*
X131880455Y-75160452D01*
X131880452Y-75160455D01*
X131794206Y-75275664D01*
X131794202Y-75275671D01*
X131743908Y-75410517D01*
X131737501Y-75470116D01*
X131737500Y-75470135D01*
X131737500Y-77089870D01*
X131737501Y-77089876D01*
X131743908Y-77149483D01*
X131794202Y-77284328D01*
X131794206Y-77284335D01*
X131880452Y-77399544D01*
X131880455Y-77399547D01*
X131995664Y-77485793D01*
X131995671Y-77485797D01*
X132130517Y-77536091D01*
X132130516Y-77536091D01*
X132137444Y-77536835D01*
X132190127Y-77542500D01*
X133809872Y-77542499D01*
X133869483Y-77536091D01*
X134004331Y-77485796D01*
X134119546Y-77399546D01*
X134205796Y-77284331D01*
X134256091Y-77149483D01*
X134262500Y-77089873D01*
X134262499Y-75678095D01*
X134282184Y-75611057D01*
X134298813Y-75590420D01*
X136962416Y-72926818D01*
X137023739Y-72893333D01*
X137050097Y-72890499D01*
X138397871Y-72890499D01*
X138397872Y-72890499D01*
X138457483Y-72884091D01*
X138592331Y-72833796D01*
X138707546Y-72747546D01*
X138793796Y-72632331D01*
X138844091Y-72497483D01*
X138850500Y-72437873D01*
X138850499Y-70642128D01*
X138844091Y-70582517D01*
X138838502Y-70567533D01*
X138793797Y-70447671D01*
X138793793Y-70447664D01*
X138707547Y-70332455D01*
X138707544Y-70332452D01*
X138592335Y-70246206D01*
X138592328Y-70246202D01*
X138460917Y-70197189D01*
X138404983Y-70155318D01*
X138380566Y-70089853D01*
X138395418Y-70021580D01*
X138416563Y-69993332D01*
X138538495Y-69871401D01*
X138674035Y-69677830D01*
X138773903Y-69463663D01*
X138835063Y-69235408D01*
X138855659Y-69000000D01*
X138835063Y-68764592D01*
X138773903Y-68536337D01*
X138674035Y-68322171D01*
X138664935Y-68309174D01*
X138538494Y-68128597D01*
X138371402Y-67961506D01*
X138371396Y-67961501D01*
X138185842Y-67831575D01*
X138142217Y-67776998D01*
X138135023Y-67707500D01*
X138166546Y-67645145D01*
X138185842Y-67628425D01*
X138280044Y-67562464D01*
X138371401Y-67498495D01*
X138538495Y-67331401D01*
X138674035Y-67137830D01*
X138773903Y-66923663D01*
X138835063Y-66695408D01*
X138855659Y-66460000D01*
X138835063Y-66224592D01*
X138777356Y-66009223D01*
X138773905Y-65996344D01*
X138773904Y-65996343D01*
X138773903Y-65996337D01*
X138674035Y-65782171D01*
X138651462Y-65749932D01*
X138538494Y-65588597D01*
X138371402Y-65421506D01*
X138371396Y-65421501D01*
X138185842Y-65291575D01*
X138142217Y-65236998D01*
X138135023Y-65167500D01*
X138166546Y-65105145D01*
X138185842Y-65088425D01*
X138313311Y-64999170D01*
X138371401Y-64958495D01*
X138538495Y-64791401D01*
X138674035Y-64597830D01*
X138773903Y-64383663D01*
X138835063Y-64155408D01*
X138855659Y-63920000D01*
X138835063Y-63684592D01*
X138773903Y-63456337D01*
X138674035Y-63242171D01*
X138622324Y-63168319D01*
X138538494Y-63048597D01*
X138371402Y-62881506D01*
X138371396Y-62881501D01*
X138185842Y-62751575D01*
X138142217Y-62696998D01*
X138135023Y-62627500D01*
X138166546Y-62565145D01*
X138185842Y-62548425D01*
X138280044Y-62482464D01*
X138371401Y-62418495D01*
X138538495Y-62251401D01*
X138674035Y-62057830D01*
X138773903Y-61843663D01*
X138835063Y-61615408D01*
X138855659Y-61380000D01*
X138835063Y-61144592D01*
X138773903Y-60916337D01*
X138674035Y-60702171D01*
X138607080Y-60606548D01*
X138538494Y-60508597D01*
X138371402Y-60341506D01*
X138371396Y-60341501D01*
X138185842Y-60211575D01*
X138142217Y-60156998D01*
X138135023Y-60087500D01*
X138166546Y-60025145D01*
X138185842Y-60008425D01*
X138280044Y-59942464D01*
X138371401Y-59878495D01*
X138538495Y-59711401D01*
X138674035Y-59517830D01*
X138773903Y-59303663D01*
X138835063Y-59075408D01*
X138855659Y-58840000D01*
X138835063Y-58604592D01*
X138773903Y-58376337D01*
X138674035Y-58162171D01*
X138673140Y-58160892D01*
X138538494Y-57968597D01*
X138371402Y-57801506D01*
X138371401Y-57801505D01*
X138185405Y-57671269D01*
X138141781Y-57616692D01*
X138134588Y-57547193D01*
X138166110Y-57484839D01*
X138185405Y-57468119D01*
X138371082Y-57338105D01*
X138538105Y-57171082D01*
X138673600Y-56977578D01*
X138773429Y-56763492D01*
X138773432Y-56763486D01*
X138830636Y-56550000D01*
X137933012Y-56550000D01*
X137965925Y-56492993D01*
X138000000Y-56365826D01*
X138000000Y-56234174D01*
X137965925Y-56107007D01*
X137933012Y-56050000D01*
X138830636Y-56050000D01*
X138830635Y-56049999D01*
X138773432Y-55836513D01*
X138773429Y-55836507D01*
X138673600Y-55622422D01*
X138673599Y-55622420D01*
X138538113Y-55428926D01*
X138538108Y-55428920D01*
X138371082Y-55261894D01*
X138177578Y-55126399D01*
X137963492Y-55026570D01*
X137963486Y-55026567D01*
X137750000Y-54969364D01*
X137750000Y-55866988D01*
X137692993Y-55834075D01*
X137565826Y-55800000D01*
X137434174Y-55800000D01*
X137307007Y-55834075D01*
X137250000Y-55866988D01*
X137250000Y-54969364D01*
X137249999Y-54969364D01*
X137036513Y-55026567D01*
X137036507Y-55026570D01*
X136822422Y-55126399D01*
X136822420Y-55126400D01*
X136628926Y-55261886D01*
X136628920Y-55261891D01*
X136461891Y-55428920D01*
X136461886Y-55428926D01*
X136326400Y-55622420D01*
X136326399Y-55622422D01*
X136226570Y-55836507D01*
X136226567Y-55836513D01*
X136169364Y-56049999D01*
X136169364Y-56050000D01*
X137066988Y-56050000D01*
X137034075Y-56107007D01*
X137000000Y-56234174D01*
X137000000Y-56365826D01*
X137034075Y-56492993D01*
X137066988Y-56550000D01*
X136169364Y-56550000D01*
X136226567Y-56763486D01*
X136226570Y-56763492D01*
X136326399Y-56977578D01*
X136461894Y-57171082D01*
X136628917Y-57338105D01*
X136814595Y-57468119D01*
X136858219Y-57522696D01*
X136865412Y-57592195D01*
X136833890Y-57654549D01*
X136814595Y-57671269D01*
X136628594Y-57801508D01*
X136461505Y-57968597D01*
X136325965Y-58162169D01*
X136325964Y-58162171D01*
X136226098Y-58376335D01*
X136226094Y-58376344D01*
X136164938Y-58604586D01*
X136164936Y-58604596D01*
X136144341Y-58839999D01*
X136144341Y-58840000D01*
X136164936Y-59075403D01*
X136164938Y-59075413D01*
X136226094Y-59303655D01*
X136226096Y-59303659D01*
X136226097Y-59303663D01*
X136231207Y-59314621D01*
X136253325Y-59362053D01*
X136263817Y-59431131D01*
X136235297Y-59494915D01*
X136228624Y-59502139D01*
X134467626Y-61263137D01*
X134406303Y-61296622D01*
X134336611Y-61291638D01*
X134280678Y-61249766D01*
X134256261Y-61184302D01*
X134256416Y-61164660D01*
X134267323Y-61040000D01*
X134248070Y-60819932D01*
X134190894Y-60606550D01*
X134097534Y-60406339D01*
X133990349Y-60253262D01*
X133970827Y-60225381D01*
X133902444Y-60156998D01*
X133814620Y-60069174D01*
X133814616Y-60069171D01*
X133814615Y-60069170D01*
X133633666Y-59942468D01*
X133633658Y-59942464D01*
X133504811Y-59882382D01*
X133452371Y-59836210D01*
X133433219Y-59769017D01*
X133453435Y-59702135D01*
X133504811Y-59657618D01*
X133510802Y-59654824D01*
X133633662Y-59597534D01*
X133814620Y-59470826D01*
X133970826Y-59314620D01*
X134097534Y-59133662D01*
X134190894Y-58933450D01*
X134248070Y-58720068D01*
X134267323Y-58500000D01*
X134248070Y-58279932D01*
X134190894Y-58066550D01*
X134097534Y-57866339D01*
X133970826Y-57685380D01*
X133814620Y-57529174D01*
X133814616Y-57529171D01*
X133814615Y-57529170D01*
X133633666Y-57402468D01*
X133633662Y-57402466D01*
X133633660Y-57402465D01*
X133433450Y-57309106D01*
X133433447Y-57309105D01*
X133433445Y-57309104D01*
X133220070Y-57251930D01*
X133220062Y-57251929D01*
X133000002Y-57232677D01*
X132999998Y-57232677D01*
X132779937Y-57251929D01*
X132779929Y-57251930D01*
X132566554Y-57309104D01*
X132566548Y-57309107D01*
X132366340Y-57402465D01*
X132366338Y-57402466D01*
X132185377Y-57529175D01*
X132029175Y-57685377D01*
X131902466Y-57866338D01*
X131902465Y-57866340D01*
X131809107Y-58066548D01*
X131809104Y-58066554D01*
X131751930Y-58279929D01*
X131751929Y-58279937D01*
X131732677Y-58499997D01*
X119027323Y-58499997D01*
X119008070Y-58279932D01*
X118950894Y-58066550D01*
X118857534Y-57866339D01*
X118730826Y-57685380D01*
X118574620Y-57529174D01*
X118574616Y-57529171D01*
X118574615Y-57529170D01*
X118393666Y-57402468D01*
X118393662Y-57402466D01*
X118393660Y-57402465D01*
X118193450Y-57309106D01*
X118193447Y-57309105D01*
X118193445Y-57309104D01*
X117980070Y-57251930D01*
X117980062Y-57251929D01*
X117760002Y-57232677D01*
X117759998Y-57232677D01*
X117539937Y-57251929D01*
X117539929Y-57251930D01*
X117326554Y-57309104D01*
X117326548Y-57309107D01*
X117126340Y-57402465D01*
X117126338Y-57402466D01*
X116945377Y-57529175D01*
X116789175Y-57685377D01*
X116662466Y-57866338D01*
X116662465Y-57866340D01*
X116569107Y-58066548D01*
X116569104Y-58066554D01*
X116511930Y-58279929D01*
X116511929Y-58279937D01*
X116503495Y-58376344D01*
X116492677Y-58500000D01*
X116511929Y-58720062D01*
X116511930Y-58720066D01*
X116511930Y-58720070D01*
X116531178Y-58791904D01*
X116529515Y-58861754D01*
X116499084Y-58911678D01*
X111731286Y-63679478D01*
X111619482Y-63791281D01*
X111619480Y-63791283D01*
X111612637Y-63803137D01*
X111602059Y-63821459D01*
X111593305Y-63836622D01*
X111545167Y-63919999D01*
X111540423Y-63928215D01*
X111499499Y-64080943D01*
X111499499Y-64080945D01*
X111499499Y-64249046D01*
X111499500Y-64249059D01*
X111499500Y-66813500D01*
X111479815Y-66880539D01*
X111427011Y-66926294D01*
X111375501Y-66937500D01*
X111290130Y-66937500D01*
X111290123Y-66937501D01*
X111230516Y-66943908D01*
X111095671Y-66994202D01*
X111095664Y-66994206D01*
X110980455Y-67080452D01*
X110980452Y-67080455D01*
X110894206Y-67195664D01*
X110894202Y-67195671D01*
X110843908Y-67330517D01*
X110837501Y-67390116D01*
X110837500Y-67390128D01*
X110837500Y-69009870D01*
X110837501Y-69009876D01*
X110843908Y-69069483D01*
X110894202Y-69204328D01*
X110894206Y-69204335D01*
X110980452Y-69319544D01*
X110980455Y-69319547D01*
X111095664Y-69405793D01*
X111095671Y-69405797D01*
X111230517Y-69456091D01*
X111230516Y-69456091D01*
X111237444Y-69456835D01*
X111290127Y-69462500D01*
X111330949Y-69462499D01*
X111397986Y-69482182D01*
X111443742Y-69534985D01*
X111453687Y-69604143D01*
X111424664Y-69667700D01*
X111402072Y-69688074D01*
X111401811Y-69688256D01*
X111401810Y-69688257D01*
X112072554Y-70359000D01*
X112049840Y-70359000D01*
X111952939Y-70384964D01*
X111866060Y-70435124D01*
X111795124Y-70506060D01*
X111744964Y-70592939D01*
X111719000Y-70689840D01*
X111719000Y-70712553D01*
X111048258Y-70041811D01*
X111002901Y-70106590D01*
X110909579Y-70306720D01*
X110909575Y-70306729D01*
X110852426Y-70520013D01*
X110852424Y-70520023D01*
X110833179Y-70739999D01*
X83255650Y-70739999D01*
X83305970Y-70712523D01*
X83364420Y-70713914D01*
X83371188Y-70715727D01*
X83379932Y-70718070D01*
X83537123Y-70731822D01*
X83599998Y-70737323D01*
X83600000Y-70737323D01*
X83600002Y-70737323D01*
X83655017Y-70732509D01*
X83820068Y-70718070D01*
X84033450Y-70660894D01*
X84233662Y-70567534D01*
X84414620Y-70440826D01*
X84570826Y-70284620D01*
X84697534Y-70103662D01*
X84790894Y-69903450D01*
X84848070Y-69690068D01*
X84867323Y-69470000D01*
X84848070Y-69249932D01*
X84790894Y-69036550D01*
X84697534Y-68836339D01*
X84634180Y-68745859D01*
X84570827Y-68655381D01*
X84568705Y-68653259D01*
X84414620Y-68499174D01*
X84414616Y-68499171D01*
X84414615Y-68499170D01*
X84233666Y-68372468D01*
X84233662Y-68372466D01*
X84224288Y-68368095D01*
X84033450Y-68279106D01*
X84033447Y-68279105D01*
X84033445Y-68279104D01*
X83820070Y-68221930D01*
X83820062Y-68221929D01*
X83600002Y-68202677D01*
X83599998Y-68202677D01*
X83403193Y-68219895D01*
X83334693Y-68206128D01*
X83304705Y-68184048D01*
X81971546Y-66850888D01*
X81971545Y-66850887D01*
X81856807Y-66774222D01*
X81729332Y-66721421D01*
X81729322Y-66721418D01*
X81593996Y-66694500D01*
X81593994Y-66694500D01*
X81593993Y-66694500D01*
X73898645Y-66694500D01*
X73831606Y-66674815D01*
X73792918Y-66635290D01*
X73698262Y-66480825D01*
X73698261Y-66480823D01*
X73628755Y-66399442D01*
X73539759Y-66295241D01*
X73416610Y-66190062D01*
X73354176Y-66136738D01*
X73354173Y-66136737D01*
X73146089Y-66009222D01*
X73051390Y-65969997D01*
X82332677Y-65969997D01*
X82332677Y-65970002D01*
X82351929Y-66190062D01*
X82351930Y-66190070D01*
X82409104Y-66403445D01*
X82409105Y-66403447D01*
X82409106Y-66403450D01*
X82445187Y-66480826D01*
X82502466Y-66603662D01*
X82502468Y-66603666D01*
X82629170Y-66784615D01*
X82629175Y-66784621D01*
X82785378Y-66940824D01*
X82785384Y-66940829D01*
X82966333Y-67067531D01*
X82966335Y-67067532D01*
X82966338Y-67067534D01*
X83166550Y-67160894D01*
X83379932Y-67218070D01*
X83537123Y-67231822D01*
X83599998Y-67237323D01*
X83600000Y-67237323D01*
X83600002Y-67237323D01*
X83655017Y-67232509D01*
X83820068Y-67218070D01*
X84033450Y-67160894D01*
X84233662Y-67067534D01*
X84414620Y-66940826D01*
X84570826Y-66784620D01*
X84697534Y-66603662D01*
X84790894Y-66403450D01*
X84848070Y-66190068D01*
X84867323Y-65970000D01*
X84848070Y-65749932D01*
X84790894Y-65536550D01*
X84697534Y-65336339D01*
X84595067Y-65190000D01*
X84570827Y-65155381D01*
X84503871Y-65088425D01*
X84414620Y-64999174D01*
X84414616Y-64999171D01*
X84414615Y-64999170D01*
X84233666Y-64872468D01*
X84233662Y-64872466D01*
X84191224Y-64852677D01*
X84033450Y-64779106D01*
X84033447Y-64779105D01*
X84033445Y-64779104D01*
X83820070Y-64721930D01*
X83820062Y-64721929D01*
X83600002Y-64702677D01*
X83599998Y-64702677D01*
X83379937Y-64721929D01*
X83379929Y-64721930D01*
X83166554Y-64779104D01*
X83166548Y-64779107D01*
X82966340Y-64872465D01*
X82966338Y-64872466D01*
X82785377Y-64999175D01*
X82629175Y-65155377D01*
X82502466Y-65336338D01*
X82502465Y-65336340D01*
X82409107Y-65536548D01*
X82409104Y-65536554D01*
X82351930Y-65749929D01*
X82351929Y-65749937D01*
X82332677Y-65969997D01*
X73051390Y-65969997D01*
X72920618Y-65915830D01*
X72920621Y-65915830D01*
X72814992Y-65890470D01*
X72683302Y-65858854D01*
X72683300Y-65858853D01*
X72683297Y-65858853D01*
X72440000Y-65839706D01*
X72196702Y-65858853D01*
X71959380Y-65915830D01*
X71733910Y-66009222D01*
X71525826Y-66136737D01*
X71525823Y-66136738D01*
X71340241Y-66295241D01*
X71284290Y-66360751D01*
X71225783Y-66398944D01*
X71155915Y-66399442D01*
X71096869Y-66362088D01*
X71095710Y-66360751D01*
X71080666Y-66343137D01*
X71039759Y-66295241D01*
X70916610Y-66190062D01*
X70854176Y-66136738D01*
X70854173Y-66136737D01*
X70646089Y-66009222D01*
X70420618Y-65915830D01*
X70420621Y-65915830D01*
X70314992Y-65890470D01*
X70183302Y-65858854D01*
X70183300Y-65858853D01*
X70183297Y-65858853D01*
X69940000Y-65839706D01*
X69696702Y-65858853D01*
X69459380Y-65915830D01*
X69233910Y-66009222D01*
X69025826Y-66136737D01*
X69025823Y-66136738D01*
X68840241Y-66295241D01*
X68681738Y-66480823D01*
X68681737Y-66480826D01*
X68554222Y-66688910D01*
X68460830Y-66914380D01*
X68403853Y-67151702D01*
X68384706Y-67395000D01*
X65000500Y-67395000D01*
X65000500Y-58995000D01*
X68384706Y-58995000D01*
X68403853Y-59238297D01*
X68403853Y-59238300D01*
X68403854Y-59238302D01*
X68459678Y-59470824D01*
X68460830Y-59475619D01*
X68554222Y-59701089D01*
X68681737Y-59909173D01*
X68681738Y-59909176D01*
X68681741Y-59909179D01*
X68840241Y-60094759D01*
X68913114Y-60156998D01*
X69025823Y-60253261D01*
X69025826Y-60253262D01*
X69233910Y-60380777D01*
X69459381Y-60474169D01*
X69459378Y-60474169D01*
X69459384Y-60474170D01*
X69459388Y-60474172D01*
X69696698Y-60531146D01*
X69940000Y-60550294D01*
X70183302Y-60531146D01*
X70420612Y-60474172D01*
X70646089Y-60380777D01*
X70854179Y-60253259D01*
X71039759Y-60094759D01*
X71095712Y-60029245D01*
X71154216Y-59991055D01*
X71224083Y-59990555D01*
X71283130Y-60027908D01*
X71284181Y-60029121D01*
X71334041Y-60087500D01*
X71340241Y-60094759D01*
X71525823Y-60253261D01*
X71525826Y-60253262D01*
X71733910Y-60380777D01*
X71959381Y-60474169D01*
X71959378Y-60474169D01*
X71959384Y-60474170D01*
X71959388Y-60474172D01*
X72196698Y-60531146D01*
X72440000Y-60550294D01*
X72683302Y-60531146D01*
X72920612Y-60474172D01*
X73146089Y-60380777D01*
X73354179Y-60253259D01*
X73539759Y-60094759D01*
X73698259Y-59909179D01*
X73825777Y-59701089D01*
X73919172Y-59475612D01*
X73976146Y-59238302D01*
X73995294Y-58995000D01*
X73976146Y-58751698D01*
X73919172Y-58514388D01*
X73913213Y-58500002D01*
X73825777Y-58288910D01*
X73698262Y-58080826D01*
X73698261Y-58080823D01*
X73628755Y-57999442D01*
X73539759Y-57895241D01*
X73404670Y-57779864D01*
X73354176Y-57736738D01*
X73354173Y-57736737D01*
X73146089Y-57609222D01*
X72920618Y-57515830D01*
X72920621Y-57515830D01*
X72814992Y-57490470D01*
X72683302Y-57458854D01*
X72683300Y-57458853D01*
X72683297Y-57458853D01*
X72440000Y-57439706D01*
X72196702Y-57458853D01*
X71959380Y-57515830D01*
X71733910Y-57609222D01*
X71525826Y-57736737D01*
X71525823Y-57736738D01*
X71340241Y-57895241D01*
X71284290Y-57960751D01*
X71225783Y-57998944D01*
X71155915Y-57999442D01*
X71096869Y-57962088D01*
X71095710Y-57960751D01*
X71078692Y-57940826D01*
X71039759Y-57895241D01*
X70904670Y-57779864D01*
X70854176Y-57736738D01*
X70854173Y-57736737D01*
X70646089Y-57609222D01*
X70420618Y-57515830D01*
X70420621Y-57515830D01*
X70314992Y-57490470D01*
X70183302Y-57458854D01*
X70183300Y-57458853D01*
X70183297Y-57458853D01*
X69940000Y-57439706D01*
X69696702Y-57458853D01*
X69459380Y-57515830D01*
X69233910Y-57609222D01*
X69025826Y-57736737D01*
X69025823Y-57736738D01*
X68840241Y-57895241D01*
X68681738Y-58080823D01*
X68681737Y-58080826D01*
X68554222Y-58288910D01*
X68460830Y-58514380D01*
X68403853Y-58751702D01*
X68384706Y-58995000D01*
X65000500Y-58995000D01*
X65000500Y-50500000D01*
X68304706Y-50500000D01*
X68323853Y-50743297D01*
X68323853Y-50743300D01*
X68323854Y-50743302D01*
X68328966Y-50764596D01*
X68380830Y-50980619D01*
X68474222Y-51206089D01*
X68601737Y-51414173D01*
X68601738Y-51414176D01*
X68601741Y-51414179D01*
X68760241Y-51599759D01*
X68903897Y-51722453D01*
X68945823Y-51758261D01*
X68945826Y-51758262D01*
X69153910Y-51885777D01*
X69379381Y-51979169D01*
X69379378Y-51979169D01*
X69379384Y-51979170D01*
X69379388Y-51979172D01*
X69616698Y-52036146D01*
X69860000Y-52055294D01*
X70103302Y-52036146D01*
X70340612Y-51979172D01*
X70566089Y-51885777D01*
X70774179Y-51758259D01*
X70959759Y-51599759D01*
X71118259Y-51414179D01*
X71212918Y-51259710D01*
X71264729Y-51212835D01*
X71318645Y-51200500D01*
X77996481Y-51200500D01*
X78063520Y-51220185D01*
X78084162Y-51236819D01*
X80982048Y-54134705D01*
X81015533Y-54196028D01*
X81017895Y-54233193D01*
X81000677Y-54429997D01*
X81000677Y-54430002D01*
X81019929Y-54650062D01*
X81019930Y-54650070D01*
X81077104Y-54863445D01*
X81077105Y-54863447D01*
X81077106Y-54863450D01*
X81153168Y-55026567D01*
X81170466Y-55063662D01*
X81170468Y-55063666D01*
X81297170Y-55244615D01*
X81297175Y-55244621D01*
X81453378Y-55400824D01*
X81453384Y-55400829D01*
X81569202Y-55481925D01*
X81612827Y-55536502D01*
X81620021Y-55606000D01*
X81588498Y-55668355D01*
X81528269Y-55703769D01*
X81498082Y-55707500D01*
X81458131Y-55707500D01*
X81458123Y-55707501D01*
X81398516Y-55713908D01*
X81263671Y-55764202D01*
X81263664Y-55764206D01*
X81148455Y-55850452D01*
X81148452Y-55850455D01*
X81062206Y-55965664D01*
X81062202Y-55965671D01*
X81011908Y-56100517D01*
X81006010Y-56155380D01*
X81005501Y-56160123D01*
X81005500Y-56160135D01*
X81005500Y-57779870D01*
X81005501Y-57779876D01*
X81011908Y-57839483D01*
X81062202Y-57974328D01*
X81062206Y-57974335D01*
X81148452Y-58089544D01*
X81148455Y-58089547D01*
X81263664Y-58175793D01*
X81263671Y-58175797D01*
X81398517Y-58226091D01*
X81398516Y-58226091D01*
X81405444Y-58226835D01*
X81458127Y-58232500D01*
X83077872Y-58232499D01*
X83137483Y-58226091D01*
X83272331Y-58175796D01*
X83387546Y-58089546D01*
X83473796Y-57974331D01*
X83524091Y-57839483D01*
X83530500Y-57779873D01*
X83530499Y-56160128D01*
X83524091Y-56100517D01*
X83505249Y-56050000D01*
X83473797Y-55965671D01*
X83473793Y-55965664D01*
X83387547Y-55850455D01*
X83387544Y-55850452D01*
X83272335Y-55764206D01*
X83272328Y-55764202D01*
X83137482Y-55713908D01*
X83137483Y-55713908D01*
X83077883Y-55707501D01*
X83077881Y-55707500D01*
X83077873Y-55707500D01*
X83077865Y-55707500D01*
X83037921Y-55707500D01*
X82970882Y-55687815D01*
X82925127Y-55635011D01*
X82915183Y-55565853D01*
X82944208Y-55502297D01*
X82966798Y-55481925D01*
X83082620Y-55400826D01*
X83238826Y-55244620D01*
X83365534Y-55063662D01*
X83458894Y-54863450D01*
X83516070Y-54650068D01*
X83535323Y-54430000D01*
X83535323Y-54429997D01*
X100000677Y-54429997D01*
X100000677Y-54430002D01*
X100019929Y-54650062D01*
X100019930Y-54650070D01*
X100077104Y-54863445D01*
X100077105Y-54863447D01*
X100077106Y-54863450D01*
X100153168Y-55026567D01*
X100170466Y-55063662D01*
X100170468Y-55063666D01*
X100297170Y-55244615D01*
X100297175Y-55244621D01*
X100453378Y-55400824D01*
X100453384Y-55400829D01*
X100634333Y-55527531D01*
X100634335Y-55527532D01*
X100634338Y-55527534D01*
X100716514Y-55565853D01*
X100763189Y-55587618D01*
X100815628Y-55633790D01*
X100834780Y-55700984D01*
X100814564Y-55767865D01*
X100763189Y-55812382D01*
X100634340Y-55872465D01*
X100634338Y-55872466D01*
X100453377Y-55999175D01*
X100297175Y-56155377D01*
X100170466Y-56336338D01*
X100170465Y-56336340D01*
X100077107Y-56536548D01*
X100077104Y-56536554D01*
X100019930Y-56749929D01*
X100019929Y-56749937D01*
X100000677Y-56969997D01*
X100000677Y-56970002D01*
X100019929Y-57190062D01*
X100019930Y-57190070D01*
X100077104Y-57403445D01*
X100077105Y-57403447D01*
X100077106Y-57403450D01*
X100132711Y-57522696D01*
X100170466Y-57603662D01*
X100170468Y-57603666D01*
X100297170Y-57784615D01*
X100297175Y-57784621D01*
X100453378Y-57940824D01*
X100453384Y-57940829D01*
X100634333Y-58067531D01*
X100634335Y-58067532D01*
X100634338Y-58067534D01*
X100834550Y-58160894D01*
X101047932Y-58218070D01*
X101205123Y-58231822D01*
X101267998Y-58237323D01*
X101268000Y-58237323D01*
X101268002Y-58237323D01*
X101323151Y-58232498D01*
X101488068Y-58218070D01*
X101701450Y-58160894D01*
X101901662Y-58067534D01*
X102082620Y-57940826D01*
X102238826Y-57784620D01*
X102365534Y-57603662D01*
X102458894Y-57403450D01*
X102516070Y-57190068D01*
X102535323Y-56970000D01*
X102516070Y-56749932D01*
X102458894Y-56536550D01*
X102365534Y-56336339D01*
X102293998Y-56234174D01*
X102238827Y-56155381D01*
X102183962Y-56100516D01*
X102082620Y-55999174D01*
X102082616Y-55999171D01*
X102082615Y-55999170D01*
X101901666Y-55872468D01*
X101901658Y-55872464D01*
X101772811Y-55812382D01*
X101720371Y-55766210D01*
X101701219Y-55699017D01*
X101721435Y-55632135D01*
X101772811Y-55587618D01*
X101819486Y-55565853D01*
X101901662Y-55527534D01*
X102082620Y-55400826D01*
X102238826Y-55244620D01*
X102365534Y-55063662D01*
X102458894Y-54863450D01*
X102516070Y-54650068D01*
X102535323Y-54430000D01*
X102516070Y-54209932D01*
X102458894Y-53996550D01*
X102365534Y-53796339D01*
X102238826Y-53615380D01*
X102082620Y-53459174D01*
X102082616Y-53459171D01*
X102082615Y-53459170D01*
X101901666Y-53332468D01*
X101901662Y-53332466D01*
X101901660Y-53332465D01*
X101701450Y-53239106D01*
X101701447Y-53239105D01*
X101701445Y-53239104D01*
X101488070Y-53181930D01*
X101488062Y-53181929D01*
X101268002Y-53162677D01*
X101267998Y-53162677D01*
X101047937Y-53181929D01*
X101047929Y-53181930D01*
X100834554Y-53239104D01*
X100834548Y-53239107D01*
X100634340Y-53332465D01*
X100634338Y-53332466D01*
X100453377Y-53459175D01*
X100297175Y-53615377D01*
X100170466Y-53796338D01*
X100170465Y-53796340D01*
X100077107Y-53996548D01*
X100077104Y-53996554D01*
X100019930Y-54209929D01*
X100019929Y-54209937D01*
X100000677Y-54429997D01*
X83535323Y-54429997D01*
X83516070Y-54209932D01*
X83458894Y-53996550D01*
X83365534Y-53796339D01*
X83238826Y-53615380D01*
X83082620Y-53459174D01*
X83082616Y-53459171D01*
X83082615Y-53459170D01*
X82901666Y-53332468D01*
X82901662Y-53332466D01*
X82901660Y-53332465D01*
X82701450Y-53239106D01*
X82701447Y-53239105D01*
X82701445Y-53239104D01*
X82488070Y-53181930D01*
X82488062Y-53181929D01*
X82268002Y-53162677D01*
X82267998Y-53162677D01*
X82071193Y-53179895D01*
X82002693Y-53166128D01*
X81972705Y-53144048D01*
X79828657Y-50999999D01*
X118484341Y-50999999D01*
X118484341Y-51000000D01*
X118504936Y-51235403D01*
X118504938Y-51235413D01*
X118566094Y-51463655D01*
X118566096Y-51463659D01*
X118566097Y-51463663D01*
X118629560Y-51599759D01*
X118665965Y-51677830D01*
X118665967Y-51677834D01*
X118722282Y-51758259D01*
X118801505Y-51871401D01*
X118968599Y-52038495D01*
X119065384Y-52106265D01*
X119162165Y-52174032D01*
X119162167Y-52174033D01*
X119162170Y-52174035D01*
X119376337Y-52273903D01*
X119604592Y-52335063D01*
X119781034Y-52350500D01*
X119839999Y-52355659D01*
X119840000Y-52355659D01*
X119840001Y-52355659D01*
X119898966Y-52350500D01*
X120075408Y-52335063D01*
X120303663Y-52273903D01*
X120517830Y-52174035D01*
X120711401Y-52038495D01*
X120878495Y-51871401D01*
X121008425Y-51685842D01*
X121063002Y-51642217D01*
X121132500Y-51635023D01*
X121194855Y-51666546D01*
X121211575Y-51685842D01*
X121341500Y-51871395D01*
X121341505Y-51871401D01*
X121508599Y-52038495D01*
X121605384Y-52106265D01*
X121702165Y-52174032D01*
X121702167Y-52174033D01*
X121702170Y-52174035D01*
X121916337Y-52273903D01*
X122144592Y-52335063D01*
X122321034Y-52350500D01*
X122379999Y-52355659D01*
X122380000Y-52355659D01*
X122380001Y-52355659D01*
X122438966Y-52350500D01*
X122615408Y-52335063D01*
X122843663Y-52273903D01*
X123057830Y-52174035D01*
X123251401Y-52038495D01*
X123418495Y-51871401D01*
X123548425Y-51685842D01*
X123603002Y-51642217D01*
X123672500Y-51635023D01*
X123734855Y-51666546D01*
X123751575Y-51685842D01*
X123881500Y-51871395D01*
X123881505Y-51871401D01*
X124048599Y-52038495D01*
X124145384Y-52106265D01*
X124242165Y-52174032D01*
X124242167Y-52174033D01*
X124242170Y-52174035D01*
X124456337Y-52273903D01*
X124684592Y-52335063D01*
X124861034Y-52350500D01*
X124919999Y-52355659D01*
X124920000Y-52355659D01*
X124920001Y-52355659D01*
X124978966Y-52350500D01*
X125155408Y-52335063D01*
X125383663Y-52273903D01*
X125597830Y-52174035D01*
X125791401Y-52038495D01*
X125958495Y-51871401D01*
X126088425Y-51685842D01*
X126143002Y-51642217D01*
X126212500Y-51635023D01*
X126274855Y-51666546D01*
X126291575Y-51685842D01*
X126421500Y-51871395D01*
X126421505Y-51871401D01*
X126588599Y-52038495D01*
X126685384Y-52106265D01*
X126782165Y-52174032D01*
X126782167Y-52174033D01*
X126782170Y-52174035D01*
X126996337Y-52273903D01*
X127224592Y-52335063D01*
X127401034Y-52350500D01*
X127459999Y-52355659D01*
X127460000Y-52355659D01*
X127460001Y-52355659D01*
X127518966Y-52350500D01*
X127695408Y-52335063D01*
X127923663Y-52273903D01*
X128137830Y-52174035D01*
X128331401Y-52038495D01*
X128498495Y-51871401D01*
X128628425Y-51685842D01*
X128683002Y-51642217D01*
X128752500Y-51635023D01*
X128814855Y-51666546D01*
X128831575Y-51685842D01*
X128961500Y-51871395D01*
X128961505Y-51871401D01*
X129128599Y-52038495D01*
X129225384Y-52106265D01*
X129322165Y-52174032D01*
X129322167Y-52174033D01*
X129322170Y-52174035D01*
X129536337Y-52273903D01*
X129764592Y-52335063D01*
X129941034Y-52350500D01*
X129999999Y-52355659D01*
X130000000Y-52355659D01*
X130000001Y-52355659D01*
X130058966Y-52350500D01*
X130235408Y-52335063D01*
X130463663Y-52273903D01*
X130677830Y-52174035D01*
X130871401Y-52038495D01*
X130993329Y-51916566D01*
X131054648Y-51883084D01*
X131124340Y-51888068D01*
X131180274Y-51929939D01*
X131197189Y-51960917D01*
X131246202Y-52092328D01*
X131246206Y-52092335D01*
X131332452Y-52207544D01*
X131332455Y-52207547D01*
X131447664Y-52293793D01*
X131447671Y-52293797D01*
X131582517Y-52344091D01*
X131582516Y-52344091D01*
X131589444Y-52344835D01*
X131642127Y-52350500D01*
X133437872Y-52350499D01*
X133497483Y-52344091D01*
X133632331Y-52293796D01*
X133747546Y-52207546D01*
X133833796Y-52092331D01*
X133884091Y-51957483D01*
X133890500Y-51897873D01*
X133890499Y-50102128D01*
X133884091Y-50042517D01*
X133882810Y-50039083D01*
X133833797Y-49907671D01*
X133833793Y-49907664D01*
X133747547Y-49792455D01*
X133747544Y-49792452D01*
X133632335Y-49706206D01*
X133632328Y-49706202D01*
X133497482Y-49655908D01*
X133497483Y-49655908D01*
X133437883Y-49649501D01*
X133437881Y-49649500D01*
X133437873Y-49649500D01*
X133437864Y-49649500D01*
X131642129Y-49649500D01*
X131642123Y-49649501D01*
X131582516Y-49655908D01*
X131447671Y-49706202D01*
X131447664Y-49706206D01*
X131332455Y-49792452D01*
X131332452Y-49792455D01*
X131246206Y-49907664D01*
X131246203Y-49907669D01*
X131197189Y-50039083D01*
X131155317Y-50095016D01*
X131089853Y-50119433D01*
X131021580Y-50104581D01*
X130993326Y-50083430D01*
X130871402Y-49961506D01*
X130871395Y-49961501D01*
X130863377Y-49955887D01*
X130794518Y-49907671D01*
X130677834Y-49825967D01*
X130677830Y-49825965D01*
X130677828Y-49825964D01*
X130463663Y-49726097D01*
X130463659Y-49726096D01*
X130463655Y-49726094D01*
X130235413Y-49664938D01*
X130235403Y-49664936D01*
X130000001Y-49644341D01*
X129999999Y-49644341D01*
X129764596Y-49664936D01*
X129764586Y-49664938D01*
X129536344Y-49726094D01*
X129536335Y-49726098D01*
X129322171Y-49825964D01*
X129322169Y-49825965D01*
X129128597Y-49961505D01*
X128961505Y-50128597D01*
X128831575Y-50314158D01*
X128776998Y-50357783D01*
X128707500Y-50364977D01*
X128645145Y-50333454D01*
X128628425Y-50314158D01*
X128498494Y-50128597D01*
X128331402Y-49961506D01*
X128331395Y-49961501D01*
X128323377Y-49955887D01*
X128254518Y-49907671D01*
X128137834Y-49825967D01*
X128137830Y-49825965D01*
X128137828Y-49825964D01*
X127923663Y-49726097D01*
X127923659Y-49726096D01*
X127923655Y-49726094D01*
X127695413Y-49664938D01*
X127695403Y-49664936D01*
X127460001Y-49644341D01*
X127459999Y-49644341D01*
X127224596Y-49664936D01*
X127224586Y-49664938D01*
X126996344Y-49726094D01*
X126996335Y-49726098D01*
X126782171Y-49825964D01*
X126782169Y-49825965D01*
X126588597Y-49961505D01*
X126421505Y-50128597D01*
X126291575Y-50314158D01*
X126236998Y-50357783D01*
X126167500Y-50364977D01*
X126105145Y-50333454D01*
X126088425Y-50314158D01*
X125958494Y-50128597D01*
X125791402Y-49961506D01*
X125791395Y-49961501D01*
X125783377Y-49955887D01*
X125714518Y-49907671D01*
X125597834Y-49825967D01*
X125597830Y-49825965D01*
X125597828Y-49825964D01*
X125383663Y-49726097D01*
X125383659Y-49726096D01*
X125383655Y-49726094D01*
X125155413Y-49664938D01*
X125155403Y-49664936D01*
X124920001Y-49644341D01*
X124919999Y-49644341D01*
X124684596Y-49664936D01*
X124684586Y-49664938D01*
X124456344Y-49726094D01*
X124456335Y-49726098D01*
X124242171Y-49825964D01*
X124242169Y-49825965D01*
X124048597Y-49961505D01*
X123881505Y-50128597D01*
X123751575Y-50314158D01*
X123696998Y-50357783D01*
X123627500Y-50364977D01*
X123565145Y-50333454D01*
X123548425Y-50314158D01*
X123418494Y-50128597D01*
X123251402Y-49961506D01*
X123251395Y-49961501D01*
X123243377Y-49955887D01*
X123174518Y-49907671D01*
X123057834Y-49825967D01*
X123057830Y-49825965D01*
X123057828Y-49825964D01*
X122843663Y-49726097D01*
X122843659Y-49726096D01*
X122843655Y-49726094D01*
X122615413Y-49664938D01*
X122615403Y-49664936D01*
X122380001Y-49644341D01*
X122379999Y-49644341D01*
X122144596Y-49664936D01*
X122144586Y-49664938D01*
X121916344Y-49726094D01*
X121916335Y-49726098D01*
X121702171Y-49825964D01*
X121702169Y-49825965D01*
X121508597Y-49961505D01*
X121341505Y-50128597D01*
X121211575Y-50314158D01*
X121156998Y-50357783D01*
X121087500Y-50364977D01*
X121025145Y-50333454D01*
X121008425Y-50314158D01*
X120878494Y-50128597D01*
X120711402Y-49961506D01*
X120711395Y-49961501D01*
X120703377Y-49955887D01*
X120634518Y-49907671D01*
X120517834Y-49825967D01*
X120517830Y-49825965D01*
X120517828Y-49825964D01*
X120303663Y-49726097D01*
X120303659Y-49726096D01*
X120303655Y-49726094D01*
X120075413Y-49664938D01*
X120075403Y-49664936D01*
X119840001Y-49644341D01*
X119839999Y-49644341D01*
X119604596Y-49664936D01*
X119604586Y-49664938D01*
X119376344Y-49726094D01*
X119376335Y-49726098D01*
X119162171Y-49825964D01*
X119162169Y-49825965D01*
X118968597Y-49961505D01*
X118801505Y-50128597D01*
X118665965Y-50322169D01*
X118665964Y-50322171D01*
X118566098Y-50536335D01*
X118566094Y-50536344D01*
X118504938Y-50764586D01*
X118504936Y-50764596D01*
X118484341Y-50999999D01*
X79828657Y-50999999D01*
X78784546Y-49955888D01*
X78784545Y-49955887D01*
X78669807Y-49879222D01*
X78542332Y-49826421D01*
X78542322Y-49826418D01*
X78406996Y-49799500D01*
X78406994Y-49799500D01*
X78406993Y-49799500D01*
X71318645Y-49799500D01*
X71251606Y-49779815D01*
X71212918Y-49740290D01*
X71118262Y-49585825D01*
X71118261Y-49585823D01*
X71082453Y-49543897D01*
X70959759Y-49400241D01*
X70774179Y-49241741D01*
X70719561Y-49208271D01*
X70696674Y-49190227D01*
X70030234Y-48523787D01*
X70072292Y-48512518D01*
X70197708Y-48440110D01*
X70300110Y-48337708D01*
X70372518Y-48212292D01*
X70383787Y-48170235D01*
X71121494Y-48907942D01*
X71245331Y-48705861D01*
X71338696Y-48480457D01*
X71395651Y-48243219D01*
X71414792Y-48000000D01*
X71395651Y-47756780D01*
X71338696Y-47519542D01*
X71245331Y-47294138D01*
X71121494Y-47092056D01*
X70383787Y-47829764D01*
X70372518Y-47787708D01*
X70300110Y-47662292D01*
X70197708Y-47559890D01*
X70072292Y-47487482D01*
X70030233Y-47476212D01*
X70767942Y-46738504D01*
X70565861Y-46614668D01*
X70340457Y-46521303D01*
X70103219Y-46464348D01*
X70103220Y-46464348D01*
X69860000Y-46445207D01*
X69616780Y-46464348D01*
X69379542Y-46521303D01*
X69154146Y-46614665D01*
X69154141Y-46614668D01*
X68952056Y-46738504D01*
X69689765Y-47476212D01*
X69647708Y-47487482D01*
X69522292Y-47559890D01*
X69419890Y-47662292D01*
X69347482Y-47787708D01*
X69336212Y-47829765D01*
X68598504Y-47092056D01*
X68474668Y-47294141D01*
X68474665Y-47294146D01*
X68381303Y-47519542D01*
X68324348Y-47756780D01*
X68305207Y-48000000D01*
X68324348Y-48243219D01*
X68381303Y-48480457D01*
X68474668Y-48705861D01*
X68598504Y-48907942D01*
X69336212Y-48170234D01*
X69347482Y-48212292D01*
X69419890Y-48337708D01*
X69522292Y-48440110D01*
X69647708Y-48512518D01*
X69689765Y-48523787D01*
X69023325Y-49190226D01*
X69000436Y-49208271D01*
X68945827Y-49241736D01*
X68945818Y-49241743D01*
X68760241Y-49400241D01*
X68601738Y-49585823D01*
X68601737Y-49585826D01*
X68474222Y-49793910D01*
X68380830Y-50019380D01*
X68323853Y-50256702D01*
X68304706Y-50500000D01*
X65000500Y-50500000D01*
X65000500Y-43210677D01*
X65020185Y-43143638D01*
X65072989Y-43097883D01*
X65142147Y-43087939D01*
X65205703Y-43116964D01*
X65236220Y-43156875D01*
X65282092Y-43252130D01*
X65467371Y-43546999D01*
X65467372Y-43547001D01*
X65684487Y-43819256D01*
X65930743Y-44065512D01*
X66202998Y-44282627D01*
X66203001Y-44282628D01*
X66203003Y-44282630D01*
X66497867Y-44467906D01*
X66811621Y-44619002D01*
X67058488Y-44705384D01*
X67140307Y-44734014D01*
X67140315Y-44734017D01*
X67140318Y-44734017D01*
X67140319Y-44734018D01*
X67479829Y-44811509D01*
X67825876Y-44850499D01*
X67825877Y-44850500D01*
X67825880Y-44850500D01*
X68174123Y-44850500D01*
X68174123Y-44850499D01*
X68520171Y-44811509D01*
X68859681Y-44734018D01*
X69188379Y-44619002D01*
X69502133Y-44467906D01*
X69796997Y-44282630D01*
X69953758Y-44157618D01*
X70069256Y-44065512D01*
X70069258Y-44065509D01*
X70069263Y-44065506D01*
X70315506Y-43819263D01*
X70412061Y-43698187D01*
X70532627Y-43547001D01*
X70532628Y-43546999D01*
X70532630Y-43546997D01*
X70717906Y-43252133D01*
X70839327Y-42999999D01*
X81001179Y-42999999D01*
X81001179Y-43000000D01*
X81020424Y-43219976D01*
X81020426Y-43219986D01*
X81077575Y-43433270D01*
X81077580Y-43433284D01*
X81170898Y-43633405D01*
X81170901Y-43633411D01*
X81216258Y-43698187D01*
X81216258Y-43698188D01*
X81825861Y-43088584D01*
X81848667Y-43173694D01*
X81907910Y-43276306D01*
X81991694Y-43360090D01*
X82094306Y-43419333D01*
X82179414Y-43442137D01*
X81569810Y-44051740D01*
X81634589Y-44097098D01*
X81764373Y-44157618D01*
X81816812Y-44203790D01*
X81835964Y-44270984D01*
X81815748Y-44337865D01*
X81764373Y-44382382D01*
X81634590Y-44442901D01*
X81569811Y-44488258D01*
X82179415Y-45097861D01*
X82094306Y-45120667D01*
X81991694Y-45179910D01*
X81907910Y-45263694D01*
X81848667Y-45366306D01*
X81825861Y-45451414D01*
X81216258Y-44841811D01*
X81170901Y-44906590D01*
X81077579Y-45106720D01*
X81077575Y-45106729D01*
X81020426Y-45320013D01*
X81020424Y-45320023D01*
X81001179Y-45539999D01*
X81001179Y-45540000D01*
X81020424Y-45759976D01*
X81020426Y-45759986D01*
X81077575Y-45973270D01*
X81077580Y-45973284D01*
X81170898Y-46173405D01*
X81170901Y-46173411D01*
X81216258Y-46238187D01*
X81216258Y-46238188D01*
X81825861Y-45628584D01*
X81848667Y-45713694D01*
X81907910Y-45816306D01*
X81991694Y-45900090D01*
X82094306Y-45959333D01*
X82179414Y-45982137D01*
X81569810Y-46591740D01*
X81634590Y-46637099D01*
X81634592Y-46637100D01*
X81834715Y-46730419D01*
X81834729Y-46730424D01*
X82048013Y-46787573D01*
X82048023Y-46787575D01*
X82267999Y-46806821D01*
X82268001Y-46806821D01*
X82487976Y-46787575D01*
X82487986Y-46787573D01*
X82701270Y-46730424D01*
X82701284Y-46730419D01*
X82901407Y-46637100D01*
X82901417Y-46637094D01*
X82966188Y-46591741D01*
X82356585Y-45982137D01*
X82441694Y-45959333D01*
X82544306Y-45900090D01*
X82628090Y-45816306D01*
X82687333Y-45713694D01*
X82710138Y-45628585D01*
X83319741Y-46238188D01*
X83365094Y-46173417D01*
X83365100Y-46173407D01*
X83458419Y-45973284D01*
X83458424Y-45973270D01*
X83515573Y-45759986D01*
X83515575Y-45759976D01*
X83534821Y-45540000D01*
X83534821Y-45539999D01*
X83515575Y-45320023D01*
X83515573Y-45320013D01*
X83458424Y-45106729D01*
X83458420Y-45106720D01*
X83365096Y-44906586D01*
X83319741Y-44841811D01*
X83319740Y-44841810D01*
X82710137Y-45451413D01*
X82687333Y-45366306D01*
X82628090Y-45263694D01*
X82544306Y-45179910D01*
X82441694Y-45120667D01*
X82356584Y-45097861D01*
X82966188Y-44488258D01*
X82901411Y-44442901D01*
X82901405Y-44442898D01*
X82771627Y-44382382D01*
X82719187Y-44336210D01*
X82700035Y-44269017D01*
X82720251Y-44202135D01*
X82771627Y-44157618D01*
X82901407Y-44097100D01*
X82901417Y-44097094D01*
X82966188Y-44051741D01*
X82356585Y-43442137D01*
X82441694Y-43419333D01*
X82544306Y-43360090D01*
X82628090Y-43276306D01*
X82687333Y-43173694D01*
X82710138Y-43088585D01*
X83319741Y-43698188D01*
X83365094Y-43633417D01*
X83365100Y-43633407D01*
X83458419Y-43433284D01*
X83458424Y-43433270D01*
X83515573Y-43219986D01*
X83515575Y-43219976D01*
X83534821Y-43000000D01*
X83534821Y-42999999D01*
X100001179Y-42999999D01*
X100001179Y-43000000D01*
X100020424Y-43219976D01*
X100020426Y-43219986D01*
X100077575Y-43433270D01*
X100077580Y-43433284D01*
X100170898Y-43633405D01*
X100170901Y-43633411D01*
X100216258Y-43698187D01*
X100216258Y-43698188D01*
X100887000Y-43027446D01*
X100887000Y-43050160D01*
X100912964Y-43147061D01*
X100963124Y-43233940D01*
X101034060Y-43304876D01*
X101120939Y-43355036D01*
X101217840Y-43381000D01*
X101240553Y-43381000D01*
X100569810Y-44051740D01*
X100634589Y-44097098D01*
X100764373Y-44157618D01*
X100816812Y-44203790D01*
X100835964Y-44270984D01*
X100815748Y-44337865D01*
X100764373Y-44382382D01*
X100634590Y-44442901D01*
X100569811Y-44488258D01*
X101240554Y-45159000D01*
X101217840Y-45159000D01*
X101120939Y-45184964D01*
X101034060Y-45235124D01*
X100963124Y-45306060D01*
X100912964Y-45392939D01*
X100887000Y-45489840D01*
X100887000Y-45512553D01*
X100216258Y-44841811D01*
X100170901Y-44906590D01*
X100077579Y-45106720D01*
X100077575Y-45106729D01*
X100020426Y-45320013D01*
X100020424Y-45320023D01*
X100001179Y-45539999D01*
X100001179Y-45540000D01*
X100020424Y-45759976D01*
X100020426Y-45759986D01*
X100077575Y-45973270D01*
X100077580Y-45973284D01*
X100170898Y-46173405D01*
X100170901Y-46173411D01*
X100216258Y-46238187D01*
X100216258Y-46238188D01*
X100887000Y-45567446D01*
X100887000Y-45590160D01*
X100912964Y-45687061D01*
X100963124Y-45773940D01*
X101034060Y-45844876D01*
X101120939Y-45895036D01*
X101217840Y-45921000D01*
X101240553Y-45921000D01*
X100569810Y-46591740D01*
X100634590Y-46637099D01*
X100634592Y-46637100D01*
X100834715Y-46730419D01*
X100834729Y-46730424D01*
X101048013Y-46787573D01*
X101048023Y-46787575D01*
X101267999Y-46806821D01*
X101268001Y-46806821D01*
X101487976Y-46787575D01*
X101487986Y-46787573D01*
X101701270Y-46730424D01*
X101701284Y-46730419D01*
X101901407Y-46637100D01*
X101901417Y-46637094D01*
X101966188Y-46591741D01*
X101295448Y-45921000D01*
X101318160Y-45921000D01*
X101415061Y-45895036D01*
X101501940Y-45844876D01*
X101572876Y-45773940D01*
X101623036Y-45687061D01*
X101649000Y-45590160D01*
X101649000Y-45567447D01*
X102319741Y-46238188D01*
X102365094Y-46173417D01*
X102365100Y-46173407D01*
X102458419Y-45973284D01*
X102458424Y-45973270D01*
X102515573Y-45759986D01*
X102515575Y-45759976D01*
X102534821Y-45540000D01*
X102534821Y-45539999D01*
X102515575Y-45320023D01*
X102515573Y-45320013D01*
X102458424Y-45106729D01*
X102458420Y-45106720D01*
X102365096Y-44906586D01*
X102319741Y-44841811D01*
X102319740Y-44841810D01*
X101649000Y-45512551D01*
X101649000Y-45489840D01*
X101623036Y-45392939D01*
X101572876Y-45306060D01*
X101501940Y-45235124D01*
X101415061Y-45184964D01*
X101318160Y-45159000D01*
X101295447Y-45159000D01*
X101966188Y-44488258D01*
X101901411Y-44442901D01*
X101901405Y-44442898D01*
X101771627Y-44382382D01*
X101719187Y-44336210D01*
X101700035Y-44269017D01*
X101720251Y-44202135D01*
X101771627Y-44157618D01*
X101901407Y-44097100D01*
X101901417Y-44097094D01*
X101966188Y-44051741D01*
X101295448Y-43381000D01*
X101318160Y-43381000D01*
X101415061Y-43355036D01*
X101501940Y-43304876D01*
X101572876Y-43233940D01*
X101623036Y-43147061D01*
X101649000Y-43050160D01*
X101649000Y-43027447D01*
X102319741Y-43698188D01*
X102365094Y-43633417D01*
X102365100Y-43633407D01*
X102458419Y-43433284D01*
X102458424Y-43433270D01*
X102515573Y-43219986D01*
X102515575Y-43219976D01*
X102534821Y-43000000D01*
X102534821Y-42999999D01*
X102515575Y-42780023D01*
X102515573Y-42780013D01*
X102458424Y-42566729D01*
X102458420Y-42566720D01*
X102365096Y-42366586D01*
X102319741Y-42301811D01*
X102319740Y-42301810D01*
X101649000Y-42972551D01*
X101649000Y-42949840D01*
X101623036Y-42852939D01*
X101572876Y-42766060D01*
X101501940Y-42695124D01*
X101415061Y-42644964D01*
X101318160Y-42619000D01*
X101295447Y-42619000D01*
X101966188Y-41948258D01*
X101901411Y-41902901D01*
X101901405Y-41902898D01*
X101701284Y-41809580D01*
X101701270Y-41809575D01*
X101487986Y-41752426D01*
X101487976Y-41752424D01*
X101268001Y-41733179D01*
X101267999Y-41733179D01*
X101048023Y-41752424D01*
X101048013Y-41752426D01*
X100834729Y-41809575D01*
X100834720Y-41809579D01*
X100634590Y-41902901D01*
X100569811Y-41948258D01*
X101240554Y-42619000D01*
X101217840Y-42619000D01*
X101120939Y-42644964D01*
X101034060Y-42695124D01*
X100963124Y-42766060D01*
X100912964Y-42852939D01*
X100887000Y-42949840D01*
X100887000Y-42972553D01*
X100216258Y-42301811D01*
X100170901Y-42366590D01*
X100077579Y-42566720D01*
X100077575Y-42566729D01*
X100020426Y-42780013D01*
X100020424Y-42780023D01*
X100001179Y-42999999D01*
X83534821Y-42999999D01*
X83515575Y-42780023D01*
X83515573Y-42780013D01*
X83458424Y-42566729D01*
X83458420Y-42566720D01*
X83365096Y-42366586D01*
X83319741Y-42301811D01*
X83319740Y-42301810D01*
X82710137Y-42911413D01*
X82687333Y-42826306D01*
X82628090Y-42723694D01*
X82544306Y-42639910D01*
X82441694Y-42580667D01*
X82356584Y-42557861D01*
X82966188Y-41948258D01*
X82901411Y-41902901D01*
X82901405Y-41902898D01*
X82701284Y-41809580D01*
X82701270Y-41809575D01*
X82487986Y-41752426D01*
X82487976Y-41752424D01*
X82268001Y-41733179D01*
X82267999Y-41733179D01*
X82048023Y-41752424D01*
X82048013Y-41752426D01*
X81834729Y-41809575D01*
X81834720Y-41809579D01*
X81634590Y-41902901D01*
X81569811Y-41948258D01*
X82179415Y-42557861D01*
X82094306Y-42580667D01*
X81991694Y-42639910D01*
X81907910Y-42723694D01*
X81848667Y-42826306D01*
X81825861Y-42911414D01*
X81216258Y-42301811D01*
X81170901Y-42366590D01*
X81077579Y-42566720D01*
X81077575Y-42566729D01*
X81020426Y-42780013D01*
X81020424Y-42780023D01*
X81001179Y-42999999D01*
X70839327Y-42999999D01*
X70869002Y-42938379D01*
X70984018Y-42609681D01*
X71061509Y-42270171D01*
X71100500Y-41924120D01*
X71100500Y-41575880D01*
X71061509Y-41229829D01*
X70984018Y-40890319D01*
X70869002Y-40561621D01*
X70717906Y-40247867D01*
X70532630Y-39953003D01*
X70532628Y-39953000D01*
X70532627Y-39952998D01*
X70315512Y-39680743D01*
X70069256Y-39434487D01*
X69797001Y-39217372D01*
X69796999Y-39217371D01*
X69502130Y-39032092D01*
X69188390Y-38881003D01*
X69188387Y-38881002D01*
X69188379Y-38880998D01*
X69075614Y-38841540D01*
X69018841Y-38800820D01*
X68993094Y-38735867D01*
X69006550Y-38667305D01*
X69054938Y-38616903D01*
X69116572Y-38600500D01*
X136883428Y-38600500D01*
X136950467Y-38620185D01*
G37*
G04 #@! TD.AperFunction*
M02*
