G04 #@! TF.GenerationSoftware,KiCad,Pcbnew,8.0.8*
G04 #@! TF.CreationDate,2025-01-15T16:32:18-08:00*
G04 #@! TF.ProjectId,bentroller,62656e74-726f-46c6-9c65-722e6b696361,rev?*
G04 #@! TF.SameCoordinates,Original*
G04 #@! TF.FileFunction,Legend,Bot*
G04 #@! TF.FilePolarity,Positive*
%FSLAX46Y46*%
G04 Gerber Fmt 4.6, Leading zero omitted, Abs format (unit mm)*
G04 Created by KiCad (PCBNEW 8.0.8) date 2025-01-15 16:32:18*
%MOMM*%
%LPD*%
G01*
G04 APERTURE LIST*
%ADD10R,1.700000X1.700000*%
%ADD11O,1.700000X1.700000*%
%ADD12C,2.100000*%
%ADD13C,4.200000*%
%ADD14C,1.524000*%
%ADD15R,1.524000X1.524000*%
%ADD16R,2.200000X2.200000*%
%ADD17O,2.200000X2.200000*%
G04 APERTURE END LIST*
%LPC*%
D10*
X137500000Y-71540000D03*
D11*
X137500000Y-69000000D03*
X137500000Y-66460000D03*
X137500000Y-63920000D03*
X137500000Y-61380000D03*
X137500000Y-58840000D03*
X137500000Y-56300000D03*
D10*
X132540000Y-51000000D03*
D11*
X130000000Y-51000000D03*
X127460000Y-51000000D03*
X124920000Y-51000000D03*
X122380000Y-51000000D03*
X119840000Y-51000000D03*
D12*
X72440000Y-67395000D03*
X69940000Y-67395000D03*
X72440000Y-58995000D03*
X69940000Y-58995000D03*
X69860000Y-48000000D03*
X69860000Y-50500000D03*
D13*
X138000000Y-79750000D03*
X68000000Y-79750000D03*
X138000000Y-41750000D03*
X68000000Y-41750000D03*
D14*
X117760000Y-73740000D03*
X117760000Y-71200000D03*
X117760000Y-76280000D03*
X117760000Y-68660000D03*
X117760000Y-66120000D03*
X117760000Y-63580000D03*
X117760000Y-61040000D03*
X117760000Y-58500000D03*
X133000000Y-58500000D03*
X133000000Y-61040000D03*
X133000000Y-63580000D03*
X133000000Y-66120000D03*
X133000000Y-68660000D03*
X133000000Y-71200000D03*
X133000000Y-73740000D03*
D15*
X133000000Y-76280000D03*
D14*
X83600000Y-72970000D03*
X83600000Y-69470000D03*
X83600000Y-65970000D03*
X112100000Y-70740000D03*
D15*
X112100000Y-68200000D03*
X82268000Y-56970000D03*
D14*
X82268000Y-54430000D03*
X82268000Y-45540000D03*
X82268000Y-43000000D03*
X101268000Y-56970000D03*
X101268000Y-54430000D03*
X101268000Y-45540000D03*
X101268000Y-43000000D03*
D16*
X68090000Y-74750000D03*
D17*
X78250000Y-74750000D03*
%LPD*%
M02*
