%TF.GenerationSoftware,KiCad,Pcbnew,8.0.8*%
%TF.CreationDate,2025-01-15T16:31:18-08:00*%
%TF.ProjectId,bentroller,62656e74-726f-46c6-9c65-722e6b696361,rev?*%
%TF.SameCoordinates,Original*%
%TF.FileFunction,Drillmap*%
%TF.FilePolarity,Positive*%
%FSLAX45Y45*%
G04 Gerber Fmt 4.5, Leading zero omitted, Abs format (unit mm)*
G04 Created by KiCad (PCBNEW 8.0.8) date 2025-01-15 16:31:18*
%MOMM*%
%LPD*%
G01*
G04 APERTURE LIST*
%ADD10C,0.038100*%
%ADD11C,0.200000*%
%ADD12C,0.220000*%
G04 APERTURE END LIST*
D10*
X6450000Y-3810000D02*
X14150000Y-3810000D01*
X14150000Y-8310000D01*
X6450000Y-8310000D01*
X6450000Y-3810000D01*
D11*
D12*
X6690000Y-4065000D02*
X6910000Y-4285000D01*
X6910000Y-4065000D02*
X6690000Y-4285000D01*
X6690000Y-7865000D02*
X6910000Y-8085000D01*
X6910000Y-7865000D02*
X6690000Y-8085000D01*
X13690000Y-4065000D02*
X13910000Y-4285000D01*
X13910000Y-4065000D02*
X13690000Y-4285000D01*
X13690000Y-7865000D02*
X13910000Y-8085000D01*
X13910000Y-7865000D02*
X13690000Y-8085000D01*
D11*
X6708872Y-8623389D02*
X6708872Y-8423389D01*
X6708872Y-8423389D02*
X6756491Y-8423389D01*
X6756491Y-8423389D02*
X6785062Y-8432913D01*
X6785062Y-8432913D02*
X6804110Y-8451960D01*
X6804110Y-8451960D02*
X6813634Y-8471008D01*
X6813634Y-8471008D02*
X6823157Y-8509103D01*
X6823157Y-8509103D02*
X6823157Y-8537675D01*
X6823157Y-8537675D02*
X6813634Y-8575770D01*
X6813634Y-8575770D02*
X6804110Y-8594817D01*
X6804110Y-8594817D02*
X6785062Y-8613865D01*
X6785062Y-8613865D02*
X6756491Y-8623389D01*
X6756491Y-8623389D02*
X6708872Y-8623389D01*
X6908872Y-8623389D02*
X6908872Y-8490055D01*
X6908872Y-8528151D02*
X6918396Y-8509103D01*
X6918396Y-8509103D02*
X6927919Y-8499579D01*
X6927919Y-8499579D02*
X6946967Y-8490055D01*
X6946967Y-8490055D02*
X6966015Y-8490055D01*
X7032681Y-8623389D02*
X7032681Y-8490055D01*
X7032681Y-8423389D02*
X7023157Y-8432913D01*
X7023157Y-8432913D02*
X7032681Y-8442436D01*
X7032681Y-8442436D02*
X7042205Y-8432913D01*
X7042205Y-8432913D02*
X7032681Y-8423389D01*
X7032681Y-8423389D02*
X7032681Y-8442436D01*
X7156491Y-8623389D02*
X7137443Y-8613865D01*
X7137443Y-8613865D02*
X7127919Y-8594817D01*
X7127919Y-8594817D02*
X7127919Y-8423389D01*
X7261253Y-8623389D02*
X7242205Y-8613865D01*
X7242205Y-8613865D02*
X7232681Y-8594817D01*
X7232681Y-8594817D02*
X7232681Y-8423389D01*
X7489824Y-8623389D02*
X7489824Y-8423389D01*
X7489824Y-8423389D02*
X7556491Y-8566246D01*
X7556491Y-8566246D02*
X7623157Y-8423389D01*
X7623157Y-8423389D02*
X7623157Y-8623389D01*
X7804110Y-8623389D02*
X7804110Y-8518627D01*
X7804110Y-8518627D02*
X7794586Y-8499579D01*
X7794586Y-8499579D02*
X7775538Y-8490055D01*
X7775538Y-8490055D02*
X7737443Y-8490055D01*
X7737443Y-8490055D02*
X7718396Y-8499579D01*
X7804110Y-8613865D02*
X7785062Y-8623389D01*
X7785062Y-8623389D02*
X7737443Y-8623389D01*
X7737443Y-8623389D02*
X7718396Y-8613865D01*
X7718396Y-8613865D02*
X7708872Y-8594817D01*
X7708872Y-8594817D02*
X7708872Y-8575770D01*
X7708872Y-8575770D02*
X7718396Y-8556722D01*
X7718396Y-8556722D02*
X7737443Y-8547198D01*
X7737443Y-8547198D02*
X7785062Y-8547198D01*
X7785062Y-8547198D02*
X7804110Y-8537675D01*
X7899348Y-8490055D02*
X7899348Y-8690055D01*
X7899348Y-8499579D02*
X7918396Y-8490055D01*
X7918396Y-8490055D02*
X7956491Y-8490055D01*
X7956491Y-8490055D02*
X7975538Y-8499579D01*
X7975538Y-8499579D02*
X7985062Y-8509103D01*
X7985062Y-8509103D02*
X7994586Y-8528151D01*
X7994586Y-8528151D02*
X7994586Y-8585294D01*
X7994586Y-8585294D02*
X7985062Y-8604341D01*
X7985062Y-8604341D02*
X7975538Y-8613865D01*
X7975538Y-8613865D02*
X7956491Y-8623389D01*
X7956491Y-8623389D02*
X7918396Y-8623389D01*
X7918396Y-8623389D02*
X7899348Y-8613865D01*
X8080300Y-8604341D02*
X8089824Y-8613865D01*
X8089824Y-8613865D02*
X8080300Y-8623389D01*
X8080300Y-8623389D02*
X8070777Y-8613865D01*
X8070777Y-8613865D02*
X8080300Y-8604341D01*
X8080300Y-8604341D02*
X8080300Y-8623389D01*
X8080300Y-8499579D02*
X8089824Y-8509103D01*
X8089824Y-8509103D02*
X8080300Y-8518627D01*
X8080300Y-8518627D02*
X8070777Y-8509103D01*
X8070777Y-8509103D02*
X8080300Y-8499579D01*
X8080300Y-8499579D02*
X8080300Y-8518627D01*
X6248095Y-8851905D02*
X6448095Y-9051905D01*
X6448095Y-8851905D02*
X6248095Y-9051905D01*
X6699348Y-8862436D02*
X6708872Y-8852913D01*
X6708872Y-8852913D02*
X6727919Y-8843389D01*
X6727919Y-8843389D02*
X6775538Y-8843389D01*
X6775538Y-8843389D02*
X6794586Y-8852913D01*
X6794586Y-8852913D02*
X6804110Y-8862436D01*
X6804110Y-8862436D02*
X6813634Y-8881484D01*
X6813634Y-8881484D02*
X6813634Y-8900532D01*
X6813634Y-8900532D02*
X6804110Y-8929103D01*
X6804110Y-8929103D02*
X6689824Y-9043389D01*
X6689824Y-9043389D02*
X6813634Y-9043389D01*
X6899348Y-9024341D02*
X6908872Y-9033865D01*
X6908872Y-9033865D02*
X6899348Y-9043389D01*
X6899348Y-9043389D02*
X6889824Y-9033865D01*
X6889824Y-9033865D02*
X6899348Y-9024341D01*
X6899348Y-9024341D02*
X6899348Y-9043389D01*
X6985062Y-8862436D02*
X6994586Y-8852913D01*
X6994586Y-8852913D02*
X7013634Y-8843389D01*
X7013634Y-8843389D02*
X7061253Y-8843389D01*
X7061253Y-8843389D02*
X7080300Y-8852913D01*
X7080300Y-8852913D02*
X7089824Y-8862436D01*
X7089824Y-8862436D02*
X7099348Y-8881484D01*
X7099348Y-8881484D02*
X7099348Y-8900532D01*
X7099348Y-8900532D02*
X7089824Y-8929103D01*
X7089824Y-8929103D02*
X6975538Y-9043389D01*
X6975538Y-9043389D02*
X7099348Y-9043389D01*
X7223157Y-8843389D02*
X7242205Y-8843389D01*
X7242205Y-8843389D02*
X7261253Y-8852913D01*
X7261253Y-8852913D02*
X7270777Y-8862436D01*
X7270777Y-8862436D02*
X7280300Y-8881484D01*
X7280300Y-8881484D02*
X7289824Y-8919579D01*
X7289824Y-8919579D02*
X7289824Y-8967198D01*
X7289824Y-8967198D02*
X7280300Y-9005294D01*
X7280300Y-9005294D02*
X7270777Y-9024341D01*
X7270777Y-9024341D02*
X7261253Y-9033865D01*
X7261253Y-9033865D02*
X7242205Y-9043389D01*
X7242205Y-9043389D02*
X7223157Y-9043389D01*
X7223157Y-9043389D02*
X7204110Y-9033865D01*
X7204110Y-9033865D02*
X7194586Y-9024341D01*
X7194586Y-9024341D02*
X7185062Y-9005294D01*
X7185062Y-9005294D02*
X7175538Y-8967198D01*
X7175538Y-8967198D02*
X7175538Y-8919579D01*
X7175538Y-8919579D02*
X7185062Y-8881484D01*
X7185062Y-8881484D02*
X7194586Y-8862436D01*
X7194586Y-8862436D02*
X7204110Y-8852913D01*
X7204110Y-8852913D02*
X7223157Y-8843389D01*
X7413634Y-8843389D02*
X7432681Y-8843389D01*
X7432681Y-8843389D02*
X7451729Y-8852913D01*
X7451729Y-8852913D02*
X7461253Y-8862436D01*
X7461253Y-8862436D02*
X7470777Y-8881484D01*
X7470777Y-8881484D02*
X7480300Y-8919579D01*
X7480300Y-8919579D02*
X7480300Y-8967198D01*
X7480300Y-8967198D02*
X7470777Y-9005294D01*
X7470777Y-9005294D02*
X7461253Y-9024341D01*
X7461253Y-9024341D02*
X7451729Y-9033865D01*
X7451729Y-9033865D02*
X7432681Y-9043389D01*
X7432681Y-9043389D02*
X7413634Y-9043389D01*
X7413634Y-9043389D02*
X7394586Y-9033865D01*
X7394586Y-9033865D02*
X7385062Y-9024341D01*
X7385062Y-9024341D02*
X7375538Y-9005294D01*
X7375538Y-9005294D02*
X7366015Y-8967198D01*
X7366015Y-8967198D02*
X7366015Y-8919579D01*
X7366015Y-8919579D02*
X7375538Y-8881484D01*
X7375538Y-8881484D02*
X7385062Y-8862436D01*
X7385062Y-8862436D02*
X7394586Y-8852913D01*
X7394586Y-8852913D02*
X7413634Y-8843389D01*
X7566015Y-9043389D02*
X7566015Y-8910055D01*
X7566015Y-8929103D02*
X7575538Y-8919579D01*
X7575538Y-8919579D02*
X7594586Y-8910055D01*
X7594586Y-8910055D02*
X7623158Y-8910055D01*
X7623158Y-8910055D02*
X7642205Y-8919579D01*
X7642205Y-8919579D02*
X7651729Y-8938627D01*
X7651729Y-8938627D02*
X7651729Y-9043389D01*
X7651729Y-8938627D02*
X7661253Y-8919579D01*
X7661253Y-8919579D02*
X7680300Y-8910055D01*
X7680300Y-8910055D02*
X7708872Y-8910055D01*
X7708872Y-8910055D02*
X7727919Y-8919579D01*
X7727919Y-8919579D02*
X7737443Y-8938627D01*
X7737443Y-8938627D02*
X7737443Y-9043389D01*
X7832681Y-9043389D02*
X7832681Y-8910055D01*
X7832681Y-8929103D02*
X7842205Y-8919579D01*
X7842205Y-8919579D02*
X7861253Y-8910055D01*
X7861253Y-8910055D02*
X7889824Y-8910055D01*
X7889824Y-8910055D02*
X7908872Y-8919579D01*
X7908872Y-8919579D02*
X7918396Y-8938627D01*
X7918396Y-8938627D02*
X7918396Y-9043389D01*
X7918396Y-8938627D02*
X7927919Y-8919579D01*
X7927919Y-8919579D02*
X7946967Y-8910055D01*
X7946967Y-8910055D02*
X7975538Y-8910055D01*
X7975538Y-8910055D02*
X7994586Y-8919579D01*
X7994586Y-8919579D02*
X8004110Y-8938627D01*
X8004110Y-8938627D02*
X8004110Y-9043389D01*
X8394586Y-8833865D02*
X8223158Y-9091008D01*
X8651729Y-8843389D02*
X8670777Y-8843389D01*
X8670777Y-8843389D02*
X8689824Y-8852913D01*
X8689824Y-8852913D02*
X8699348Y-8862436D01*
X8699348Y-8862436D02*
X8708872Y-8881484D01*
X8708872Y-8881484D02*
X8718396Y-8919579D01*
X8718396Y-8919579D02*
X8718396Y-8967198D01*
X8718396Y-8967198D02*
X8708872Y-9005294D01*
X8708872Y-9005294D02*
X8699348Y-9024341D01*
X8699348Y-9024341D02*
X8689824Y-9033865D01*
X8689824Y-9033865D02*
X8670777Y-9043389D01*
X8670777Y-9043389D02*
X8651729Y-9043389D01*
X8651729Y-9043389D02*
X8632682Y-9033865D01*
X8632682Y-9033865D02*
X8623158Y-9024341D01*
X8623158Y-9024341D02*
X8613634Y-9005294D01*
X8613634Y-9005294D02*
X8604110Y-8967198D01*
X8604110Y-8967198D02*
X8604110Y-8919579D01*
X8604110Y-8919579D02*
X8613634Y-8881484D01*
X8613634Y-8881484D02*
X8623158Y-8862436D01*
X8623158Y-8862436D02*
X8632682Y-8852913D01*
X8632682Y-8852913D02*
X8651729Y-8843389D01*
X8804110Y-9024341D02*
X8813634Y-9033865D01*
X8813634Y-9033865D02*
X8804110Y-9043389D01*
X8804110Y-9043389D02*
X8794586Y-9033865D01*
X8794586Y-9033865D02*
X8804110Y-9024341D01*
X8804110Y-9024341D02*
X8804110Y-9043389D01*
X8937443Y-8843389D02*
X8956491Y-8843389D01*
X8956491Y-8843389D02*
X8975539Y-8852913D01*
X8975539Y-8852913D02*
X8985063Y-8862436D01*
X8985063Y-8862436D02*
X8994586Y-8881484D01*
X8994586Y-8881484D02*
X9004110Y-8919579D01*
X9004110Y-8919579D02*
X9004110Y-8967198D01*
X9004110Y-8967198D02*
X8994586Y-9005294D01*
X8994586Y-9005294D02*
X8985063Y-9024341D01*
X8985063Y-9024341D02*
X8975539Y-9033865D01*
X8975539Y-9033865D02*
X8956491Y-9043389D01*
X8956491Y-9043389D02*
X8937443Y-9043389D01*
X8937443Y-9043389D02*
X8918396Y-9033865D01*
X8918396Y-9033865D02*
X8908872Y-9024341D01*
X8908872Y-9024341D02*
X8899348Y-9005294D01*
X8899348Y-9005294D02*
X8889824Y-8967198D01*
X8889824Y-8967198D02*
X8889824Y-8919579D01*
X8889824Y-8919579D02*
X8899348Y-8881484D01*
X8899348Y-8881484D02*
X8908872Y-8862436D01*
X8908872Y-8862436D02*
X8918396Y-8852913D01*
X8918396Y-8852913D02*
X8937443Y-8843389D01*
X9118396Y-8929103D02*
X9099348Y-8919579D01*
X9099348Y-8919579D02*
X9089824Y-8910055D01*
X9089824Y-8910055D02*
X9080301Y-8891008D01*
X9080301Y-8891008D02*
X9080301Y-8881484D01*
X9080301Y-8881484D02*
X9089824Y-8862436D01*
X9089824Y-8862436D02*
X9099348Y-8852913D01*
X9099348Y-8852913D02*
X9118396Y-8843389D01*
X9118396Y-8843389D02*
X9156491Y-8843389D01*
X9156491Y-8843389D02*
X9175539Y-8852913D01*
X9175539Y-8852913D02*
X9185063Y-8862436D01*
X9185063Y-8862436D02*
X9194586Y-8881484D01*
X9194586Y-8881484D02*
X9194586Y-8891008D01*
X9194586Y-8891008D02*
X9185063Y-8910055D01*
X9185063Y-8910055D02*
X9175539Y-8919579D01*
X9175539Y-8919579D02*
X9156491Y-8929103D01*
X9156491Y-8929103D02*
X9118396Y-8929103D01*
X9118396Y-8929103D02*
X9099348Y-8938627D01*
X9099348Y-8938627D02*
X9089824Y-8948151D01*
X9089824Y-8948151D02*
X9080301Y-8967198D01*
X9080301Y-8967198D02*
X9080301Y-9005294D01*
X9080301Y-9005294D02*
X9089824Y-9024341D01*
X9089824Y-9024341D02*
X9099348Y-9033865D01*
X9099348Y-9033865D02*
X9118396Y-9043389D01*
X9118396Y-9043389D02*
X9156491Y-9043389D01*
X9156491Y-9043389D02*
X9175539Y-9033865D01*
X9175539Y-9033865D02*
X9185063Y-9024341D01*
X9185063Y-9024341D02*
X9194586Y-9005294D01*
X9194586Y-9005294D02*
X9194586Y-8967198D01*
X9194586Y-8967198D02*
X9185063Y-8948151D01*
X9185063Y-8948151D02*
X9175539Y-8938627D01*
X9175539Y-8938627D02*
X9156491Y-8929103D01*
X9366015Y-8843389D02*
X9327920Y-8843389D01*
X9327920Y-8843389D02*
X9308872Y-8852913D01*
X9308872Y-8852913D02*
X9299348Y-8862436D01*
X9299348Y-8862436D02*
X9280301Y-8891008D01*
X9280301Y-8891008D02*
X9270777Y-8929103D01*
X9270777Y-8929103D02*
X9270777Y-9005294D01*
X9270777Y-9005294D02*
X9280301Y-9024341D01*
X9280301Y-9024341D02*
X9289824Y-9033865D01*
X9289824Y-9033865D02*
X9308872Y-9043389D01*
X9308872Y-9043389D02*
X9346967Y-9043389D01*
X9346967Y-9043389D02*
X9366015Y-9033865D01*
X9366015Y-9033865D02*
X9375539Y-9024341D01*
X9375539Y-9024341D02*
X9385063Y-9005294D01*
X9385063Y-9005294D02*
X9385063Y-8957675D01*
X9385063Y-8957675D02*
X9375539Y-8938627D01*
X9375539Y-8938627D02*
X9366015Y-8929103D01*
X9366015Y-8929103D02*
X9346967Y-8919579D01*
X9346967Y-8919579D02*
X9308872Y-8919579D01*
X9308872Y-8919579D02*
X9289824Y-8929103D01*
X9289824Y-8929103D02*
X9280301Y-8938627D01*
X9280301Y-8938627D02*
X9270777Y-8957675D01*
X9556491Y-8843389D02*
X9518396Y-8843389D01*
X9518396Y-8843389D02*
X9499348Y-8852913D01*
X9499348Y-8852913D02*
X9489824Y-8862436D01*
X9489824Y-8862436D02*
X9470777Y-8891008D01*
X9470777Y-8891008D02*
X9461253Y-8929103D01*
X9461253Y-8929103D02*
X9461253Y-9005294D01*
X9461253Y-9005294D02*
X9470777Y-9024341D01*
X9470777Y-9024341D02*
X9480301Y-9033865D01*
X9480301Y-9033865D02*
X9499348Y-9043389D01*
X9499348Y-9043389D02*
X9537444Y-9043389D01*
X9537444Y-9043389D02*
X9556491Y-9033865D01*
X9556491Y-9033865D02*
X9566015Y-9024341D01*
X9566015Y-9024341D02*
X9575539Y-9005294D01*
X9575539Y-9005294D02*
X9575539Y-8957675D01*
X9575539Y-8957675D02*
X9566015Y-8938627D01*
X9566015Y-8938627D02*
X9556491Y-8929103D01*
X9556491Y-8929103D02*
X9537444Y-8919579D01*
X9537444Y-8919579D02*
X9499348Y-8919579D01*
X9499348Y-8919579D02*
X9480301Y-8929103D01*
X9480301Y-8929103D02*
X9470777Y-8938627D01*
X9470777Y-8938627D02*
X9461253Y-8957675D01*
X9651729Y-8843389D02*
X9651729Y-8881484D01*
X9727920Y-8843389D02*
X9727920Y-8881484D01*
X10023158Y-9119579D02*
X10013634Y-9110055D01*
X10013634Y-9110055D02*
X9994586Y-9081484D01*
X9994586Y-9081484D02*
X9985063Y-9062436D01*
X9985063Y-9062436D02*
X9975539Y-9033865D01*
X9975539Y-9033865D02*
X9966015Y-8986246D01*
X9966015Y-8986246D02*
X9966015Y-8948151D01*
X9966015Y-8948151D02*
X9975539Y-8900532D01*
X9975539Y-8900532D02*
X9985063Y-8871960D01*
X9985063Y-8871960D02*
X9994586Y-8852913D01*
X9994586Y-8852913D02*
X10013634Y-8824341D01*
X10013634Y-8824341D02*
X10023158Y-8814817D01*
X10185063Y-8910055D02*
X10185063Y-9043389D01*
X10137444Y-8833865D02*
X10089825Y-8976722D01*
X10089825Y-8976722D02*
X10213634Y-8976722D01*
X10442206Y-9043389D02*
X10442206Y-8843389D01*
X10527920Y-9043389D02*
X10527920Y-8938627D01*
X10527920Y-8938627D02*
X10518396Y-8919579D01*
X10518396Y-8919579D02*
X10499348Y-8910055D01*
X10499348Y-8910055D02*
X10470777Y-8910055D01*
X10470777Y-8910055D02*
X10451729Y-8919579D01*
X10451729Y-8919579D02*
X10442206Y-8929103D01*
X10651729Y-9043389D02*
X10632682Y-9033865D01*
X10632682Y-9033865D02*
X10623158Y-9024341D01*
X10623158Y-9024341D02*
X10613634Y-9005294D01*
X10613634Y-9005294D02*
X10613634Y-8948151D01*
X10613634Y-8948151D02*
X10623158Y-8929103D01*
X10623158Y-8929103D02*
X10632682Y-8919579D01*
X10632682Y-8919579D02*
X10651729Y-8910055D01*
X10651729Y-8910055D02*
X10680301Y-8910055D01*
X10680301Y-8910055D02*
X10699348Y-8919579D01*
X10699348Y-8919579D02*
X10708872Y-8929103D01*
X10708872Y-8929103D02*
X10718396Y-8948151D01*
X10718396Y-8948151D02*
X10718396Y-9005294D01*
X10718396Y-9005294D02*
X10708872Y-9024341D01*
X10708872Y-9024341D02*
X10699348Y-9033865D01*
X10699348Y-9033865D02*
X10680301Y-9043389D01*
X10680301Y-9043389D02*
X10651729Y-9043389D01*
X10832682Y-9043389D02*
X10813634Y-9033865D01*
X10813634Y-9033865D02*
X10804110Y-9014817D01*
X10804110Y-9014817D02*
X10804110Y-8843389D01*
X10985063Y-9033865D02*
X10966015Y-9043389D01*
X10966015Y-9043389D02*
X10927920Y-9043389D01*
X10927920Y-9043389D02*
X10908872Y-9033865D01*
X10908872Y-9033865D02*
X10899348Y-9014817D01*
X10899348Y-9014817D02*
X10899348Y-8938627D01*
X10899348Y-8938627D02*
X10908872Y-8919579D01*
X10908872Y-8919579D02*
X10927920Y-8910055D01*
X10927920Y-8910055D02*
X10966015Y-8910055D01*
X10966015Y-8910055D02*
X10985063Y-8919579D01*
X10985063Y-8919579D02*
X10994587Y-8938627D01*
X10994587Y-8938627D02*
X10994587Y-8957675D01*
X10994587Y-8957675D02*
X10899348Y-8976722D01*
X11070777Y-9033865D02*
X11089825Y-9043389D01*
X11089825Y-9043389D02*
X11127920Y-9043389D01*
X11127920Y-9043389D02*
X11146968Y-9033865D01*
X11146968Y-9033865D02*
X11156491Y-9014817D01*
X11156491Y-9014817D02*
X11156491Y-9005294D01*
X11156491Y-9005294D02*
X11146968Y-8986246D01*
X11146968Y-8986246D02*
X11127920Y-8976722D01*
X11127920Y-8976722D02*
X11099348Y-8976722D01*
X11099348Y-8976722D02*
X11080301Y-8967198D01*
X11080301Y-8967198D02*
X11070777Y-8948151D01*
X11070777Y-8948151D02*
X11070777Y-8938627D01*
X11070777Y-8938627D02*
X11080301Y-8919579D01*
X11080301Y-8919579D02*
X11099348Y-8910055D01*
X11099348Y-8910055D02*
X11127920Y-8910055D01*
X11127920Y-8910055D02*
X11146968Y-8919579D01*
X11223158Y-9119579D02*
X11232682Y-9110055D01*
X11232682Y-9110055D02*
X11251729Y-9081484D01*
X11251729Y-9081484D02*
X11261253Y-9062436D01*
X11261253Y-9062436D02*
X11270777Y-9033865D01*
X11270777Y-9033865D02*
X11280301Y-8986246D01*
X11280301Y-8986246D02*
X11280301Y-8948151D01*
X11280301Y-8948151D02*
X11270777Y-8900532D01*
X11270777Y-8900532D02*
X11261253Y-8871960D01*
X11261253Y-8871960D02*
X11251729Y-8852913D01*
X11251729Y-8852913D02*
X11232682Y-8824341D01*
X11232682Y-8824341D02*
X11223158Y-8814817D01*
X11585063Y-9119579D02*
X11575539Y-9110055D01*
X11575539Y-9110055D02*
X11556491Y-9081484D01*
X11556491Y-9081484D02*
X11546967Y-9062436D01*
X11546967Y-9062436D02*
X11537444Y-9033865D01*
X11537444Y-9033865D02*
X11527920Y-8986246D01*
X11527920Y-8986246D02*
X11527920Y-8948151D01*
X11527920Y-8948151D02*
X11537444Y-8900532D01*
X11537444Y-8900532D02*
X11546967Y-8871960D01*
X11546967Y-8871960D02*
X11556491Y-8852913D01*
X11556491Y-8852913D02*
X11575539Y-8824341D01*
X11575539Y-8824341D02*
X11585063Y-8814817D01*
X11661253Y-8910055D02*
X11661253Y-9043389D01*
X11661253Y-8929103D02*
X11670777Y-8919579D01*
X11670777Y-8919579D02*
X11689825Y-8910055D01*
X11689825Y-8910055D02*
X11718396Y-8910055D01*
X11718396Y-8910055D02*
X11737444Y-8919579D01*
X11737444Y-8919579D02*
X11746967Y-8938627D01*
X11746967Y-8938627D02*
X11746967Y-9043389D01*
X11870777Y-9043389D02*
X11851729Y-9033865D01*
X11851729Y-9033865D02*
X11842206Y-9024341D01*
X11842206Y-9024341D02*
X11832682Y-9005294D01*
X11832682Y-9005294D02*
X11832682Y-8948151D01*
X11832682Y-8948151D02*
X11842206Y-8929103D01*
X11842206Y-8929103D02*
X11851729Y-8919579D01*
X11851729Y-8919579D02*
X11870777Y-8910055D01*
X11870777Y-8910055D02*
X11899348Y-8910055D01*
X11899348Y-8910055D02*
X11918396Y-8919579D01*
X11918396Y-8919579D02*
X11927920Y-8929103D01*
X11927920Y-8929103D02*
X11937444Y-8948151D01*
X11937444Y-8948151D02*
X11937444Y-9005294D01*
X11937444Y-9005294D02*
X11927920Y-9024341D01*
X11927920Y-9024341D02*
X11918396Y-9033865D01*
X11918396Y-9033865D02*
X11899348Y-9043389D01*
X11899348Y-9043389D02*
X11870777Y-9043389D01*
X11994587Y-8910055D02*
X12070777Y-8910055D01*
X12023158Y-8843389D02*
X12023158Y-9014817D01*
X12023158Y-9014817D02*
X12032682Y-9033865D01*
X12032682Y-9033865D02*
X12051729Y-9043389D01*
X12051729Y-9043389D02*
X12070777Y-9043389D01*
X12289825Y-8910055D02*
X12289825Y-9110055D01*
X12289825Y-8919579D02*
X12308872Y-8910055D01*
X12308872Y-8910055D02*
X12346968Y-8910055D01*
X12346968Y-8910055D02*
X12366015Y-8919579D01*
X12366015Y-8919579D02*
X12375539Y-8929103D01*
X12375539Y-8929103D02*
X12385063Y-8948151D01*
X12385063Y-8948151D02*
X12385063Y-9005294D01*
X12385063Y-9005294D02*
X12375539Y-9024341D01*
X12375539Y-9024341D02*
X12366015Y-9033865D01*
X12366015Y-9033865D02*
X12346968Y-9043389D01*
X12346968Y-9043389D02*
X12308872Y-9043389D01*
X12308872Y-9043389D02*
X12289825Y-9033865D01*
X12499348Y-9043389D02*
X12480301Y-9033865D01*
X12480301Y-9033865D02*
X12470777Y-9014817D01*
X12470777Y-9014817D02*
X12470777Y-8843389D01*
X12661253Y-9043389D02*
X12661253Y-8938627D01*
X12661253Y-8938627D02*
X12651729Y-8919579D01*
X12651729Y-8919579D02*
X12632682Y-8910055D01*
X12632682Y-8910055D02*
X12594587Y-8910055D01*
X12594587Y-8910055D02*
X12575539Y-8919579D01*
X12661253Y-9033865D02*
X12642206Y-9043389D01*
X12642206Y-9043389D02*
X12594587Y-9043389D01*
X12594587Y-9043389D02*
X12575539Y-9033865D01*
X12575539Y-9033865D02*
X12566015Y-9014817D01*
X12566015Y-9014817D02*
X12566015Y-8995770D01*
X12566015Y-8995770D02*
X12575539Y-8976722D01*
X12575539Y-8976722D02*
X12594587Y-8967198D01*
X12594587Y-8967198D02*
X12642206Y-8967198D01*
X12642206Y-8967198D02*
X12661253Y-8957675D01*
X12727920Y-8910055D02*
X12804110Y-8910055D01*
X12756491Y-8843389D02*
X12756491Y-9014817D01*
X12756491Y-9014817D02*
X12766015Y-9033865D01*
X12766015Y-9033865D02*
X12785063Y-9043389D01*
X12785063Y-9043389D02*
X12804110Y-9043389D01*
X12946968Y-9033865D02*
X12927920Y-9043389D01*
X12927920Y-9043389D02*
X12889825Y-9043389D01*
X12889825Y-9043389D02*
X12870777Y-9033865D01*
X12870777Y-9033865D02*
X12861253Y-9014817D01*
X12861253Y-9014817D02*
X12861253Y-8938627D01*
X12861253Y-8938627D02*
X12870777Y-8919579D01*
X12870777Y-8919579D02*
X12889825Y-8910055D01*
X12889825Y-8910055D02*
X12927920Y-8910055D01*
X12927920Y-8910055D02*
X12946968Y-8919579D01*
X12946968Y-8919579D02*
X12956491Y-8938627D01*
X12956491Y-8938627D02*
X12956491Y-8957675D01*
X12956491Y-8957675D02*
X12861253Y-8976722D01*
X13127920Y-9043389D02*
X13127920Y-8843389D01*
X13127920Y-9033865D02*
X13108872Y-9043389D01*
X13108872Y-9043389D02*
X13070777Y-9043389D01*
X13070777Y-9043389D02*
X13051729Y-9033865D01*
X13051729Y-9033865D02*
X13042206Y-9024341D01*
X13042206Y-9024341D02*
X13032682Y-9005294D01*
X13032682Y-9005294D02*
X13032682Y-8948151D01*
X13032682Y-8948151D02*
X13042206Y-8929103D01*
X13042206Y-8929103D02*
X13051729Y-8919579D01*
X13051729Y-8919579D02*
X13070777Y-8910055D01*
X13070777Y-8910055D02*
X13108872Y-8910055D01*
X13108872Y-8910055D02*
X13127920Y-8919579D01*
X13204110Y-9119579D02*
X13213634Y-9110055D01*
X13213634Y-9110055D02*
X13232682Y-9081484D01*
X13232682Y-9081484D02*
X13242206Y-9062436D01*
X13242206Y-9062436D02*
X13251729Y-9033865D01*
X13251729Y-9033865D02*
X13261253Y-8986246D01*
X13261253Y-8986246D02*
X13261253Y-8948151D01*
X13261253Y-8948151D02*
X13251729Y-8900532D01*
X13251729Y-8900532D02*
X13242206Y-8871960D01*
X13242206Y-8871960D02*
X13232682Y-8852913D01*
X13232682Y-8852913D02*
X13213634Y-8824341D01*
X13213634Y-8824341D02*
X13204110Y-8814817D01*
M02*
